<svg width="22" height="20" viewBox="0 0 22 20" fill="none" xmlns="http://www.w3.org/2000/svg">
<path fill-rule="evenodd" clip-rule="evenodd" d="M0.531492 19.801H0.465123C0.465123 19.7679 0.448492 19.718 0.448492 19.7012C0.448492 19.6844 0.448492 19.6516 0.398677 19.6516H0.298969V19.801H0.249154V19.4518H0.398677C0.465123 19.4518 0.514706 19.4685 0.514706 19.5348C0.516207 19.5503 0.513984 19.5659 0.508225 19.5804C0.502465 19.5948 0.493335 19.6076 0.481599 19.6178C0.491712 19.6258 0.49993 19.6359 0.505656 19.6474C0.511382 19.659 0.514474 19.6716 0.514706 19.6845V19.7509C0.514706 19.7677 0.514706 19.7677 0.531337 19.7677L0.531492 19.801ZM0.465123 19.5518C0.465123 19.5019 0.431861 19.5019 0.415308 19.5019H0.299278V19.6017H0.398677C0.431939 19.6017 0.465123 19.5849 0.465123 19.5518ZM0.747461 19.6182C0.746539 19.569 0.735908 19.5205 0.716181 19.4755C0.696454 19.4304 0.66802 19.3897 0.632517 19.3557C0.597015 19.3217 0.555144 19.2951 0.509316 19.2774C0.463489 19.2596 0.414609 19.2512 0.365492 19.2524C0.268847 19.2533 0.176406 19.2921 0.108064 19.3605C0.0397229 19.4289 0.000945272 19.5215 7.73584e-05 19.6182C-0.00093421 19.668 0.00798384 19.7175 0.0263092 19.7637C0.0446346 19.81 0.0719989 19.8521 0.1068 19.8877C0.1416 19.9233 0.183138 19.9515 0.228979 19.9708C0.274821 19.9901 0.324045 20 0.373769 20C0.423493 20 0.472717 19.9901 0.518559 19.9708C0.564401 19.9515 0.605938 19.9233 0.640739 19.8877C0.67554 19.8521 0.702904 19.81 0.721229 19.7637C0.739555 19.7175 0.748473 19.668 0.747461 19.6182ZM0.697646 19.6182C0.697184 19.661 0.688153 19.7032 0.671087 19.7424C0.654021 19.7816 0.629268 19.817 0.598294 19.8465C0.56732 19.8759 0.530755 19.8989 0.490767 19.9139C0.450778 19.9289 0.408179 19.9358 0.365492 19.9341C0.323676 19.9355 0.282016 19.9283 0.243097 19.9129C0.204177 19.8975 0.168828 19.8743 0.139242 19.8447C0.109657 19.8151 0.0864668 19.7797 0.0711101 19.7407C0.0557533 19.7018 0.0485578 19.6601 0.04997 19.6182C0.0499496 19.5767 0.058097 19.5357 0.0739463 19.4973C0.0897956 19.459 0.113036 19.4242 0.142339 19.3948C0.171642 19.3655 0.206433 19.3422 0.244723 19.3264C0.283013 19.3105 0.324052 19.3023 0.365492 19.3024C0.450918 19.3018 0.533246 19.3344 0.595183 19.3933C0.65712 19.4522 0.693846 19.5328 0.697646 19.6182ZM21.1584 12.9016C21.1584 13.4005 20.8429 13.6329 20.2781 13.6329H19.1988V13.1341H20.2781C20.3536 13.1418 20.4296 13.1244 20.4942 13.0844C20.5146 13.0652 20.531 13.042 20.5424 13.0163C20.5538 12.9906 20.56 12.9629 20.5606 12.9348C20.5594 12.8731 20.5358 12.814 20.4942 12.7686C20.4361 12.728 20.3652 12.7103 20.2949 12.7187C19.7802 12.702 19.1324 12.7352 19.1324 12.0038C19.1324 11.6709 19.3483 11.3054 19.9291 11.3054H21.0424V11.8043H20.0124C19.9387 11.7947 19.8639 11.8062 19.7965 11.8374C19.7702 11.86 19.7491 11.8881 19.7348 11.9197C19.7205 11.9513 19.7132 11.9857 19.7135 12.0204C19.7141 12.0566 19.7254 12.0917 19.7461 12.1214C19.7668 12.151 19.7959 12.1738 19.8296 12.1868C19.8999 12.2071 19.9725 12.2183 20.0457 12.2199H20.3445C20.66 12.2199 20.8595 12.2864 20.9923 12.4029C21.1087 12.5422 21.168 12.7204 21.1584 12.9016ZM18.8167 12.4028C18.6838 12.2862 18.4841 12.2198 18.1689 12.2198H17.8701C17.797 12.2181 17.7244 12.2069 17.6542 12.1867C17.6204 12.1737 17.5913 12.1509 17.5707 12.1213C17.55 12.0916 17.5386 12.0564 17.5381 12.0202C17.5341 11.9851 17.5396 11.9495 17.5543 11.9172C17.5689 11.885 17.592 11.8574 17.6211 11.8373C17.6885 11.806 17.7633 11.7945 17.837 11.8041H18.8667V11.3056H17.7539C17.1559 11.3056 16.9565 11.6714 16.9565 12.004C16.9565 12.7353 17.6044 12.7021 18.1192 12.7189C18.1895 12.7104 18.2604 12.7282 18.3183 12.7687C18.36 12.8142 18.3836 12.8733 18.3849 12.9349C18.3843 12.963 18.3781 12.9908 18.3667 13.0165C18.3553 13.0422 18.3388 13.0653 18.3183 13.0846C18.2529 13.1224 18.1777 13.1397 18.1024 13.1342H17.023V13.6331H18.1025C18.6672 13.6331 18.9827 13.4008 18.9827 12.9018C18.9925 12.7204 18.9331 12.542 18.8167 12.4028ZM16.6909 13.151H15.3791V12.6854H16.6577V12.2201H15.3791V11.7877H16.6908V11.3056H14.831V13.6331H16.6908L16.6909 13.151ZM14.2329 11.4217C14.0502 11.3219 13.8343 11.3052 13.5522 11.3052H12.2736V13.6327H12.8383V12.7851H13.4362C13.6353 12.7851 13.7517 12.8018 13.8348 12.8849C13.9345 13.001 13.9345 13.2007 13.9345 13.3504V13.6329H14.4824V13.1838C14.4824 12.9677 14.4659 12.8679 14.3995 12.7516C14.3252 12.6608 14.2277 12.5918 14.1173 12.5521C14.2386 12.5027 14.3419 12.4172 14.4132 12.3072C14.4845 12.1972 14.5203 12.068 14.5159 11.9369C14.5154 11.6712 14.4156 11.5216 14.2329 11.4217ZM11.0775 11.3056H9.30022L8.5861 12.0704L7.90539 11.3056H5.66332V13.6331H7.87228L8.58641 12.8682L9.26711 13.6331H10.3466V12.8517H11.0442C11.5257 12.8517 12.0076 12.7186 12.0076 12.0702C12.0076 11.4385 11.5093 11.3056 11.0775 11.3056ZM13.7848 12.27C13.6993 12.2983 13.609 12.3095 13.5191 12.3031L12.8384 12.3198V11.7876H13.5191C13.6107 11.7766 13.7035 11.794 13.7848 11.8375C13.8214 11.8559 13.8519 11.8846 13.8725 11.92C13.8931 11.9554 13.9029 11.9961 13.9009 12.037C13.9009 12.0822 13.8904 12.1268 13.8702 12.1672C13.8499 12.2076 13.8206 12.2428 13.7844 12.2698L13.7848 12.27ZM11.0775 12.3861H10.3467V11.7875H11.0775C11.2768 11.7875 11.4096 11.8708 11.4096 12.0703C11.4096 12.2697 11.2767 12.3861 11.0775 12.3861ZM8.9348 12.4691L9.79837 11.5549V13.4335L8.9348 12.4691ZM7.58956 13.1506H6.21136V12.685H7.44027V12.2197H6.21136V11.7873H7.60619L8.22068 12.4688L7.58964 13.1502L7.58956 13.1506ZM19.6135 9.62586H18.8168L17.7704 7.88054V9.62625H16.641L16.4249 9.11076H15.2627L15.0468 9.62625H14.3989C14.1332 9.62625 13.7844 9.55973 13.5853 9.36018C13.4026 9.1607 13.3029 8.89471 13.3029 8.47904C13.3029 8.12988 13.3527 7.81402 13.6017 7.56468C13.7677 7.3817 14.0668 7.29869 14.4487 7.29869H14.9801V7.79776H14.4487C14.2496 7.79776 14.1332 7.83106 14.017 7.93079C13.9173 8.03061 13.8674 8.21343 13.8674 8.46278C13.8674 8.71212 13.9173 8.8951 14.017 9.01148C14.0999 9.0945 14.2496 9.12764 14.3989 9.12764H14.6481L15.4448 7.29892H16.2753L17.2057 9.4936V7.29869H18.0693L19.0492 8.91136V7.29869H19.6138V9.62625L19.6135 9.62586ZM13.0209 7.29869H12.4562V9.62625H13.0209V7.29869ZM11.8416 7.3985C11.6589 7.29869 11.4598 7.29869 11.1774 7.29869H9.89831V9.62625H10.4464V8.77825H11.0442C11.2436 8.77825 11.3768 8.7949 11.4594 8.87806C11.5592 8.99422 11.5424 9.19408 11.5424 9.32719V9.6264H12.107V9.16062C12.107 8.96115 12.0906 8.86141 12.0076 8.74495C11.9364 8.65794 11.8452 8.58949 11.7419 8.54548C11.8616 8.49387 11.9634 8.40789 12.0343 8.2984C12.1053 8.18891 12.1422 8.06082 12.1405 7.93033C12.1454 7.82253 12.1201 7.7155 12.0672 7.62144C12.0144 7.52738 11.9363 7.45023 11.8416 7.3985ZM9.49994 9.14421H8.20428V8.67867H9.48308V8.19655H8.20428V7.78088H9.49971V7.29884H7.63968V9.6264H9.49971L9.49994 9.14421ZM7.22445 7.29869H6.31107L5.63036 8.87837L4.89961 7.29869H4.00255V9.49321L3.0559 7.29869H2.2256L1.22914 9.62625H1.827L2.04289 9.11076H3.20535L3.42124 9.62625H4.55075V7.79776L5.3645 9.62648H5.84602L6.6597 7.79776V9.62648H7.22438L7.22445 7.29869ZM16.226 8.61207L15.8439 7.69771L15.462 8.61207H16.226ZM11.4097 8.24642C11.3223 8.28986 11.2243 8.30717 11.1274 8.29629H10.4467V7.78096H11.1274C11.2228 7.77351 11.3187 7.78482 11.4097 7.81425C11.4431 7.83897 11.4698 7.87174 11.4872 7.90952C11.5047 7.94729 11.5123 7.98886 11.5094 8.03038C11.5142 8.07208 11.5074 8.1143 11.4898 8.1524C11.4722 8.1905 11.4445 8.22303 11.4097 8.24642ZM2.24207 8.61207L2.62404 7.69771L3.00601 8.61207H2.24207ZM21.0256 0H1.21243V8.3793L1.89314 6.83314H3.33816L3.5375 7.21552V6.83314H5.23145L5.61342 7.66434L5.97884 6.83314H11.3764C11.6254 6.83314 11.8412 6.88301 12.0074 7.01597V6.83314H13.4855V7.01597C13.7345 6.88294 14.0502 6.83314 14.4155 6.83314H16.5582L16.7575 7.21552V6.83314H18.3355L18.5681 7.21552V6.83314H20.1125V10.0917H18.5515L18.2527 9.59303V10.0917H16.3089L16.093 9.55973H15.6112L15.3953 10.0917H14.3823C14.0719 10.0961 13.7648 10.0278 13.4856 9.89224V10.0917H11.0775V9.34353C11.0775 9.24371 11.0608 9.22737 10.9944 9.22737H10.9115V10.0919H6.26118V9.67619L6.09518 10.0919H5.11543L4.94943 9.69284V10.0919H3.07254L2.87327 9.55988H2.3916L2.17571 10.0919H1.21243V19.9174H21.0256V13.9488C20.7674 14.054 20.4904 14.1049 20.2118 14.0985H18.7668V13.8989C18.6008 14.0321 18.3018 14.0985 18.0196 14.0985H13.4689V13.3504C13.4689 13.2506 13.4524 13.2506 13.3692 13.2506H13.2863V14.0985H11.7915V13.2173C11.5425 13.3335 11.2601 13.3335 11.011 13.3335H10.845V14.0983H9.01811L8.58641 13.5995L8.10488 14.0983H5.16501V10.8398H8.15439L8.58625 11.3384L9.0513 10.8398H11.0608C11.2929 10.8398 11.6753 10.873 11.8413 11.0391V10.8398H13.6349C13.8177 10.8398 14.1666 10.873 14.3989 11.0391V10.8398H17.1063V11.0393C17.2558 10.9063 17.5382 10.84 17.787 10.84H19.2982V11.0393C19.5047 10.9024 19.7484 10.8328 19.9959 10.84H21.0256V0Z" fill="#0077A6"/>
</svg>
