<svg width="128" height="128" viewBox="0 0 128 128" fill="none" xmlns="http://www.w3.org/2000/svg">
<g clip-path="url(#clip0_6_57)">
<path d="M108.681 0H19.3185C8.64919 0 0 8.64919 0 19.3185V108.681C0 119.351 8.64919 128 19.3185 128H108.681C119.351 128 128 119.351 128 108.681V19.3185C128 8.64919 119.351 0 108.681 0Z" fill="#FFDDDD"/>
<path d="M36 28V58" stroke="#323234" stroke-width="3" stroke-linecap="round"/>
<path d="M72 105H57" stroke="#323234" stroke-width="3" stroke-linecap="round"/>
<path d="M102 102.065C102 107.552 96.6896 112 90.1394 112H37.8606C31.3101 112 26 107.552 26 102.065V99H102V102.065Z" stroke="#323234" stroke-width="4"/>
<path d="M26 29.1629C26 22.4455 31.2405 17 37.7046 17H89.2954C95.7597 17 101 22.4455 101 29.1629V93H26V29.1629Z" stroke="#323234" stroke-width="4"/>
<path d="M112.955 63H71.0453C69.3634 63 68 64.5697 68 66.5059V103.494C68 105.43 69.3634 107 71.0453 107H112.955C114.637 107 116 105.43 116 103.494V66.5059C116 64.5697 114.637 63 112.955 63Z" fill="#323232" stroke="#FFDDDD" stroke-width="3"/>
<path d="M76 63V67M106 63V67" stroke="#323234" stroke-width="3.5" stroke-linecap="round"/>
<path d="M94.6487 86.2466C96.0944 84.8142 97.2313 83.6408 98.0595 82.7261C98.9027 81.7941 99.6029 80.8279 100.16 79.8269C100.717 78.8261 100.996 77.8251 100.996 76.8243C100.996 75.7887 100.777 74.9778 100.341 74.3909C99.9192 73.8042 99.2491 73.5109 98.3307 73.5109C97.4422 73.5109 96.7495 73.8387 96.2526 74.4945C95.7706 75.133 95.5148 75.9959 95.4846 77.083H93C93.0451 75.1157 93.5571 73.6145 94.5358 72.579C95.5297 71.5264 96.787 71 98.308 71C99.9494 71 101.229 71.5177 102.148 72.5532C103.082 73.5885 103.548 74.9691 103.548 76.6947C103.548 77.9374 103.27 79.1366 102.712 80.293C102.17 81.4319 101.515 82.4586 100.747 83.3734C99.9945 84.2706 99.0307 85.3146 97.8562 86.5053L96.8397 87.5408H104V90H93.0225V87.8513L94.6487 86.2466Z" fill="#FFDDDD"/>
<path d="M82.6487 86.2466C84.0944 84.8142 85.2313 83.6408 86.0595 82.7261C86.9027 81.7941 87.6029 80.8279 88.1601 79.8269C88.7172 78.8261 88.9959 77.8251 88.9959 76.8243C88.9959 75.7887 88.7774 74.9778 88.3407 74.3909C87.9192 73.8042 87.2491 73.5109 86.3307 73.5109C85.4422 73.5109 84.7495 73.8387 84.2526 74.4945C83.7706 75.133 83.5148 75.9959 83.4846 77.083H81C81.0451 75.1157 81.5571 73.6145 82.5358 72.579C83.5297 71.5264 84.787 71 86.308 71C87.9494 71 89.2292 71.5177 90.1477 72.5532C91.0815 73.5885 91.5482 74.9691 91.5482 76.6947C91.5482 77.9374 91.2697 79.1366 90.7124 80.293C90.1704 81.4319 89.5155 82.4586 88.7474 83.3734C87.9945 84.2706 87.0307 85.3146 85.8562 86.5053L84.8397 87.5408H92V90H81.0225V87.8513L82.6487 86.2466Z" fill="#FFDDDD"/>
<path d="M90 93V94.2043H86.3936V96.8589H89.2054V98.0632H86.3936V102H85V93H90Z" fill="#FFDDDD"/>
<path d="M95 98.3338C95 98.588 94.9878 98.8177 94.9632 99.0227H91.0865C91.1173 99.5641 91.2677 99.9988 91.5379 100.327C91.8079 100.655 92.1394 100.819 92.5324 100.819C93.0972 100.819 93.4961 100.503 93.7293 99.8715H94.862C94.7084 100.495 94.4293 101.008 94.0241 101.409C93.6249 101.803 93.1278 102 92.5324 102C92.0472 102 91.6115 101.856 91.2247 101.569C90.8441 101.274 90.5434 100.864 90.3224 100.339C90.1074 99.8061 90 99.1909 90 98.4937C90 97.7966 90.1044 97.1857 90.3132 96.6608C90.528 96.1276 90.8257 95.7176 91.2063 95.4307C91.5931 95.1435 92.035 95 92.5324 95C93.0112 95 93.4377 95.1395 93.8123 95.4182C94.1867 95.6971 94.4782 96.0908 94.687 96.5993C94.8958 97.0994 95 97.6779 95 98.3338ZM93.9043 97.8911C93.8981 97.3744 93.7601 96.9602 93.4899 96.6485C93.22 96.3368 92.8854 96.1811 92.4862 96.1811C92.124 96.1811 91.8141 96.3368 91.5563 96.6485C91.2985 96.952 91.1449 97.3662 91.0959 97.8911H93.9043Z" fill="#FFDDDD"/>
<path d="M97.2106 96.2564C97.4159 95.9359 97.6956 95.6756 98.0494 95.4754C98.4106 95.2672 98.8105 95.1629 99.2494 95.1629C99.7663 95.1629 100.234 95.303 100.651 95.5836C101.069 95.8638 101.398 96.2642 101.639 96.785C101.88 97.2977 102 97.8864 102 98.5514C102 99.2162 101.88 99.8129 101.639 100.342C101.398 100.863 101.065 101.271 100.641 101.567C100.223 101.856 99.7594 102 99.2494 102C98.7965 102 98.3928 101.9 98.0388 101.699C97.6919 101.499 97.4159 101.243 97.2106 100.93V101.892H96V93H97.2106V96.2564ZM100.768 98.5514C100.768 98.0949 100.683 97.7023 100.513 97.3739C100.35 97.0375 100.131 96.785 99.8549 96.6168C99.5857 96.4405 99.2956 96.3524 98.984 96.3524C98.6795 96.3524 98.3894 96.4405 98.1133 96.6168C97.8442 96.7931 97.6248 97.0494 97.4549 97.3859C97.292 97.7223 97.2106 98.1188 97.2106 98.5753C97.2106 99.0319 97.292 99.4325 97.4549 99.777C97.6248 100.113 97.8442 100.37 98.1133 100.546C98.3894 100.722 98.6795 100.81 98.984 100.81C99.2956 100.81 99.5857 100.722 99.8549 100.546C100.131 100.362 100.35 100.097 100.513 99.7529C100.683 99.4084 100.768 99.008 100.768 98.5514Z" fill="#FFDDDD"/>
</g>
<defs>
<clipPath id="clip0_6_57">
<rect width="128" height="128" fill="white"/>
</clipPath>
</defs>
</svg>
