<svg width="104" height="104" viewBox="0 0 104 104" fill="none" xmlns="http://www.w3.org/2000/svg">
<path d="M52 102C79.6142 102 102 79.6142 102 52C102 24.3858 79.6142 2 52 2C24.3858 2 2 24.3858 2 52C2 79.6142 24.3858 102 52 102Z" fill="white"/>
<path d="M52 103C80.1665 103 103 80.1665 103 52C103 23.8335 80.1665 1 52 1C23.8335 1 1 23.8335 1 52C1 80.1665 23.8335 103 52 103Z" stroke="#DD2127" stroke-width="2"/>
<path d="M74.2276 35.3918H30.0001C28.0671 35.3918 26.5001 36.9588 26.5001 38.8918V72.9091C26.5001 74.8421 28.0671 76.4091 30.0001 76.4091H74.2276C76.1606 76.4091 77.7276 74.8421 77.7276 72.9091V38.8918C77.7276 36.9588 76.1606 35.3918 74.2276 35.3918Z" stroke="#DD2127" stroke-width="3"/>
<path d="M76.2276 34.1418H28.0001C26.4813 34.1418 25.2501 35.373 25.2501 36.8918V74.9091C25.2501 76.4279 26.4813 77.6591 28.0001 77.6591H76.2276C77.7464 77.6591 78.9776 76.4279 78.9776 74.9091V36.8918C78.9776 35.373 77.7464 34.1418 76.2276 34.1418Z" fill="white" stroke="#DD2127" stroke-width="3"/>
<path d="M36.7955 28V38.0041M67.5724 28V38.0041" stroke="#DD2127" stroke-width="3" stroke-linecap="round"/>
<path d="M35.7817 52.4545H41.8953" stroke="#DD2127" stroke-width="3" stroke-linecap="round"/>
<path d="M35.7817 59.7909H41.8953" stroke="#DD2127" stroke-width="3" stroke-linecap="round"/>
<path d="M35.7817 67.1273H41.8953" stroke="#DD2127" stroke-width="3" stroke-linecap="round"/>
<path d="M49.2318 52.4545H56.5681" stroke="#DD2127" stroke-width="3" stroke-linecap="round"/>
<path d="M49.2316 59.7909H56.5679" stroke="#DD2127" stroke-width="3" stroke-linecap="round"/>
<path d="M49.2316 67.1273H56.5679" stroke="#DD2127" stroke-width="3" stroke-linecap="round"/>
<path d="M63.903 52.4545H71.2393" stroke="#DD2127" stroke-width="3" stroke-linecap="round"/>
<path d="M63.903 59.7909H71.2393" stroke="#DD2127" stroke-width="3" stroke-linecap="round"/>
<path d="M63.903 67.1273H71.2393" stroke="#DD2127" stroke-width="3" stroke-linecap="round"/>
</svg>
