<svg width="104" height="104" viewBox="0 0 104 104" fill="none" xmlns="http://www.w3.org/2000/svg">
<path d="M52 102C79.6142 102 102 79.6142 102 52C102 24.3858 79.6142 2 52 2C24.3858 2 2 24.3858 2 52C2 79.6142 24.3858 102 52 102Z" fill="white"/>
<path d="M52 103C80.1665 103 103 80.1665 103 52C103 23.8335 80.1665 1 52 1C23.8335 1 1 23.8335 1 52C1 80.1665 23.8335 103 52 103Z" stroke="#DD2127" stroke-width="2"/>
<path d="M80.6136 48.5625H77.8409V42.6875C77.8409 40.7398 77.1106 38.8719 75.8106 37.4947C74.5107 36.1175 72.7475 35.3438 70.9091 35.3438H63.9773V32.4062C63.9773 31.2376 63.5391 30.1169 62.7591 29.2906C61.9791 28.4642 60.9212 28 59.8182 28H43.1818C42.0788 28 41.0209 28.4642 40.2409 29.2906C39.4609 30.1169 39.0227 31.2376 39.0227 32.4062V35.3438H32.0909C30.2525 35.3438 28.4893 36.1175 27.1894 37.4947C25.8894 38.8719 25.1591 40.7398 25.1591 42.6875V48.5625H22.3864C22.0187 48.5625 21.6661 48.7172 21.4061 48.9927C21.1461 49.2681 21 49.6417 21 50.0312V55.9062C21 56.2958 21.1461 56.6694 21.4061 56.9448C21.6661 57.2203 22.0187 57.375 22.3864 57.375H25.1591V70.5938C25.1591 71.7624 25.5973 72.8831 26.3773 73.7094C27.1572 74.5358 28.2151 75 29.3182 75H73.6818C74.7849 75 75.8428 74.5358 76.6227 73.7094C77.4027 72.8831 77.8409 71.7624 77.8409 70.5938V57.375H80.6136C80.9813 57.375 81.334 57.2203 81.5939 56.9448C81.8539 56.6694 82 56.2958 82 55.9062V50.0312C82 49.6417 81.8539 49.2681 81.5939 48.9927C81.334 48.7172 80.9813 48.5625 80.6136 48.5625ZM41.7955 32.4062C41.7955 32.0167 41.9415 31.6431 42.2015 31.3677C42.4615 31.0922 42.8141 30.9375 43.1818 30.9375H59.8182C60.1859 30.9375 60.5385 31.0922 60.7985 31.3677C61.0585 31.6431 61.2045 32.0167 61.2045 32.4062V35.3438H41.7955V32.4062ZM27.9318 42.6875C27.9318 41.5189 28.37 40.3981 29.15 39.5718C29.93 38.7455 30.9878 38.2812 32.0909 38.2812H70.9091C72.0122 38.2812 73.07 38.7455 73.85 39.5718C74.63 40.3981 75.0682 41.5189 75.0682 42.6875V48.5625H66.75V47.0938C66.75 46.7042 66.6039 46.3306 66.3439 46.0552C66.084 45.7797 65.7313 45.625 65.3636 45.625H59.8182C59.4505 45.625 59.0979 45.7797 58.8379 46.0552C58.5779 46.3306 58.4318 46.7042 58.4318 47.0938V48.5625H44.5682V47.0938C44.5682 46.7042 44.4221 46.3306 44.1621 46.0552C43.9021 45.7797 43.5495 45.625 43.1818 45.625H37.6364C37.2687 45.625 36.9161 45.7797 36.6561 46.0552C36.3961 46.3306 36.25 46.7042 36.25 47.0938V48.5625H27.9318V42.6875ZM39.0227 48.5625H41.7955V57.375H39.0227V48.5625ZM44.5682 51.5H58.4318V54.4375H44.5682V51.5ZM61.2045 48.5625H63.9773V57.375H61.2045V48.5625ZM23.7727 51.5H36.25V54.4375H23.7727V51.5ZM75.0682 70.5938C75.0682 70.9833 74.9221 71.3569 74.6621 71.6323C74.4021 71.9078 74.0495 72.0625 73.6818 72.0625H29.3182C28.9505 72.0625 28.5979 71.9078 28.3379 71.6323C28.0779 71.3569 27.9318 70.9833 27.9318 70.5938V57.375H36.25V58.8438C36.25 59.2333 36.3961 59.6069 36.6561 59.8823C36.9161 60.1578 37.2687 60.3125 37.6364 60.3125H43.1818C43.5495 60.3125 43.9021 60.1578 44.1621 59.8823C44.4221 59.6069 44.5682 59.2333 44.5682 58.8438V57.375H58.4318V58.8438C58.4318 59.2333 58.5779 59.6069 58.8379 59.8823C59.0979 60.1578 59.4505 60.3125 59.8182 60.3125H65.3636C65.7313 60.3125 66.084 60.1578 66.3439 59.8823C66.6039 59.6069 66.75 59.2333 66.75 58.8438V57.375H75.0682V70.5938ZM79.2273 54.4375H66.75V51.5H79.2273V54.4375Z" fill="#DD2127"/>
</svg>
