<svg width="128" height="128" viewBox="0 0 128 128" fill="none" xmlns="http://www.w3.org/2000/svg">
<g clip-path="url(#clip0_1_2)">
<path d="M108.681 0H19.3185C8.64919 0 0 8.64919 0 19.3185V108.681C0 119.351 8.64919 128 19.3185 128H108.681C119.351 128 128 119.351 128 108.681V19.3185C128 8.64919 119.351 0 108.681 0Z" fill="#FFDDDD"/>
<path d="M24.4265 27.7675C24.4265 21.2685 29.6368 16 36.0635 16H87.357C93.784 16 98.994 21.2685 98.994 27.7675V89.5295H24.4265V27.7675Z" stroke="#323234" stroke-width="4"/>
<path d="M98.5676 98.8635C98.5676 105.363 93.3573 110.631 86.9305 110.631H35.6371C29.2101 110.631 24 105.363 24 98.8635V95.2333H98.5676V98.8635Z" stroke="#323234" stroke-width="4"/>
<path d="M34.5331 23.6993V54.6077" stroke="#323234" stroke-width="3"/>
<path d="M70.2072 102.932H56.0852" stroke="#323234" stroke-width="3"/>
<path d="M90.1612 105.965C103.345 105.965 114.032 95.1581 114.032 81.8267C114.032 68.4954 103.345 57.6882 90.1612 57.6882C76.9777 57.6882 66.2903 68.4954 66.2903 81.8267C66.2903 95.1581 76.9777 105.965 90.1612 105.965Z" fill="#323234"/>
<path d="M98.2774 72.1413L85.4766 85.1157L80.5533 80.1372C80.2857 79.8213 79.9567 79.5648 79.5864 79.3836C79.2161 79.2026 78.8129 79.1006 78.402 79.0847C77.9911 79.0687 77.5815 79.1385 77.1985 79.2905C76.8155 79.4421 76.4677 79.6723 76.177 79.9662C75.8861 80.2604 75.6588 80.6118 75.5085 80.9991C75.3585 81.3864 75.2895 81.8006 75.3053 82.2161C75.321 82.6317 75.4219 83.0396 75.6008 83.4138C75.7801 83.7883 76.0337 84.1212 76.3461 84.3916L83.3581 91.5125C83.6369 91.792 83.9677 92.0133 84.3312 92.1634C84.6946 92.3137 85.084 92.3898 85.4766 92.3875C86.2594 92.3841 87.0096 92.0697 87.5653 91.5125L102.485 76.4257C102.764 76.1454 102.986 75.8117 103.138 75.4441C103.289 75.0761 103.367 74.6818 103.367 74.2835C103.367 73.8853 103.289 73.4909 103.138 73.1232C102.986 72.7556 102.764 72.4216 102.485 72.1413C101.926 71.5793 101.169 71.2637 100.381 71.2637C99.5929 71.2637 98.8365 71.5793 98.2774 72.1413ZM90.1614 51.6538C84.2599 51.6538 78.4907 53.4234 73.5837 56.7387C68.6768 60.0542 64.8523 64.7667 62.5939 70.2799C60.3356 75.7934 59.7447 81.8602 60.896 87.7134C62.0473 93.5663 64.8893 98.9428 69.0621 103.162C73.2352 107.382 78.552 110.256 84.34 111.42C90.1283 112.584 96.1279 111.987 101.58 109.703C107.032 107.42 111.693 103.552 114.971 98.59C118.25 93.6283 120 87.7945 120 81.8268C120 77.8645 119.228 73.9409 117.729 70.2799C116.229 66.6192 114.031 63.2929 111.26 60.4912C108.49 57.6895 105.2 55.4667 101.58 53.9505C97.9598 52.4341 94.0798 51.6538 90.1614 51.6538ZM90.1614 105.965C85.4401 105.965 80.8249 104.55 76.8993 101.897C72.9737 99.2448 69.9142 95.475 68.1073 91.0643C66.3007 86.6535 65.828 81.8001 66.7492 77.1177C67.67 72.4352 69.9437 68.1341 73.282 64.7584C76.6205 61.3824 80.8737 59.0835 85.5043 58.1521C90.1348 57.2209 94.9344 57.6989 99.2963 59.5257C103.658 61.3528 107.386 64.4466 110.009 68.4162C112.632 72.3858 114.032 77.0528 114.032 81.8268C114.032 88.2288 111.517 94.3686 107.041 98.8954C102.564 103.422 96.4923 105.965 90.1614 105.965Z" fill="#FFDDDD"/>
</g>
<defs>
<clipPath id="clip0_1_2">
<rect width="128" height="128" fill="white"/>
</clipPath>
</defs>
</svg>
