<svg width="128" height="128" viewBox="0 0 128 128" fill="none" xmlns="http://www.w3.org/2000/svg">
<g clip-path="url(#clip0_6_93)">
<path d="M108.681 0H19.3185C8.64919 0 0 8.64919 0 19.3185V108.681C0 119.351 8.64919 128 19.3185 128H108.681C119.351 128 128 119.351 128 108.681V19.3185C128 8.64919 119.351 0 108.681 0Z" fill="#FFDDDD"/>
<path d="M36 28V58" stroke="#323234" stroke-width="3" stroke-linecap="round"/>
<path d="M72 105H57" stroke="#323234" stroke-width="3" stroke-linecap="round"/>
<path d="M102 102.065C102 107.552 96.6896 112 90.1394 112H37.8606C31.3101 112 26 107.552 26 102.065V99H102V102.065Z" stroke="#323234" stroke-width="4"/>
<path d="M26 29.1629C26 22.4455 31.2405 17 37.7046 17H89.2954C95.7597 17 101 22.4455 101 29.1629V93H26V29.1629Z" stroke="#323234" stroke-width="4"/>
<path fill-rule="evenodd" clip-rule="evenodd" d="M112.967 64.8198C112.87 64.6693 112.732 64.5418 112.565 64.4478C112.398 64.3539 112.207 64.297 112.008 64.2814C110.904 64.2897 109.809 64.108 108.787 63.7468C107.765 63.3855 106.836 62.8521 106.055 62.1776C105.274 61.5031 104.657 60.7008 104.238 59.818C103.82 58.9349 103.609 57.9891 103.619 57.0351C103.619 56.7604 103.493 56.4974 103.268 56.3031C103.043 56.1089 102.739 56 102.421 56H73.6571C73.3451 56.0147 73.0499 56.1288 72.8288 56.3196C72.6079 56.5105 72.4761 56.7653 72.4587 57.0351C72.4715 57.9898 72.2635 58.9371 71.8463 59.8214C71.4294 60.7054 70.8118 61.5086 70.0302 62.1837C69.2487 62.8588 68.3185 63.3923 67.295 63.7526C66.2713 64.1126 65.1747 64.2925 64.0695 64.2814C63.8542 64.2833 63.6434 64.3338 63.4583 64.4283C63.2733 64.5228 63.12 64.658 63.0148 64.8198C60.0716 69.4894 58.3773 74.6695 58.0561 79.979C57.735 85.2885 58.7948 90.5928 61.1584 95.5019C63.522 100.411 67.1289 104.801 71.7144 108.348C76.2996 111.895 81.7468 114.51 87.6555 116H88.3747C94.2819 114.508 99.7266 111.892 104.309 108.343C108.892 104.795 112.495 100.404 114.854 95.4946C117.213 90.5849 118.269 85.2806 117.942 79.9723C117.616 74.6637 115.915 69.486 112.967 64.8198ZM109.638 67.6438C109.554 67.5134 109.435 67.4029 109.29 67.3215C109.145 67.2401 108.979 67.1908 108.807 67.1773C107.85 67.1844 106.901 67.0269 106.015 66.7139C105.129 66.4008 104.324 65.9385 103.648 65.3539C102.971 64.7694 102.436 64.074 102.073 63.3089C101.711 62.5436 101.528 61.7239 101.537 60.8971C101.537 60.659 101.427 60.431 101.232 60.2627C101.038 60.0944 100.773 60 100.498 60H75.5695C75.2991 60.0127 75.0433 60.1116 74.8516 60.277C74.6602 60.4424 74.5459 60.6633 74.5308 60.8971C74.542 61.7245 74.3617 62.5455 74.0001 63.3119C73.6388 64.078 73.1035 64.7741 72.4262 65.3592C71.7489 65.9443 70.9427 66.4066 70.0557 66.7189C69.1684 67.0309 68.218 67.1868 67.2602 67.1773C67.0736 67.1788 66.8909 67.2226 66.7306 67.3045C66.5702 67.3864 66.4374 67.5036 66.3462 67.6438C63.7954 71.6908 62.327 76.1802 62.0487 80.7818C61.7703 85.3834 62.6889 89.9804 64.7373 94.235C66.7857 98.4898 69.9117 102.294 73.8858 105.368C77.8597 108.442 82.5806 110.708 87.7015 112H88.3247C93.4443 110.707 98.1631 108.44 102.135 105.364C106.106 102.289 109.229 98.4837 111.274 94.2286C113.318 89.9735 114.233 85.3765 113.95 80.776C113.667 76.1752 112.193 71.6879 109.638 67.6438Z" fill="#FFDDDD"/>
<path d="M109.29 67.3215C109.435 67.4029 109.554 67.5134 109.638 67.6438C112.193 71.6879 113.667 76.1752 113.95 80.776C114.233 85.3765 113.318 89.9735 111.274 94.2286C109.229 98.4837 106.106 102.289 102.135 105.364C98.1631 108.44 93.4443 110.707 88.3247 112H87.7015C82.5806 110.708 77.8597 108.442 73.8858 105.368C69.9117 102.294 66.7857 98.4898 64.7373 94.235C62.6889 89.9804 61.7703 85.3834 62.0487 80.7818C62.327 76.1802 63.7954 71.6908 66.3462 67.6438C66.4374 67.5036 66.5702 67.3864 66.7306 67.3045C66.8909 67.2226 67.0736 67.1788 67.2602 67.1773C68.218 67.1868 69.1684 67.0309 70.0557 66.7189C70.9427 66.4066 71.7489 65.9443 72.4262 65.3592C73.1035 64.7741 73.6388 64.078 74.0001 63.3119C74.3617 62.5455 74.542 61.7245 74.5308 60.8971C74.5459 60.6633 74.6602 60.4424 74.8516 60.277C75.0433 60.1116 75.2991 60.0127 75.5695 60H100.498C100.773 60 101.038 60.0944 101.232 60.2627C101.427 60.431 101.537 60.659 101.537 60.8971C101.528 61.7239 101.711 62.5436 102.073 63.309C102.436 64.074 102.971 64.7694 103.648 65.3539C104.324 65.9385 105.129 66.4008 106.015 66.7139C106.901 67.0269 107.85 67.1844 108.807 67.1773C108.979 67.1908 109.145 67.2401 109.29 67.3215Z" fill="#323234"/>
<path fill-rule="evenodd" clip-rule="evenodd" d="M107.142 69.7619C107.067 69.6465 106.962 69.5487 106.834 69.4767C106.705 69.4047 106.559 69.3611 106.406 69.3491C105.56 69.3554 104.72 69.2161 103.937 68.9392C103.153 68.6622 102.441 68.2533 101.842 67.7362C101.243 67.2191 100.77 66.6039 100.449 65.9271C100.129 65.2501 99.9673 64.525 99.9748 63.7936C99.9748 63.583 99.8779 63.3813 99.7056 63.2324C99.5332 63.0835 99.2996 63 99.056 63H77.0038C76.7646 63.0113 76.5383 63.0987 76.3687 63.2451C76.1994 63.3914 76.0983 63.5867 76.085 63.7936C76.0948 64.5255 75.9354 65.2518 75.6155 65.9297C75.2958 66.6075 74.8224 67.2233 74.2232 67.7408C73.624 68.2584 72.9109 68.6674 72.1262 68.9436C71.3413 69.2197 70.5006 69.3576 69.6533 69.3491C69.4882 69.3505 69.3266 69.3892 69.1847 69.4617C69.0428 69.5341 68.9254 69.6378 68.8447 69.7619C66.5882 73.3419 65.2893 77.3133 65.043 81.3839C64.7968 85.4545 65.6094 89.5212 67.4214 93.2848C69.2335 97.0487 71.9989 100.414 75.5144 103.133C79.0297 105.853 83.2059 107.857 87.7359 109H88.2873C92.8161 107.856 96.9904 105.851 100.504 103.13C104.017 100.409 106.78 97.0433 108.588 93.2792C110.397 89.5151 111.206 85.4484 110.955 81.3788C110.705 77.3088 109.402 73.3393 107.142 69.7619ZM104.645 71.8799C104.58 71.7795 104.488 71.6945 104.377 71.6319C104.265 71.5693 104.138 71.5314 104.006 71.521C103.269 71.5265 102.539 71.4053 101.858 71.1645C101.176 70.9237 100.557 70.568 100.037 70.1184C99.5161 69.6687 99.1044 69.1339 98.8256 68.5453C98.5466 67.9566 98.4063 67.3261 98.4129 66.6901C98.4129 66.5069 98.3286 66.3316 98.1788 66.2021C98.0289 66.0726 97.8258 66 97.6139 66H78.4381C78.2301 66.0098 78.0333 66.0859 77.8858 66.2131C77.7386 66.3403 77.6507 66.5102 77.6391 66.6901C77.6477 67.3265 77.509 67.958 77.2309 68.5476C76.9529 69.1369 76.5412 69.6724 76.0202 70.1225C75.4991 70.5725 74.879 70.9282 74.1967 71.1684C73.5142 71.4084 72.7831 71.5283 72.0463 71.521C71.9028 71.5222 71.7623 71.5558 71.6389 71.6188C71.5155 71.6819 71.4134 71.772 71.3432 71.8799C69.3811 74.9929 68.2515 78.4463 68.0374 81.986C67.8233 85.5257 68.5299 89.0619 70.1056 92.3346C71.6813 95.6076 74.086 98.5338 77.143 100.899C80.1997 103.263 83.8312 105.006 87.7704 106H88.2498C92.1879 105.005 95.8177 103.261 98.8727 100.896C101.928 98.53 104.33 95.6029 105.903 92.3297C107.476 89.0566 108.179 85.5204 107.961 81.9815C107.744 78.4425 106.61 74.9907 104.645 71.8799Z" fill="#FFDDDD"/>
</g>
<defs>
<clipPath id="clip0_6_93">
<rect width="128" height="128" fill="white"/>
</clipPath>
</defs>
</svg>
