<svg width="104" height="104" viewBox="0 0 104 104" fill="none" xmlns="http://www.w3.org/2000/svg">
<circle cx="52" cy="52" r="51" fill="white" stroke="#DD2127" stroke-width="2"/>
<rect x="31.75" y="26.75" width="36.5553" height="47.6548" rx="1.25" stroke="#DD2127" stroke-width="1.5"/>
<path d="M37.3431 37.0994H62.7133" stroke="#DD2127" stroke-linecap="round"/>
<path d="M37.3431 45.0278H62.7133" stroke="#DD2127" stroke-linecap="round"/>
<path d="M37.3431 52.9559H62.7133" stroke="#DD2127" stroke-linecap="round"/>
<path d="M37.3431 60.884L42.9648 60.9091" stroke="#DD2127" stroke-linecap="round"/>
<circle cx="59.7453" cy="64.922" r="4.4641" stroke="#DD2127"/>
<circle cx="59.7433" cy="64.9219" r="2.12846" fill="#878F9D" stroke="#DD2127" stroke-width="0.5"/>
<circle cx="60.9901" cy="65.7308" r="14.9915" fill="white" stroke="#DD2127"/>
<path d="M57.6944 68.1271L58.0484 68.481L58.4019 68.1266L66.4396 60.0702C66.4399 60.07 66.4401 60.0697 66.4403 60.0695C66.6977 59.814 67.0456 59.6707 67.4083 59.6707C67.7712 59.6707 68.1195 59.8143 68.3769 60.0702L68.3773 60.0706C68.5061 60.1983 68.6083 60.3503 68.678 60.5177C68.7478 60.6851 68.7837 60.8647 68.7837 61.0461C68.7837 61.2275 68.7478 61.407 68.678 61.5745C68.6083 61.7419 68.5061 61.8938 68.3773 62.0216L68.3758 62.023L59.0076 71.3913C59.0074 71.3915 59.0072 71.3917 59.007 71.3919C58.7511 71.6453 58.406 71.7882 58.0459 71.7897L58.0451 71.7897C57.8643 71.7907 57.685 71.7561 57.5176 71.6877C57.3507 71.6195 57.1988 71.5191 57.0706 71.3923C57.0703 71.392 57.0699 71.3916 57.0696 71.3913L52.668 66.971L52.654 66.9569L52.6389 66.944C52.4951 66.8208 52.3783 66.6693 52.2958 66.4988C52.2134 66.3283 52.167 66.1427 52.1597 65.9535C52.1524 65.7642 52.1843 65.5756 52.2534 65.3992C52.3224 65.2229 52.4272 65.0628 52.5611 64.9289C52.695 64.795 52.8551 64.6902 53.0314 64.6212C53.2078 64.5521 53.3964 64.5202 53.5857 64.5275C53.7749 64.5348 53.9605 64.5812 54.131 64.6636C54.3014 64.7461 54.453 64.8629 54.5762 65.0067L54.5888 65.0214L54.6024 65.0351L57.6944 68.1271ZM50.8568 50.5654C53.8562 48.5613 57.3826 47.4916 60.99 47.4916C63.3853 47.4916 65.757 47.9633 67.9699 48.88C70.1828 49.7966 72.1935 51.1401 73.8872 52.8337C75.5809 54.5274 76.9244 56.5381 77.841 58.751C78.7576 60.9639 79.2294 63.3357 79.2294 65.7309C79.2294 69.3383 78.1597 72.8647 76.1555 75.8642C74.1513 78.8636 71.3027 81.2014 67.9699 82.5819C64.6371 83.9624 60.9698 84.3236 57.4317 83.6198C53.8936 82.916 50.6437 81.1789 48.0929 78.6281C45.542 76.0773 43.8049 72.8273 43.1011 69.2892C42.3974 65.7511 42.7586 62.0838 44.1391 58.751C45.5196 55.4182 47.8573 52.5696 50.8568 50.5654ZM52.3834 78.6116C54.931 80.3138 57.9261 81.2224 60.99 81.2224C65.0986 81.2224 69.039 79.5903 71.9442 76.685C74.8494 73.7798 76.4815 69.8395 76.4815 65.7309C76.4815 62.667 75.573 59.6719 73.8707 57.1243C72.1685 54.5767 69.7491 52.5912 66.9184 51.4187C64.0877 50.2461 60.9729 49.9394 57.9678 50.5371C54.9627 51.1348 52.2024 52.6103 50.0359 54.7768C47.8694 56.9433 46.394 59.7036 45.7962 62.7087C45.1985 65.7137 45.5053 68.8286 46.6778 71.6592C47.8503 74.4899 49.8359 76.9094 52.3834 78.6116Z" fill="white" stroke="#DD2127"/>
</svg>
