<svg width="128" height="128" viewBox="0 0 128 128" fill="none" xmlns="http://www.w3.org/2000/svg">
<g clip-path="url(#clip0_6_27)">
<path d="M108.681 0H19.3185C8.64919 0 0 8.64919 0 19.3185V108.681C0 119.351 8.64919 128 19.3185 128H108.681C119.351 128 128 119.351 128 108.681V19.3185C128 8.64919 119.351 0 108.681 0Z" fill="#FFDDDD"/>
<g clip-path="url(#clip1_6_27)">
<path d="M36 28V58" stroke="#323234" stroke-width="3" stroke-linecap="round"/>
<path d="M72 105H57" stroke="#323234" stroke-width="3" stroke-linecap="round"/>
<path d="M102 102.065C102 107.552 96.6896 112 90.1394 112H37.8606C31.3101 112 26 107.552 26 102.065V99H102V102.065Z" stroke="#323234" stroke-width="4"/>
<path d="M26 29.1629C26 22.4455 31.2405 17 37.7046 17H89.2954C95.7597 17 101 22.4455 101 29.1629V93H26V29.1629Z" stroke="#323234" stroke-width="4"/>
<circle cx="89" cy="85" r="30" fill="#FFDDDD"/>
<circle cx="89" cy="85" r="25" fill="#323234"/>
<path d="M97.2484 96.9999C96.5155 96.9822 95.8177 96.6835 95.3007 96.1657L88.9708 89.9388L82.7186 96.1464C82.1818 96.6597 81.4664 96.9464 80.7223 96.9464C79.978 96.9464 79.2626 96.6597 78.7257 96.1464L77.8494 95.2734C77.5802 95.0081 77.3666 94.6925 77.2208 94.3445C77.075 93.9966 77 93.6232 77 93.2462C77 92.8691 77.075 92.496 77.2208 92.1478C77.3666 91.7999 77.5802 91.4842 77.8494 91.2191L84.1015 84.9922L77.8494 78.7652C77.5802 78.5 77.3666 78.1843 77.2208 77.8363C77.075 77.4884 77 77.1151 77 76.738C77 76.3609 77.075 75.9876 77.2208 75.6397C77.3666 75.2917 77.5802 74.9761 77.8494 74.7108L78.7257 73.838C79.2662 73.3013 79.9981 73 80.7612 73C81.5242 73 82.2561 73.3013 82.7966 73.838L89.0487 80.0649L95.3007 73.838C95.8411 73.3013 96.573 73 97.336 73C98.0992 73 98.8311 73.3013 99.3715 73.838L100.15 74.8078C100.42 75.0731 100.633 75.3888 100.779 75.7367C100.925 76.0846 101 76.458 101 76.835C101 77.2121 100.925 77.5854 100.779 77.9334C100.633 78.2813 100.42 78.597 100.15 78.8621L93.9179 85.0892L100.15 91.2384C100.42 91.5037 100.633 91.8194 100.779 92.1673C100.925 92.5153 101 92.8886 101 93.2656C101 93.6427 100.925 94.016 100.779 94.364C100.633 94.7119 100.42 95.0276 100.15 95.2927L99.2935 96.1657C99.0251 96.4328 98.7061 96.6441 98.355 96.7872C98.0039 96.9304 97.6278 97.0027 97.2484 96.9999Z" fill="#FFDDDD"/>
</g>
</g>
<defs>
<clipPath id="clip0_6_27">
<rect width="128" height="128" fill="white"/>
</clipPath>
<clipPath id="clip1_6_27">
<rect width="100" height="100" fill="white" transform="translate(14 14)"/>
</clipPath>
</defs>
</svg>
