<svg width="128" height="128" viewBox="0 0 128 128" fill="none" xmlns="http://www.w3.org/2000/svg">
<g clip-path="url(#clip0_3_23)">
<path d="M108.681 0H19.3185C8.64919 0 0 8.64919 0 19.3185V108.681C0 119.351 8.64919 128 19.3185 128H108.681C119.351 128 128 119.351 128 108.681V19.3185C128 8.64919 119.351 0 108.681 0Z" fill="#FFDDDD"/>
<path d="M93.2724 21.4211H46.8329C42.2743 21.4211 38.5789 25.0764 38.5789 29.5854V94.3619C38.5789 98.871 42.2743 102.526 46.8329 102.526H93.2724C97.8309 102.526 101.526 98.871 101.526 94.3619V29.5854C101.526 25.0764 97.8309 21.4211 93.2724 21.4211Z" stroke="#323234" stroke-width="3"/>
<path d="M89.4211 38.3684H91.8421" stroke="#323234" stroke-width="3" stroke-linecap="round"/>
<path d="M89.4211 51.6842H91.8421" stroke="#323234" stroke-width="3" stroke-linecap="round"/>
<path d="M89.4211 66.2105H91.8421" stroke="#323234" stroke-width="3" stroke-linecap="round"/>
<path d="M89.4211 79.5263H91.8421" stroke="#323234" stroke-width="3" stroke-linecap="round"/>
<path d="M79.9566 26.2632H33.5171C28.9586 26.2632 25.2632 29.9185 25.2632 34.4275V99.2041C25.2632 103.713 28.9586 107.368 33.5171 107.368H79.9566C84.5151 107.368 88.2105 103.713 88.2105 99.2041V34.4275C88.2105 29.9185 84.5151 26.2632 79.9566 26.2632Z" fill="#FFDDDD" stroke="#323234" stroke-width="3"/>
<path d="M34.9474 44.4211H78.5263" stroke="#323234" stroke-width="3" stroke-linecap="round"/>
<path d="M34.9474 57.7368H78.5263" stroke="#323234" stroke-width="3" stroke-linecap="round"/>
<path fill-rule="evenodd" clip-rule="evenodd" d="M79.6449 68.8799C79.5803 68.7795 79.4883 68.6945 79.377 68.6319C79.2654 68.5693 79.138 68.5314 79.0056 68.521C78.2695 68.5265 77.5392 68.4053 76.8579 68.1645C76.1764 67.9237 75.5573 67.568 75.0367 67.1184C74.5161 66.6688 74.1044 66.1339 73.8256 65.5453C73.5466 64.9566 73.4063 64.3261 73.4129 63.6901C73.4129 63.5069 73.3286 63.3316 73.1788 63.2021C73.0289 63.0726 72.8258 63 72.6139 63H53.4381C53.2301 63.0098 53.0333 63.0859 52.8858 63.2131C52.7386 63.3403 52.6507 63.5102 52.6391 63.6901C52.6477 64.3265 52.509 64.958 52.2309 65.5476C51.9529 66.1369 51.5412 66.6724 51.0202 67.1225C50.4991 67.5725 49.879 67.9282 49.1967 68.1684C48.5142 68.4084 47.7831 68.5283 47.0463 68.521C46.9028 68.5222 46.7623 68.5558 46.6389 68.6188C46.5155 68.6819 46.4134 68.772 46.3432 68.8799C44.3811 71.9929 43.2515 75.4463 43.0374 78.986C42.8233 82.5257 43.5299 86.0619 45.1056 89.3346C46.6813 92.6076 49.086 95.5338 52.143 97.8985C55.1997 100.263 58.8312 102.006 62.7704 103H63.2498C67.1879 102.005 70.8177 100.261 73.8727 97.8956C76.9279 95.53 79.3301 92.6029 80.9027 89.3297C82.4756 86.0566 83.1791 82.5204 82.9613 78.9815C82.7437 75.4425 81.6103 71.9907 79.6449 68.8799ZM77.4256 70.7626C77.3696 70.6756 77.2899 70.6019 77.1934 70.5477C77.0967 70.4934 76.9862 70.4605 76.8715 70.4515C76.2335 70.4563 75.6006 70.3513 75.0102 70.1426C74.4195 69.9339 73.883 69.6256 73.4318 69.236C72.9806 68.8463 72.6238 68.3827 72.3822 67.8726C72.1404 67.3624 72.0188 66.816 72.0245 66.2647C72.0245 66.106 71.9515 65.954 71.8216 65.8418C71.6917 65.7296 71.5157 65.6667 71.332 65.6667H54.713C54.5327 65.6752 54.3622 65.7411 54.2344 65.8514C54.1068 65.9616 54.0306 66.1089 54.0205 66.2647C54.028 66.8163 53.9078 67.3637 53.6667 67.8746C53.4258 68.3853 53.069 68.8494 52.6175 69.2395C52.1659 69.6295 51.6285 69.9378 51.0371 70.1459C50.4456 70.354 49.812 70.4579 49.1735 70.4515C49.0491 70.4526 48.9273 70.4817 48.8204 70.5363C48.7134 70.591 48.6249 70.6691 48.5641 70.7626C46.8636 73.4606 45.8847 76.4535 45.6991 79.5212C45.5135 82.5889 46.1259 85.6536 47.4915 88.49C48.8571 91.3266 50.9412 93.8627 53.5906 95.912C56.2398 97.9616 59.387 99.4723 62.801 100.333H63.2165C66.6295 99.4714 69.7754 97.9598 72.423 95.9096C75.0708 93.8593 77.1527 91.3225 78.5157 88.4858C79.8788 85.649 80.4885 82.5843 80.2998 79.5173C80.1112 76.4502 79.1289 73.4586 77.4256 70.7626Z" fill="#FFDDDD"/>
<path d="M76.9204 70.7871C77.0151 70.8403 77.0932 70.9126 77.1482 70.9979C78.8188 73.6421 79.7822 76.5761 79.9671 79.5843C80.1522 82.5923 79.5542 85.5981 78.2173 88.3803C76.8806 91.1624 74.8387 93.6505 72.2418 95.6613C69.6451 97.6721 66.5597 99.1547 63.2123 100H62.8048C59.4565 99.1555 56.3698 97.6739 53.7715 95.6637C51.1731 93.6538 49.1291 91.1664 47.7898 88.3844C46.4504 85.6026 45.8498 82.5968 46.0318 79.5881C46.2138 76.5794 47.1739 73.644 48.8417 70.9979C48.9014 70.9062 48.9882 70.8296 49.0931 70.776C49.1979 70.7225 49.3174 70.6939 49.4394 70.6928C50.0656 70.6991 50.687 70.5971 51.2672 70.3931C51.8472 70.1889 52.3743 69.8866 52.8171 69.5041C53.26 69.1216 53.61 68.6664 53.8462 68.1654C54.0827 67.6643 54.2005 67.1275 54.1932 66.5866C54.2031 66.4337 54.2778 66.2893 54.403 66.1811C54.5283 66.073 54.6956 66.0083 54.8724 66H71.1718C71.3519 66 71.5245 66.0617 71.6519 66.1718C71.7793 66.2818 71.8509 66.4309 71.8509 66.5866C71.8454 67.1272 71.9646 67.6631 72.2018 68.1635C72.4387 68.6638 72.7887 69.1184 73.2312 69.5006C73.6737 69.8828 74.1999 70.1851 74.7792 70.3898C75.3583 70.5945 75.979 70.6975 76.6048 70.6928C76.7173 70.7017 76.8256 70.7339 76.9204 70.7871Z" fill="#323234"/>
<path fill-rule="evenodd" clip-rule="evenodd" d="M75.7611 72.1746C75.7116 72.0977 75.6411 72.0325 75.5557 71.9845C75.4702 71.9365 75.3725 71.9074 75.271 71.8994C74.7066 71.9036 74.1468 71.8108 73.6244 71.6261C73.1019 71.4415 72.6273 71.1688 72.2281 70.8241C71.829 70.4794 71.5134 70.0693 71.2996 69.6181C71.0858 69.1668 70.9782 68.6833 70.9832 68.1957C70.9832 68.0553 70.9186 67.9209 70.8037 67.8216C70.6888 67.7223 70.5331 67.6667 70.3707 67.6667H55.6692C55.5097 67.6742 55.3589 67.7325 55.2458 67.83C55.133 67.9276 55.0656 68.0578 55.0567 68.1957C55.0632 68.6837 54.9569 69.1678 54.7437 69.6198C54.5306 70.0716 54.2149 70.4822 53.8155 70.8272C53.416 71.1723 52.9406 71.4449 52.4175 71.6291C51.8942 71.8131 51.3337 71.905 50.7689 71.8994C50.6588 71.9003 50.5511 71.9261 50.4565 71.9745C50.3619 72.0228 50.2836 72.0919 50.2298 72.1746C48.7255 74.5613 47.8595 77.2089 47.6954 79.9226C47.5312 82.6364 48.0729 85.3474 49.281 87.8565C50.489 90.3658 52.3326 92.6093 54.6763 94.4222C57.0198 96.2353 59.8039 97.5716 62.824 98.3333H63.1915C66.2108 97.5709 68.9936 96.2337 71.3358 94.42C73.678 92.6063 75.5197 90.3622 76.7254 87.8528C77.9313 85.3434 78.4707 82.6323 78.3037 79.9192C78.1369 77.2059 77.2679 74.5595 75.7611 72.1746ZM74.0966 73.5866C74.0535 73.5197 73.9922 73.463 73.918 73.4213C73.8436 73.3795 73.7587 73.3542 73.6704 73.3473C73.1797 73.351 72.6928 73.2702 72.2386 73.1097C71.7843 72.9491 71.3715 72.712 71.0245 72.4123C70.6774 72.1125 70.4029 71.7559 70.2171 71.3636C70.0311 70.9711 69.9376 70.5507 69.9419 70.1267C69.9419 70.0046 69.8858 69.8877 69.7858 69.8014C69.6859 69.7151 69.5505 69.6667 69.4093 69.6667H56.6254C56.4867 69.6732 56.3555 69.7239 56.2572 69.8087C56.1591 69.8936 56.1005 70.0068 56.0927 70.1267C56.0985 70.551 56.006 70.972 55.8206 71.3651C55.6353 71.7579 55.3608 72.1149 55.0135 72.415C54.6661 72.715 54.2527 72.9521 53.7978 73.1123C53.3428 73.2723 52.8554 73.3522 52.3642 73.3473C52.2685 73.3481 52.1749 73.3706 52.0926 73.4126C52.0104 73.4546 51.9423 73.5147 51.8955 73.5866C50.5874 75.662 49.8344 77.9642 49.6916 80.324C49.5489 82.6838 50.0199 85.0413 51.0704 87.2231C52.1209 89.405 53.724 91.3559 55.762 92.9323C57.7998 94.5089 60.2208 95.671 62.8469 96.3333H63.1665C65.792 95.6703 68.2118 94.5076 70.2485 92.9304C72.2853 91.3533 73.8867 89.4019 74.9352 87.2198C75.9837 85.0377 76.4527 82.6803 76.3075 80.321C76.1625 77.9616 75.4069 75.6605 74.0966 73.5866Z" fill="#FFDDDD"/>
</g>
<defs>
<clipPath id="clip0_3_23">
<rect width="128" height="128" fill="white"/>
</clipPath>
</defs>
</svg>
