<svg width="128" height="128" viewBox="0 0 128 128" fill="none" xmlns="http://www.w3.org/2000/svg">
<g clip-path="url(#clip0_1_73)">
<path d="M108.681 0H19.3185C8.64919 0 0 8.64919 0 19.3185V108.681C0 119.351 8.64919 128 19.3185 128H108.681C119.351 128 128 119.351 128 108.681V19.3185C128 8.64919 119.351 0 108.681 0Z" fill="#FFDDDD"/>
<path d="M96.083 101.032L96.8065 99.9624M96.083 101.032C96.7826 101.494 97.6051 101.741 98.4467 101.741C99.575 101.741 100.657 101.298 101.455 100.509C102.252 99.7213 102.701 98.6521 102.701 97.5377C102.701 96.7063 102.451 95.8936 101.984 95.2025M96.083 101.032C95.3834 100.57 94.8382 99.914 94.5163 99.1459C94.1941 98.3781 94.11 97.5328 94.2741 96.7176C94.4382 95.9024 94.8435 95.1533 95.4383 94.5656M101.984 95.2025L100.901 95.9173M101.984 95.2025C101.516 94.5113 100.852 93.9727 100.075 93.6547C99.2973 93.3364 98.442 93.2533 97.6166 93.4154C96.7914 93.5775 96.0335 93.9779 95.4383 94.5656M95.4383 94.5656L96.3593 95.4755M27.6015 23H101.398C102.619 23 103.789 23.4789 104.652 24.3314C105.515 25.1841 106 26.3403 106 27.5461V100.454C106 101.659 105.515 102.816 104.652 103.668C103.789 104.521 102.619 105 101.398 105H27.6015C26.381 105 25.2108 104.521 24.3479 103.668C23.4847 102.816 23 101.659 23 100.454V27.5461C23 26.3403 23.4847 25.1841 24.3479 24.3314C25.2108 23.4789 26.381 23 27.6015 23ZM32.9168 26.9676C32.2172 26.506 31.3946 26.2595 30.5533 26.2595C29.425 26.2595 28.3431 26.7021 27.5453 27.4905C26.7475 28.2787 26.2992 29.3476 26.2992 30.4623C26.2992 31.2935 26.5488 32.1061 27.016 32.7973C27.4836 33.4884 28.148 34.0273 28.9255 34.3453C29.7027 34.6634 30.558 34.7467 31.3834 34.5844C32.2086 34.4223 32.9665 34.0221 33.5614 33.4341C34.1565 32.8464 34.5616 32.0976 34.7259 31.2822C34.89 30.467 34.8056 29.6219 34.4837 28.8538C34.1618 28.086 33.6163 27.4295 32.9168 26.9676ZM28.1899 101.032C28.8895 101.494 29.7121 101.741 30.5533 101.741C31.6817 101.741 32.7636 101.298 33.5614 100.509C34.3594 99.7213 34.8074 98.6521 34.8074 97.5377C34.8074 96.7063 34.5579 95.8936 34.0906 95.2025C33.6231 94.5113 32.9587 93.9727 32.1815 93.6547C31.404 93.3364 30.5487 93.2533 29.7235 93.4154C28.8981 93.5775 28.1402 93.9779 27.5453 94.5656C26.9501 95.1533 26.5451 95.9024 26.381 96.7176C26.2167 97.5328 26.3011 98.3781 26.623 99.1459C26.9449 99.914 27.4903 100.57 28.1899 101.032ZM44.9167 92.9553C50.7135 96.7817 57.5284 98.8243 64.4999 98.8243C73.8486 98.8243 82.8144 95.1551 89.4248 88.6243C96.0351 82.0935 99.749 73.2359 99.749 63.9999C99.749 57.1124 97.6817 50.3796 93.8084 44.6526C89.9351 38.9259 84.43 34.4624 77.9891 31.8267C71.5482 29.1909 64.4608 28.501 57.6232 29.8448C50.7856 31.1885 44.5049 34.5051 39.5752 39.3755C34.6457 44.2458 31.2884 50.4508 29.9282 57.2061C28.5684 63.9613 29.2664 70.9633 31.9343 77.3266C34.6022 83.6899 39.1201 89.1286 44.9167 92.9553ZM96.083 33.957C96.7826 34.4187 97.6051 34.6652 98.4467 34.6652C99.575 34.6652 100.657 34.2223 101.455 33.4341C102.252 32.646 102.701 31.5771 102.701 30.4623C102.701 29.6312 102.451 28.8186 101.984 28.1274C101.516 27.4362 100.852 26.8974 100.075 26.5793C99.2973 26.2613 98.442 26.1779 97.6166 26.34C96.7914 26.5024 96.0335 26.9025 95.4383 27.4905C94.8435 28.0782 94.4382 28.8271 94.2741 29.6422C94.11 30.4577 94.1941 31.3027 94.5163 32.0706C94.8382 32.8387 95.3834 33.4951 96.083 33.957Z" stroke="#323234" stroke-width="2"/>
<path d="M21.4332 27.335L20 27.3332V100.667C20.0023 102.611 20.7757 104.475 22.1506 105.849L21.4332 27.335ZM21.4332 27.335V100.665L20.0032 100.667H21.4332C21.4332 102.231 22.0547 103.732 23.1614 104.838C23.1615 104.838 23.1616 104.839 23.1617 104.839L21.4332 27.335ZM100.667 106.5C102.213 106.498 103.695 105.882 104.789 104.789L100.667 106.5ZM100.667 106.5C100.666 106.5 100.666 106.5 100.665 106.5M100.667 106.5L100.665 106.5M100.665 106.5H27.335H100.665ZM21.5 100.667C21.5023 102.213 22.1177 103.695 23.2111 104.789L21.5 100.667ZM21.5 100.667V100.666M21.5 100.667C21.5 100.666 21.5 100.666 21.5 100.666M21.5 100.666V27.3342V100.666ZM27.335 106.567H100.665L100.667 107.997V106.567C102.231 106.567 103.732 105.945 104.838 104.839C104.838 104.839 104.838 104.839 104.838 104.838C104.839 104.838 104.839 104.838 104.839 104.838L27.335 106.567ZM27.3342 21.5H100.666C100.666 21.5 100.666 21.5 100.667 21.5H27.3342Z" fill="#323234" stroke="#323234" stroke-width="3"/>
<path d="M86.5402 57.4533L86.997 56.9885M86.5402 57.4533C86.6937 57.6094 86.7797 57.821 86.7797 58.0418C86.7797 58.2626 86.6937 58.4745 86.5402 58.6306C86.3867 58.7865 86.1788 58.8743 85.9617 58.8743H42.0383C41.8212 58.8743 41.6133 58.7865 41.4598 58.6306M86.5402 57.4533C86.3867 57.2971 86.1788 57.2096 85.9617 57.2096H42.0383C41.8212 57.2096 41.613 57.2971 41.4598 57.4533C41.3063 57.6094 41.22 57.821 41.22 58.0418C41.22 58.2626 41.3063 58.4745 41.4598 58.6306M41.4598 58.6306L41.003 59.0951M42.0383 63.1675H85.9617C87.298 63.1675 88.5793 62.6276 89.5242 61.6664C90.469 60.7051 91 59.4013 91 58.0418C91 56.6826 90.469 55.3788 89.5242 54.4175C88.5793 53.4563 87.298 52.9161 85.9617 52.9161H42.0383C40.702 52.9161 39.4204 53.4563 38.4756 54.4175C37.5307 55.3788 37 56.6826 37 58.0418C37 59.4013 37.5307 60.7051 38.4756 61.6664C39.4204 62.6276 40.702 63.1675 42.0383 63.1675ZM46.4306 51.2514H81.5694C82.9057 51.2514 84.187 50.7115 85.1318 49.7503C86.0767 48.789 86.6077 47.4852 86.6077 46.1257C86.6077 44.7662 86.0767 43.4624 85.1318 42.5012C84.187 41.5399 82.9057 41 81.5694 41H46.4306C45.0943 41 43.8128 41.5399 42.8679 42.5012C41.923 43.4624 41.3923 44.7662 41.3923 46.1257C41.3923 47.4852 41.923 48.789 42.8679 49.7503C43.8128 50.7115 45.0943 51.2514 46.4306 51.2514ZM46.4306 45.2932H81.5694C81.7864 45.2932 81.9944 45.381 82.1479 45.5372C82.3013 45.6933 82.3874 45.9049 82.3874 46.1257C82.3874 46.3465 82.3013 46.5581 82.1479 46.7143C81.9944 46.8704 81.7864 46.9582 81.5694 46.9582H46.4306C46.2136 46.9582 46.0053 46.8704 45.8521 46.7143C45.6986 46.5581 45.6124 46.3465 45.6124 46.1257C45.6124 45.9049 45.6986 45.6933 45.8521 45.5372C46.0053 45.381 46.2136 45.2932 46.4306 45.2932ZM85.9617 64.8325H42.0383C40.702 64.8325 39.4204 65.3724 38.4756 66.3336C37.5307 67.2949 37 68.5987 37 69.9582C37 71.3174 37.5307 72.6212 38.4756 73.5825C39.4204 74.5437 40.702 75.0839 42.0383 75.0839H85.9617C87.298 75.0839 88.5793 74.5437 89.5242 73.5825C90.469 72.6212 91 71.3174 91 69.9582C91 68.5987 90.469 67.2949 89.5242 66.3336C88.5793 65.3724 87.298 64.8325 85.9617 64.8325ZM85.9617 70.7904H42.0383C41.8212 70.7904 41.6133 70.7029 41.4598 70.5467C41.3063 70.3906 41.22 70.179 41.22 69.9582C41.22 69.7374 41.3063 69.5255 41.4598 69.3694C41.613 69.2135 41.8212 69.1257 42.0383 69.1257H85.9617C86.1788 69.1257 86.3867 69.2135 86.5402 69.3694C86.6937 69.5255 86.7797 69.7374 86.7797 69.9582C86.7797 70.179 86.6937 70.3906 86.5402 70.5467C86.3867 70.7029 86.1788 70.7904 85.9617 70.7904ZM81.5694 76.7486H46.4306C45.0943 76.7486 43.8128 77.2885 42.8679 78.2498C41.923 79.211 41.3923 80.5148 41.3923 81.8743C41.3923 83.2338 41.923 84.5376 42.8679 85.4988C43.8128 86.4601 45.0943 87 46.4306 87H81.5694C82.9057 87 84.187 86.4601 85.1318 85.4988C86.0767 84.5376 86.6077 83.2338 86.6077 81.8743C86.6077 80.5148 86.0767 79.211 85.1318 78.2498C84.187 77.2885 82.9057 76.7486 81.5694 76.7486ZM81.5694 82.7068H46.4306C46.2136 82.7068 46.0056 82.619 45.8521 82.4628C45.6986 82.3067 45.6124 82.0951 45.6124 81.8743C45.6124 81.6535 45.6986 81.4419 45.8521 81.2857C46.0053 81.1296 46.2136 81.0418 46.4306 81.0418H81.5694C81.7864 81.0418 81.9944 81.1296 82.1479 81.2857C82.3013 81.4419 82.3874 81.6535 82.3874 81.8743C82.3874 82.0951 82.3013 82.3067 82.1479 82.4628C81.9944 82.619 81.7864 82.7068 81.5694 82.7068Z" stroke="#323234" stroke-width="2"/>
</g>
<defs>
<clipPath id="clip0_1_73">
<rect width="128" height="128" fill="white"/>
</clipPath>
</defs>
</svg>
