<svg width="104" height="104" viewBox="0 0 104 104" fill="none" xmlns="http://www.w3.org/2000/svg">
<path d="M52 102C79.6142 102 102 79.6142 102 52C102 24.3858 79.6142 2 52 2C24.3858 2 2 24.3858 2 52C2 79.6142 24.3858 102 52 102Z" fill="white"/>
<path d="M52 103C80.1665 103 103 80.1665 103 52C103 23.8335 80.1665 1 52 1C23.8335 1 1 23.8335 1 52C1 80.1665 23.8335 103 52 103Z" stroke="#DD2127" stroke-width="2"/>
<path d="M27.0828 48.8193C26.7956 48.8194 26.5202 48.9335 26.3171 49.1366C26.1141 49.3396 26 49.615 26 49.9022V53.7335C26 54.0207 26.1141 54.2961 26.3171 54.4991C26.5202 54.7022 26.7956 54.8163 27.0828 54.8163H79.1425C79.4297 54.8163 79.7051 54.7022 79.9081 54.4991C80.1112 54.2961 80.2253 54.0207 80.2253 53.7335V49.9022C80.2253 49.615 80.1112 49.3396 79.9081 49.1366C79.7051 48.9335 79.4297 48.8194 79.1425 48.8193H73.3103C73.1671 48.8174 73.025 48.8439 72.8921 48.8973C72.7589 48.9508 72.6377 49.0303 72.5356 49.131C72.4334 49.2318 72.3522 49.3518 72.2968 49.4842C72.2415 49.6166 72.2129 49.7587 72.2129 49.9022C72.2129 50.0457 72.2415 50.1877 72.2968 50.3201C72.3522 50.4525 72.4334 50.5726 72.5356 50.6733C72.6377 50.7741 72.7589 50.8535 72.8921 50.907C73.025 50.9604 73.1671 50.9869 73.3103 50.985H78.0596V52.6507H28.1656V50.985H32.915C33.0582 50.9869 33.2003 50.9604 33.3332 50.907C33.4663 50.8535 33.5875 50.7741 33.6897 50.6733C33.7919 50.5726 33.873 50.4525 33.9284 50.3201C33.9838 50.1877 34.0123 50.0457 34.0123 49.9022C34.0123 49.7587 33.9838 49.6166 33.9284 49.4842C33.873 49.3518 33.7919 49.2318 33.6897 49.131C33.5875 49.0303 33.4663 48.9508 33.3332 48.8973C33.2003 48.8439 33.0582 48.8174 32.915 48.8193H27.0828Z" fill="#DD2127" stroke="#DD2127" stroke-width="0.25"/>
<path d="M59.4209 26.3576L58.8946 28.1778L58.8599 28.2978L58.9798 28.3326C68.2037 31.0089 74.4309 39.5761 74.1252 49.1647L74.1213 49.2895L74.246 49.2937L76.1617 49.3568L76.2868 49.3609L76.2908 49.2358C76.6277 38.6672 69.7444 29.2041 59.5808 26.2549L59.4209 26.2085V26.3576Z" fill="#DD2127" stroke="#DD2127" stroke-width="0.25"/>
<path d="M46.855 22C46.5679 22 46.2924 22.114 46.0894 22.3171C45.8863 22.5201 45.7722 22.7956 45.7722 23.0828V35.6011C45.7703 35.7443 45.7968 35.8863 45.8502 36.0192C45.9037 36.1523 45.9831 36.2736 46.0839 36.3758C46.1846 36.478 46.3047 36.5591 46.4371 36.6145C46.5695 36.6699 46.7116 36.6983 46.855 36.6983C46.9985 36.6983 47.1405 36.6699 47.273 36.6145C47.4054 36.5591 47.5254 36.478 47.6262 36.3758C47.7269 36.2736 47.8064 36.1523 47.8599 36.0192C47.9132 35.8863 47.9398 35.7443 47.9379 35.6011V24.1656H58.2876V35.6011C58.2857 35.7443 58.3122 35.8863 58.3656 36.0192C58.4191 36.1523 58.4985 36.2736 58.5993 36.3758C58.7001 36.478 58.8201 36.5591 58.9525 36.6145C59.0849 36.6699 59.227 36.6983 59.3704 36.6983C59.5139 36.6983 59.656 36.6699 59.7884 36.6145C59.9208 36.5592 60.0408 36.478 60.1416 36.3758C60.2424 36.2736 60.3218 36.1523 60.3753 36.0192C60.4287 35.8863 60.4552 35.7443 60.4533 35.6011V23.0828C60.4532 22.7956 60.3392 22.5201 60.1361 22.3171C59.933 22.114 59.6576 22 59.3705 22H46.855Z" fill="#DD2127" stroke="#DD2127" stroke-width="0.25"/>
<path d="M52.0303 32.9193V33.0443H52.1553H54.0709H54.1959V32.9193V22.1923V22.0673H54.0709H52.1553H52.0303V22.1923V32.9193Z" fill="#DD2127" stroke="#DD2127" stroke-width="0.25"/>
<path d="M46.7866 26.3332L46.7519 26.213L46.6318 26.2478C36.5421 29.1676 29.6687 38.5143 29.8992 49.0069L29.9019 49.1317L30.0268 49.1291L31.9425 49.0889L32.0676 49.0862L32.0648 48.9611C31.8556 39.4409 38.076 30.9787 47.2326 28.3288L47.3525 28.294L47.3179 28.174L46.7866 26.3332Z" fill="#DD2127" stroke="#DD2127" stroke-width="0.25"/>
<path d="M40.5093 44.988C40.3662 44.9861 40.224 45.0126 40.0912 45.066C39.958 45.1195 39.8368 45.199 39.7346 45.2997C39.6324 45.4005 39.5513 45.5205 39.4959 45.6529C39.4405 45.7853 39.412 45.9273 39.412 46.0708C39.412 46.2143 39.4405 46.3564 39.4959 46.4888C39.5513 46.6212 39.6324 46.7412 39.7346 46.842C39.8368 46.9427 39.958 47.0222 40.0912 47.0757C40.224 47.1291 40.3662 47.1556 40.5093 47.1537H53.0239H65.5385C65.6816 47.1556 65.8238 47.1291 65.9567 47.0757C66.0898 47.0222 66.211 46.9427 66.3132 46.842C66.4154 46.7412 66.4965 46.6212 66.5519 46.4888C66.6073 46.3564 66.6358 46.2143 66.6358 46.0708C66.6358 45.9273 66.6073 45.7853 66.5519 45.6529C66.4965 45.5205 66.4154 45.4005 66.3132 45.2997C66.211 45.199 66.0898 45.1195 65.9567 45.066C65.8238 45.0126 65.6817 44.9861 65.5385 44.988H40.5093Z" fill="#DD2127" stroke="#DD2127" stroke-width="0.25"/>
<path d="M29.9563 64.2696C37.6189 77.28 55.243 95.495 75.9322 64.2696" stroke="#DD2127" stroke-width="2" stroke-linecap="round" stroke-linejoin="round"/>
</svg>
