<svg width="128" height="128" viewBox="0 0 128 128" fill="none" xmlns="http://www.w3.org/2000/svg">
<g clip-path="url(#clip0_1_106)">
<path d="M108.681 0H19.3185C8.64919 0 0 8.64919 0 19.3185V108.681C0 119.351 8.64919 128 19.3185 128H108.681C119.351 128 128 119.351 128 108.681V19.3185C128 8.64919 119.351 0 108.681 0Z" fill="#FFDDDD"/>
<g clip-path="url(#clip1_1_106)">
<path d="M108.759 53.1082L96.6226 42.4378V23.2411C96.6226 18.14 92.6009 14 87.6454 14C82.6903 14 78.6686 18.14 78.6686 23.2411V26.7157L68.4226 17.7457C65.3826 15.0596 60.906 15.0596 57.8417 17.7457L17.5289 53.1082C13.3157 56.8047 12.813 63.2856 16.3559 67.6474C16.3559 67.6474 16.3559 67.6474 16.3559 67.6721C18.0556 69.7668 20.4973 71.0726 23.1545 71.2944C23.8727 71.3685 24.5669 71.3438 25.2851 71.2206V101.63C25.2851 108.431 30.7671 114.001 37.3741 114.001H88.8426C95.4494 114.001 100.931 108.407 100.931 101.63V71.2453C101.362 71.3191 101.793 71.3438 102.224 71.3438C102.487 71.3438 102.751 71.3438 103.014 71.3191C105.671 71.0974 108.137 69.7915 109.861 67.6968C109.861 67.6968 109.885 67.6968 109.885 67.6721C113.475 63.3103 112.949 56.8291 108.759 53.1082ZM83.4563 23.2411C83.4563 20.8507 85.3234 18.9286 87.6454 18.9286C89.9674 18.9286 91.8349 20.8754 91.8349 23.2411V38.2239L83.4563 30.9296V23.2411ZM96.1437 101.654C96.1437 105.721 92.7923 109.097 88.8426 109.097H37.3741C33.4243 109.097 30.0728 105.721 30.0728 101.654V69.1506C30.2404 69.0768 30.3841 68.9782 30.5037 68.855L60.906 42.1667C62.1509 41.0578 64.018 41.0578 65.2629 42.1667L95.7129 68.855C95.8326 68.9782 95.9763 69.0768 96.1437 69.1506V101.654ZM106.198 64.4932C104.307 66.785 100.979 67.0559 98.7771 65.1091L68.3989 38.421C65.3586 35.735 60.858 35.735 57.8177 38.421L27.4396 65.1091C25.2372 67.0559 21.9097 66.785 20.0186 64.5176C18.1513 62.2506 18.4147 58.8253 20.617 56.9032L60.93 21.5161C62.1746 20.4071 64.018 20.4071 65.2869 21.5161L105.599 56.8538C107.802 58.8006 108.065 62.2259 106.198 64.4932Z" fill="#323234"/>
<path d="M77.7117 71.3932V66.3906C77.7357 62.3247 76.1557 58.4065 73.3309 55.5479C70.626 52.7632 66.9394 51.2106 63.1091 51.2353C55.0657 51.2353 48.5066 58.0367 48.5066 66.3906V71.3932C45.7774 72.4035 43.9583 75.0403 43.9583 78.022V96.3317C43.9583 100.225 47.0223 103.404 50.8046 103.429H75.4137C79.196 103.404 82.26 100.225 82.26 96.3317V78.022C82.26 75.0403 80.4409 72.4035 77.7117 71.3932ZM63.1331 56.1638C65.6946 56.1391 68.1603 57.1741 69.9794 59.047C71.8709 60.9938 72.948 63.6306 72.924 66.3906V70.9003H53.2943V66.3906C53.2703 60.772 57.6751 56.1885 63.1331 56.1638ZM77.4723 96.1344C77.4723 97.2926 76.5626 98.2538 75.4137 98.2538H50.8046C49.6794 98.2538 48.746 97.3173 48.746 96.1344V77.9482C48.746 76.79 49.6554 75.8288 50.8046 75.8288H75.4137C76.5389 75.8288 77.4723 76.7653 77.4723 77.9482V96.1344Z" fill="#323234"/>
</g>
</g>
<defs>
<clipPath id="clip0_1_106">
<rect width="128" height="128" fill="white"/>
</clipPath>
<clipPath id="clip1_1_106">
<rect width="100" height="100" fill="white" transform="translate(14 14)"/>
</clipPath>
</defs>
</svg>
