<svg width="128" height="128" viewBox="0 0 128 128" fill="none" xmlns="http://www.w3.org/2000/svg">
<g clip-path="url(#clip0_1_96)">
<path d="M108.681 0H19.3185C8.64919 0 0 8.64919 0 19.3185V108.681C0 119.351 8.64919 128 19.3185 128H108.681C119.351 128 128 119.351 128 108.681V19.3185C128 8.64919 119.351 0 108.681 0Z" fill="#FFDDDD"/>
<path d="M76.625 102H50.375C47.2738 102 44.75 99.1733 44.75 95.7V85.9434C44.751 85.5237 44.6392 85.1135 44.4292 84.7659C44.2192 84.4184 43.9207 84.1496 43.5725 83.9946L36.6088 80.874C33.4705 79.4823 30.7795 77.0638 28.8871 73.9336C26.9946 70.8033 25.9885 67.1067 26.0001 63.3264V45.3C26.0001 41.8267 28.5238 39 31.6251 39H95.375C98.4763 39 101 41.8267 101 45.3V63.3264C101.012 67.1067 100.005 70.8033 98.1128 73.9336C96.2205 77.0638 93.5295 79.4823 90.3911 80.874L83.4274 83.9946C83.0797 84.1501 82.7813 84.4189 82.5715 84.7665C82.3614 85.114 82.2496 85.524 82.2499 85.9434V95.7C82.2499 99.1733 79.7262 102 76.625 102ZM31.6251 43.2C31.1278 43.2 30.6509 43.4212 30.2993 43.815C29.9476 44.2088 29.7501 44.7431 29.7501 45.3V63.3264C29.7501 69.3701 32.9901 74.7293 38.0001 76.9765L44.9638 80.0971C47.1125 81.0588 48.5 83.3521 48.5 85.9434V95.7C48.5 96.257 48.6976 96.7912 49.0492 97.185C49.4008 97.5788 49.8777 97.8 50.375 97.8H76.625C77.1221 97.8 77.5992 97.5788 77.9507 97.185C78.3023 96.7912 78.4999 96.257 78.4999 95.7V85.9434C78.4999 83.3521 79.8875 81.0547 82.0325 80.0929L88.9962 76.9723C91.4368 75.8892 93.5295 74.0073 95.0011 71.5726C96.4727 69.1377 97.2551 66.2626 97.2461 63.3222V45.3C97.2461 44.7431 97.0485 44.2088 96.697 43.815C96.3454 43.4212 95.8684 43.2 95.3713 43.2H31.6251Z" fill="#323234" stroke="#323234"/>
<path d="M59.4962 84C59.2411 84.0003 58.9897 83.9286 58.7639 83.7914C58.538 83.6541 58.3446 83.4552 58.2001 83.2121C58.0557 82.969 57.9645 82.6889 57.9349 82.396C57.905 82.1031 57.9376 81.8062 58.0295 81.5309L61.4059 71.361L57.0087 69.4114C56.6479 69.2515 56.3506 68.9435 56.1739 68.5463C55.9972 68.149 55.9533 67.6904 56.0508 67.2581L59.65 51.3553C59.7061 51.1082 59.8066 50.8777 59.9449 50.6786C60.083 50.4797 60.2561 50.3164 60.4527 50.1999C60.6492 50.0835 60.8646 50.016 61.0851 50.0026C61.3057 49.9889 61.5262 50.0292 61.7324 50.1206L71.9966 54.6736C72.2085 54.7698 72.3999 54.9173 72.5577 55.1067C72.7155 55.2961 72.8362 55.5226 72.9113 55.7708C72.9866 56.0192 73.0143 56.2831 72.9931 56.545C72.9718 56.8068 72.9019 57.0602 72.7881 57.2878L68.8841 64.9598L71.5538 66.1436C71.7926 66.2511 72.0052 66.4241 72.1732 66.6481C72.3411 66.872 72.4594 67.1399 72.5174 67.4286C72.5757 67.717 72.572 68.0179 72.507 68.3045C72.4419 68.5911 72.3174 68.855 72.1443 69.0737L60.652 83.4226C60.5033 83.6043 60.324 83.749 60.1254 83.8483C59.9266 83.9476 59.7125 83.9992 59.4962 84ZM59.446 66.6046L63.997 68.6235C64.1897 68.7085 64.3657 68.8371 64.5154 69.0012C64.6651 69.1653 64.7851 69.3618 64.8688 69.5797C64.9528 69.7978 64.9985 70.0325 65.0034 70.2709C65.0086 70.5093 64.9728 70.7464 64.8984 70.969L63.8807 74.0334L68.2591 68.5689L66.0261 67.5777C65.8142 67.4818 65.6228 67.334 65.465 67.1446C65.3069 66.9555 65.1864 66.7289 65.1113 66.4805C65.036 66.2324 65.0081 65.9684 65.0293 65.7066C65.0508 65.4447 65.1207 65.1911 65.2346 64.9635L69.1385 57.2915L62.2444 54.2345L59.446 66.6046Z" fill="#323234" stroke="#323234"/>
<path d="M52.3334 43H45.6667C45.2246 43 44.8007 42.7895 44.4882 42.4143C44.1756 42.0393 44 41.5307 44 41V21C44 17.692 46.2433 15 49 15C51.7567 15 54 17.692 54 21V41C54 41.5307 53.8243 42.0393 53.5119 42.4143C53.1993 42.7895 52.7754 43 52.3334 43ZM47.3333 39.0001H50.6667V21C50.6667 20.4696 50.4911 19.9609 50.1785 19.5858C49.866 19.2107 49.4421 19 49 19C48.558 19 48.1341 19.2107 47.8215 19.5858C47.5089 19.9609 47.3333 20.4696 47.3333 21V39.0001ZM82.3333 43H75.6668C75.2249 43 74.8009 42.7895 74.4882 42.4143C74.1758 42.0393 74.0001 41.5307 74.0001 41V21C74.0001 17.692 76.2436 15 79.0002 15C81.7569 15 84 17.692 84 21V41C84 41.5307 83.8246 42.0393 83.5119 42.4143C83.1995 42.7895 82.7755 43 82.3333 43ZM77.3335 39.0001H80.6669V21C80.6669 20.4696 80.4912 19.9609 80.1785 19.5858C79.8661 19.2107 79.4421 19 79.0002 19C78.558 19 78.134 19.2107 77.8216 19.5858C77.5089 19.9609 77.3335 20.4696 77.3335 21V39.0001Z" fill="#323234" stroke="#323234"/>
<path d="M76.0946 100H51.9054C50.3008 100 49 101.301 49 102.905V107.095C49 108.699 50.3008 110 51.9054 110H76.0946C77.6992 110 79 108.699 79 107.095V102.905C79 101.301 77.6992 100 76.0946 100Z" stroke="#323234" stroke-width="5"/>
</g>
<defs>
<clipPath id="clip0_1_96">
<rect width="128" height="128" fill="white"/>
</clipPath>
</defs>
</svg>
