<svg width="33" height="20" viewBox="0 0 33 20" fill="none" xmlns="http://www.w3.org/2000/svg">
<path d="M20.5548 17.8614H11.8047V2.13672H20.5548V17.8614Z" fill="#FF5F00"/>
<path d="M12.3594 10C12.3594 6.81003 13.8533 3.96926 16.179 2.13834C14.4182 0.749636 12.2408 -0.00268928 9.99999 7.22346e-06C4.4762 7.22346e-06 0 4.47756 0 10C0 15.5224 4.4762 20 9.99864 20C12.2408 20.0027 14.4182 19.2504 16.1777 17.8617C13.8533 16.0307 12.3594 13.19 12.3594 10Z" fill="#EB001B"/>
<path d="M32.3587 10C32.3587 15.5224 27.8825 20 22.3601 20C20.1179 20.0027 17.9405 19.2504 16.1797 17.8617C18.5054 16.0307 19.9993 13.19 19.9993 10C19.9993 6.81003 18.5054 3.96926 16.1797 2.13834C17.9405 0.749636 20.1179 -0.00268928 22.3601 7.22346e-06C27.8825 7.22346e-06 32.3587 4.47756 32.3587 10Z" fill="#F79E1B"/>
</svg>
