<svg width="104" height="104" viewBox="0 0 104 104" fill="none" xmlns="http://www.w3.org/2000/svg">
<path d="M52 102C79.6142 102 102 79.6142 102 52C102 24.3858 79.6142 2 52 2C24.3858 2 2 24.3858 2 52C2 79.6142 24.3858 102 52 102Z" fill="white"/>
<path d="M52 103C80.1665 103 103 80.1665 103 52C103 23.8335 80.1665 1 52 1C23.8335 1 1 23.8335 1 52C1 80.1665 23.8335 103 52 103Z" stroke="#DD2127" stroke-width="2"/>
<g opacity="0.8">
<path d="M52.1818 73.0009C52.5677 72.9987 52.9415 72.8661 53.2425 72.6246C53.8926 72.0429 71 58.2543 71 43.9183C71 38.9274 69.0174 34.1409 65.4883 30.6118C61.9592 27.0827 57.1727 25.1001 52.1818 25.1001C47.1909 25.1001 42.4045 27.0827 38.8754 30.6118C35.3463 34.1409 33.3636 38.9274 33.3636 43.9183C33.3636 58.2543 50.4711 72.0429 51.1212 72.6246C51.4222 72.8661 51.7959 72.9987 52.1818 73.0009ZM36.7851 43.9183C36.7851 39.8348 38.4073 35.9186 41.2947 33.0312C44.1822 30.1437 48.0984 28.5216 52.1818 28.5216C56.2653 28.5216 60.1815 30.1437 63.0689 33.0312C65.9564 35.9186 67.5785 39.8348 67.5785 43.9183C67.5785 54.696 55.8257 65.8329 52.1818 69.0491C48.5379 65.8329 36.7851 54.696 36.7851 43.9183Z" fill="#DD2127"/>
<path d="M60.7345 43.9183C60.7345 42.2265 60.2329 40.5728 59.293 39.1661C58.3531 37.7595 57.0172 36.6631 55.4542 36.0157C53.8912 35.3683 52.1713 35.1989 50.5121 35.5289C48.8528 35.859 47.3287 36.6737 46.1324 37.8699C44.9361 39.0662 44.1215 40.5903 43.7914 42.2496C43.4614 43.9088 43.6308 45.6287 44.2782 47.1917C44.9256 48.7547 46.022 50.0906 47.4286 51.0305C48.8353 51.9704 50.489 52.472 52.1808 52.472C54.4494 52.472 56.6251 51.5708 58.2292 49.9667C59.8333 48.3626 60.7345 46.1869 60.7345 43.9183ZM47.0486 43.9183C47.0486 42.9032 47.3496 41.911 47.9135 41.067C48.4774 40.223 49.279 39.5652 50.2168 39.1767C51.1546 38.7883 52.1865 38.6867 53.182 38.8847C54.1776 39.0827 55.0921 39.5715 55.8098 40.2893C56.5276 41.007 57.0164 41.9215 57.2144 42.9171C57.4124 43.9126 57.3108 44.9445 56.9224 45.8823C56.5339 46.8201 55.8761 47.6217 55.0321 48.1856C54.1881 48.7495 53.1959 49.0505 52.1808 49.0505C50.8196 49.0505 49.5142 48.5098 48.5518 47.5473C47.5893 46.5849 47.0486 45.2795 47.0486 43.9183Z" fill="#DD2127"/>
</g>
<path opacity="0.5" d="M52.1824 78.3233C59.1111 78.3233 64.7279 77.3872 64.7279 76.2324C64.7279 75.0776 59.1111 74.1415 52.1824 74.1415C45.2537 74.1415 39.6369 75.0776 39.6369 76.2324C39.6369 77.3872 45.2537 78.3233 52.1824 78.3233Z" fill="#DD2127"/>
</svg>
