<svg width="128" height="128" viewBox="0 0 128 128" fill="none" xmlns="http://www.w3.org/2000/svg">
<g clip-path="url(#clip0_1_118)">
<path d="M108.681 0H19.3185C8.64919 0 0 8.64919 0 19.3185V108.681C0 119.351 8.64919 128 19.3185 128H108.681C119.351 128 128 119.351 128 108.681V19.3185C128 8.64919 119.351 0 108.681 0Z" fill="#FFDDDD"/>
<g clip-path="url(#clip1_1_118)">
<path d="M29.1245 59.3525H38.523V53.8225C38.523 50.7402 41.171 48.2394 44.4344 48.2394H48.9845V44.1359C48.9845 40.8425 51.8189 38.1479 55.3247 38.1479H58.6626V31.4026C58.6626 30.6453 58.01 30.0288 57.1895 30.0288H50.6067C47.2316 30.0288 44.3411 27.6689 44.0055 24.6396C43.6139 21.0468 46.5976 18 50.3458 18H78.1682C81.8418 18 84.7509 20.9059 84.5271 24.3931C84.322 27.5632 81.4315 30.0288 77.9258 30.0288H71.3059C70.5038 30.0288 69.8512 30.6453 69.8512 31.4026V38.1303H73.1892C76.6765 38.1303 79.5296 40.8073 79.5296 44.1183V48.2217H84.0795C87.3428 48.2217 89.9908 50.7226 89.9908 53.8049V93.625H91.6879C94.2986 93.625 96.4056 91.635 96.4056 89.1692V54.6502C96.4056 50.1591 100.266 46.5136 105.021 46.5136H108.061C109.142 46.5136 110 47.3414 110 48.3452C110 49.349 109.124 50.1767 108.061 50.1767H105.021C102.41 50.1767 100.303 52.167 100.303 54.6326V89.1692C100.303 93.6603 96.443 97.3058 91.6879 97.3058H89.9908V100.687C89.9908 104.809 86.4477 108.155 82.1029 108.155H46.4296C42.0847 108.155 38.5417 104.809 38.5417 100.687V97.0242H29.1432C23.4556 97.0242 18.8123 92.6565 18.8123 87.2673V69.1093C18.7937 63.7378 23.437 59.3525 29.1245 59.3525ZM71.3245 26.348H77.9445C79.3615 26.348 80.5738 25.3617 80.6485 24.1641C80.7415 22.7728 79.604 21.6809 78.1869 21.6809H50.3645C48.9285 21.6809 47.7536 22.8432 47.903 24.2698C48.0334 25.4322 49.2269 26.348 50.6253 26.348H57.2266C60.1917 26.348 62.5973 28.6199 62.5973 31.4026V38.1303H65.9912V31.4026C65.9539 28.6199 68.3594 26.348 71.3245 26.348ZM75.632 44.1359C75.632 42.8679 74.5318 41.8288 73.1892 41.8288H55.3247C53.982 41.8288 52.8818 42.8679 52.8818 44.1359V48.2394H75.632V44.1359ZM42.4204 100.723C42.4204 102.801 44.2106 104.509 46.4109 104.509H82.1029C84.3033 104.509 86.0935 102.818 86.0935 100.723V53.8225C86.0935 52.7658 85.1797 51.9204 84.0795 51.9204H44.4344C43.3155 51.9204 42.4204 52.7658 42.4204 53.8225V100.723ZM22.6911 87.3023C22.6911 90.6486 25.5815 93.3784 29.1245 93.3784H38.523V63.0332H29.1245C25.5815 63.0332 22.6911 65.7631 22.6911 69.1093V87.3023Z" fill="#323234" stroke="#323234"/>
<path d="M48.7245 76.3661H54.4307C54.6171 74.2174 55.1577 72.245 55.9411 70.5542L50.3654 65.2883C49.6009 64.5661 49.6009 63.4038 50.3654 62.6816C51.13 61.9597 52.3607 61.9597 53.1254 62.6816L58.0668 67.3312C59.7453 65.4643 61.8897 64.3547 64.2579 64.3547C66.6264 64.3547 68.7708 65.4643 70.449 67.3312L75.372 62.6816C76.1367 61.9597 77.3674 61.9597 78.132 62.6816C78.8965 63.4038 78.8965 64.5661 78.132 65.2883L72.5563 70.5542C73.3581 72.2624 73.8803 74.235 74.0667 76.3661H79.7916C80.8731 76.3661 81.7309 77.1938 81.7309 78.1976C81.7309 79.2015 80.8544 80.0292 79.7916 80.0292H74.0667C73.992 80.8922 73.8616 81.7376 73.6752 82.5301L78.132 86.7393C78.5049 87.0917 78.71 87.5494 78.71 88.0427V92.4104C78.71 93.4318 77.8336 94.2419 76.7707 94.2419C75.7078 94.2419 74.8314 93.4142 74.8314 92.4104V88.7999L72.2952 86.4048C70.505 89.839 67.6145 92.0406 64.2766 92.0406C60.9386 92.0406 58.0482 89.839 56.258 86.4048L53.722 88.7999V92.4104C53.722 93.4318 52.8456 94.2419 51.7827 94.2419C50.7198 94.2419 49.8431 93.4142 49.8431 92.4104V88.0427C49.8431 87.5494 50.0485 87.0917 50.4214 86.7393L54.8782 82.5301C54.6918 81.72 54.5611 80.8922 54.4864 80.0292H48.7802C47.6987 80.0292 46.8409 79.2015 46.8409 78.1976C46.8409 77.1938 47.6614 76.3661 48.7245 76.3661ZM64.2579 88.3772C72.1274 88.3772 72.1834 68.0357 64.2579 68.0357C56.258 68.0357 56.4447 88.3772 64.2579 88.3772Z" fill="#323234"/>
</g>
</g>
<defs>
<clipPath id="clip0_1_118">
<rect width="128" height="128" fill="white"/>
</clipPath>
<clipPath id="clip1_1_118">
<rect width="92" height="92" fill="white" transform="translate(18 18)"/>
</clipPath>
</defs>
</svg>
