<svg width="128" height="128" viewBox="0 0 128 128" fill="none" xmlns="http://www.w3.org/2000/svg">
<g clip-path="url(#clip0_1_58)">
<path d="M108.681 0H19.3185C8.64919 0 0 8.64919 0 19.3185V108.681C0 119.351 8.64919 128 19.3185 128H108.681C119.351 128 128 119.351 128 108.681V19.3185C128 8.64919 119.351 0 108.681 0Z" fill="#FFDDDD"/>
<path d="M103.48 55.3054H100.738C97.7324 55.3054 95.2889 57.6866 95.2188 60.6415H84.6895C81.3495 56.1399 76.6737 52.9243 71.4004 51.3426V39.9233H81.3321C84.6542 39.9233 87.3613 37.2468 87.3613 33.9616C87.3613 30.6768 84.6542 28 81.3321 28H46.6679C43.3458 28 40.6386 30.6768 40.6386 33.9616C40.6386 37.2468 43.3458 39.9233 46.6679 39.9233H56.5996V51.3426C51.326 52.9068 46.6679 56.1399 43.3281 60.6415H32.7812C32.7108 57.6866 30.2676 55.3054 27.2615 55.3054H24.5194C21.4785 55.3054 19 57.7561 19 60.7631V90.5018C19 93.5088 21.4785 95.9595 24.5194 95.9595H27.2615C30.2676 95.9595 32.7108 93.5784 32.7812 90.6235H43.3458C48.1445 97.1414 55.791 101 63.9999 101C72.2266 101 79.8731 97.1414 84.6719 90.6235H95.2188C95.2889 93.5784 97.7324 95.9595 100.738 95.9595H103.48C106.521 95.9595 109 93.5088 109 90.5018V60.7631C109 57.7561 106.521 55.3054 103.48 55.3054ZM29.1074 90.5018C29.1074 91.51 28.2811 92.327 27.2615 92.327H24.5194C23.5 92.327 22.6738 91.51 22.6738 90.5018V60.7631C22.6738 59.755 23.5 58.938 24.5194 58.938H27.2615C28.2811 58.938 29.1074 59.755 29.1074 60.7631V90.5018ZM44.2948 33.9791C44.2948 32.693 45.3497 31.65 46.6503 31.65H81.3321C82.6327 31.65 83.6876 32.693 83.6876 33.9791C83.6876 35.2654 82.6327 36.3082 81.3321 36.3082C70.9608 36.3082 60.2381 36.3082 46.6503 36.3082C45.3671 36.3082 44.2948 35.2654 44.2948 33.9791ZM60.2734 39.9407H67.744V50.5605C66.5137 50.3868 65.2655 50.2824 64.0175 50.2824C62.7696 50.2824 61.504 50.3868 60.291 50.5605L60.2734 39.9407ZM83.7226 86.9909C83.1073 86.9909 82.545 87.2865 82.1934 87.7904C78.1327 93.787 71.33 97.35 63.9999 97.35C56.6874 97.35 49.8847 93.7695 45.8243 87.773C45.4903 87.269 44.9101 86.9734 44.2948 86.9734H32.7812V64.2915H44.2774C44.8924 64.2915 45.455 63.9959 45.8066 63.492C49.9024 57.4954 56.7226 53.915 64.0175 53.915C71.33 53.915 78.1327 57.4954 82.246 63.492C82.58 63.9959 83.16 64.2915 83.7753 64.2915H95.2539V86.9909H83.7226ZM105.326 90.5018C105.326 91.51 104.5 92.327 103.48 92.327H100.738C99.7186 92.327 98.8926 91.51 98.8926 90.5018V60.7631C98.8926 59.755 99.7186 58.938 100.738 58.938H103.48C104.5 58.938 105.326 59.755 105.326 60.7631V90.5018Z" fill="#323234" stroke="#323234"/>
<path d="M64 63C56.8306 63 51 68.6065 51 75.5001C51 82.3937 56.8306 88 64 88C71.1694 88 77 82.3937 77 75.5001C77 68.6065 71.1694 63 64 63ZM64 84.4771C58.8564 84.4771 54.6816 80.4458 54.6816 75.5171C54.6816 70.5712 58.8739 66.5569 64 66.5569C69.1261 66.5569 73.3184 70.5882 73.3184 75.5171C73.3184 80.4458 69.1436 84.4771 64 84.4771Z" fill="#323234" stroke="#323234"/>
</g>
<defs>
<clipPath id="clip0_1_58">
<rect width="128" height="128" fill="white"/>
</clipPath>
</defs>
</svg>
