<svg width="104" height="104" viewBox="0 0 104 104" fill="none" xmlns="http://www.w3.org/2000/svg">
<path d="M52 102C79.6142 102 102 79.6142 102 52C102 24.3858 79.6142 2 52 2C24.3858 2 2 24.3858 2 52C2 79.6142 24.3858 102 52 102Z" fill="white"/>
<path d="M52 103C80.1665 103 103 80.1665 103 52C103 23.8335 80.1665 1 52 1C23.8335 1 1 23.8335 1 52C1 80.1665 23.8335 103 52 103Z" stroke="#DD2127" stroke-width="2"/>
<path d="M73.0785 21.9808H30.9247C30.2343 21.9808 29.6747 22.5404 29.6747 23.2308V78.8462C29.6747 79.5366 30.2343 80.0962 30.9247 80.0962H73.0785C73.7688 80.0962 74.3285 79.5366 74.3285 78.8462V23.2308C74.3285 22.5404 73.7688 21.9808 73.0785 21.9808Z" stroke="#DD2127" stroke-width="1.5"/>
<path d="M36.6171 34.6924H67.3864" stroke="#DD2127" stroke-linecap="round"/>
<path d="M36.6171 44.3078H67.3864" stroke="#DD2127" stroke-linecap="round"/>
<path d="M36.6171 53.9232H67.3864" stroke="#DD2127" stroke-linecap="round"/>
<path d="M36.6171 63.5385L56.6531 63.628" stroke="#DD2127" stroke-linecap="round"/>
<path d="M63.7861 73.7434C66.7174 73.7434 69.0938 71.3671 69.0938 68.4357C69.0938 65.5043 66.7174 63.128 63.7861 63.128C60.8547 63.128 58.4784 65.5043 58.4784 68.4357C58.4784 71.3671 60.8547 73.7434 63.7861 73.7434Z" stroke="#DD2127"/>
<path d="M63.7851 71.0703C65.2402 71.0703 66.4198 69.8908 66.4198 68.4357C66.4198 66.9806 65.2402 65.8011 63.7851 65.8011C62.3301 65.8011 61.1505 66.9806 61.1505 68.4357C61.1505 69.8908 62.3301 71.0703 63.7851 71.0703Z" fill="#DD2127" stroke="#DD2127" stroke-width="0.5"/>
</svg>
