<svg width="128" height="128" viewBox="0 0 128 128" fill="none" xmlns="http://www.w3.org/2000/svg">
<g clip-path="url(#clip0_6_47)">
<path d="M108.681 0H19.3185C8.64919 0 0 8.64919 0 19.3185V108.681C0 119.351 8.64919 128 19.3185 128H108.681C119.351 128 128 119.351 128 108.681V19.3185C128 8.64919 119.351 0 108.681 0Z" fill="#FFDDDD"/>
<g clip-path="url(#clip1_6_47)">
<path d="M36 28V58" stroke="#323234" stroke-width="3" stroke-linecap="round"/>
<path d="M72 105H57" stroke="#323234" stroke-width="3" stroke-linecap="round"/>
<path d="M102 102.065C102 107.552 96.6896 112 90.1394 112H37.8606C31.3101 112 26 107.552 26 102.065V99H102V102.065Z" stroke="#323234" stroke-width="4"/>
<path d="M26 29.1629C26 22.4455 31.2405 17 37.7046 17H89.2954C95.7597 17 101 22.4455 101 29.1629V93H26V29.1629Z" stroke="#323234" stroke-width="4"/>
<circle cx="89" cy="85" r="30" fill="#FFDDDD"/>
<circle cx="89" cy="85" r="25" fill="#323234"/>
<path fill-rule="evenodd" clip-rule="evenodd" d="M78.4176 81.1094L87.4918 72.4008C88.0486 71.8664 88.9514 71.8664 89.5082 72.4008L98.5824 81.1094C99.1392 81.6438 99.1392 82.5102 98.5824 83.0446C98.0255 83.579 97.1227 83.579 96.5659 83.0446L89.9259 76.6721L89.9259 98L87.0741 98L87.0741 76.6721L80.4341 83.0446C79.8773 83.579 78.9745 83.579 78.4176 83.0446C77.8608 82.5102 77.8608 81.6438 78.4176 81.1094Z" fill="#FFDDDD" stroke="#FFDDDD" stroke-width="2" stroke-linejoin="round"/>
</g>
</g>
<defs>
<clipPath id="clip0_6_47">
<rect width="128" height="128" fill="white"/>
</clipPath>
<clipPath id="clip1_6_47">
<rect width="100" height="100" fill="white" transform="translate(14 14)"/>
</clipPath>
</defs>
</svg>
