<svg width="37" height="20" viewBox="0 0 37 20" fill="none" xmlns="http://www.w3.org/2000/svg">
<rect width="37" height="20" fill="#D9D9D9"/>
<path d="M16.7914 13.9413H14.7602L16.0297 6.13941H18.0611L16.7914 13.9413ZM13.0514 6.13941L11.1149 11.5056L10.8858 10.35L10.886 10.3505L10.2025 6.84188C10.2025 6.84188 10.1199 6.13941 9.23895 6.13941H6.03757L6 6.27151C6 6.27151 6.97899 6.4752 8.12473 7.16327L9.88946 13.9415H12.0058L15.2375 6.13941H13.0514ZM29.0281 13.9413H30.8932L29.267 6.1392H27.6342C26.8802 6.1392 26.6965 6.72063 26.6965 6.72063L23.6671 13.9413H25.7845L26.208 12.7824H28.7902L29.0281 13.9413ZM26.7929 11.1815L27.8602 8.26184L28.4606 11.1815H26.7929ZM23.8259 8.01558L24.1158 6.34017C24.1158 6.34017 23.2213 6 22.2889 6C21.2809 6 18.8871 6.44056 18.8871 8.58281C18.8871 10.5984 21.6966 10.6234 21.6966 11.6822C21.6966 12.7409 19.1766 12.5512 18.345 11.8835L18.043 13.6353C18.043 13.6353 18.95 14.0759 20.3357 14.0759C21.7219 14.0759 23.813 13.3582 23.813 11.4048C23.813 9.37627 20.9783 9.18741 20.9783 8.30546C20.9785 7.4233 22.9567 7.53662 23.8259 8.01558Z" fill="#2566AF"/>
<path d="M10.886 10.3497L10.2025 6.84114C10.2025 6.84114 10.1199 6.13867 9.23895 6.13867H6.03757L6 6.27078C6 6.27078 7.53871 6.58966 9.01461 7.78444C10.4258 8.92642 10.886 10.3497 10.886 10.3497Z" fill="#E6A540"/>
</svg>
