<svg width="76" height="76" viewBox="0 0 76 76" fill="none" xmlns="http://www.w3.org/2000/svg">
<g filter="url(#filter0_d_13839_2829)">
<circle cx="37" cy="38" r="30" fill="white"/>
<circle cx="37" cy="38" r="30.5" stroke="#DD2127" stroke-linecap="round" stroke-linejoin="round"/>
</g>
<rect x="27.1152" y="18.8846" width="26.6923" height="34.7692" rx="3.5" stroke="#DD2127"/>
<path d="M48.5391 26.4615L49.6929 26.4615" stroke="#DD2127" stroke-linecap="round"/>
<path d="M48.5391 32.2308L49.6929 32.2308" stroke="#DD2127" stroke-linecap="round"/>
<path d="M48.5391 38L49.6929 38" stroke="#DD2127" stroke-linecap="round"/>
<path d="M48.5391 43.7692L49.6929 43.7692" stroke="#DD2127" stroke-linecap="round"/>
<rect x="21.5" y="21.1923" width="26.6923" height="34.7692" rx="3.5" fill="white" stroke="#DD2127"/>
<path d="M26 33.7692H44.4615" stroke="#DD2127" stroke-linecap="round"/>
<path d="M26 39H44.4615" stroke="#DD2127" stroke-linecap="round"/>
<path d="M26 44H44.4615" stroke="#DD2127" stroke-linecap="round"/>
<path d="M26 49H44.4615" stroke="#DD2127" stroke-linecap="round"/>
<path d="M32.5614 29.988V30.5186H30.043V30.2506C30.1758 30.112 30.2924 29.988 30.3928 29.8786C30.4969 29.7655 30.5919 29.6598 30.678 29.5613C30.8502 29.3717 31.0278 29.1419 31.2107 28.872C31.2789 28.7699 31.3381 28.6696 31.3883 28.5711C31.4421 28.469 31.4924 28.3669 31.539 28.2648C31.6215 28.0679 31.6628 27.8764 31.6628 27.6904C31.6628 27.4971 31.5964 27.333 31.4637 27.1981C31.3345 27.0668 31.1695 27.0011 30.9686 27.0011C30.8179 27.0011 30.6888 27.0339 30.5812 27.0996C30.5489 27.1178 30.5166 27.1379 30.4843 27.1598C30.452 27.1816 30.4143 27.2108 30.3713 27.2473C30.3282 27.2838 30.2762 27.3312 30.2152 27.3895C30.1578 27.4442 30.0861 27.5117 30 27.5919V26.8808C30.0682 26.8188 30.1345 26.7677 30.1991 26.7276C30.2673 26.6838 30.3372 26.6419 30.409 26.6018C30.574 26.5106 30.7695 26.465 30.9955 26.465C31.3327 26.465 31.6197 26.5817 31.8565 26.8151C32.0932 27.0522 32.2116 27.3421 32.2116 27.6849C32.2116 27.9402 32.1488 28.2046 32.0233 28.4781C31.9623 28.6131 31.9013 28.7316 31.8403 28.8337C31.7829 28.9358 31.7273 29.0252 31.6735 29.1018C31.6054 29.2002 31.539 29.2969 31.4744 29.3917C31.4098 29.4829 31.3417 29.5741 31.2699 29.6652C31.2305 29.7199 31.1892 29.7746 31.1462 29.8294C31.1031 29.8804 31.0583 29.9333 31.0116 29.988H32.5614Z" fill="#DD2127"/>
<path d="M33.1982 28.5821H34.0753V27.5044L33.1982 28.5821ZM35.1246 28.5821V29.0799H34.6134V30.5186H34.0699V29.0799H32.391V28.8009L34.3121 26.465H34.6188V28.5821H35.1246Z" fill="#DD2127"/>
<path d="M36.5011 31H35.8877V26H36.5011V31Z" fill="#323234"/>
<path d="M37.2664 26.5143H40L38.1812 30.6116L37.7023 30.3983L39.1928 27.0449H37.2664V26.5143Z" fill="#DD2127"/>
<defs>
<filter id="filter0_d_13839_2829" x="0" y="-1.52588e-05" width="76" height="76" filterUnits="userSpaceOnUse" color-interpolation-filters="sRGB">
<feFlood flood-opacity="0" result="BackgroundImageFix"/>
<feColorMatrix in="SourceAlpha" type="matrix" values="0 0 0 0 0 0 0 0 0 0 0 0 0 0 0 0 0 0 127 0" result="hardAlpha"/>
<feMorphology radius="3" operator="erode" in="SourceAlpha" result="effect1_dropShadow_13839_2829"/>
<feOffset dx="1"/>
<feGaussianBlur stdDeviation="5"/>
<feColorMatrix type="matrix" values="0 0 0 0 0 0 0 0 0 0 0 0 0 0 0 0 0 0 0.25 0"/>
<feBlend mode="darken" in2="BackgroundImageFix" result="effect1_dropShadow_13839_2829"/>
<feBlend mode="normal" in="SourceGraphic" in2="effect1_dropShadow_13839_2829" result="shape"/>
</filter>
</defs>
</svg>
