<svg width="76" height="76" viewBox="0 0 76 76" fill="none" xmlns="http://www.w3.org/2000/svg">
<g filter="url(#filter0_d_12558_1389)">
<circle cx="37" cy="38" r="30" fill="white"/>
<circle cx="37" cy="38" r="30.5" stroke="#DD2127" stroke-linecap="round" stroke-linejoin="round"/>
</g>
<path d="M18.0488 23.1433C18.0488 21.2103 19.6158 19.6433 21.5488 19.6433H43.1595C45.0925 19.6433 46.6595 21.2103 46.6595 23.1433V46.3884H18.0488V23.1433Z" stroke="#DD2127"/>
<path d="M46.4956 50.5774C46.4956 52.5104 44.9286 54.0774 42.9956 54.0774L21.3849 54.0774C19.4519 54.0774 17.8849 52.5104 17.8849 50.5774L17.8849 48.514L46.4956 48.514L46.4956 50.5774Z" stroke="#DD2127"/>
<line x1="21.9268" y1="22.425" x2="21.9268" y2="33.6872" stroke="#DD2127"/>
<path d="M35.6147 51.2957L30.1949 51.2957" stroke="#DD2127"/>
<rect x="32.8848" y="36.7412" width="23.6427" height="18.8252" rx="3.5" stroke="#DD2127"/>
<rect x="32.8848" y="36.7412" width="23.6427" height="18.8252" rx="1.5" fill="white" stroke="#DD2127"/>
<path d="M37 35.2971V37.6048M52 35.2971V37.6048" stroke="#DD2127" stroke-width="2" stroke-linecap="round"/>
<path d="M39.2145 46.7382C39.9034 46.0993 40.4451 45.5759 40.8398 45.1679C41.2417 44.7522 41.5754 44.3212 41.8409 43.8747C42.1064 43.4283 42.2391 42.9818 42.2391 42.5354C42.2391 42.0735 42.1351 41.7118 41.927 41.45C41.726 41.1883 41.4067 41.0575 40.969 41.0575C40.5456 41.0575 40.2155 41.2037 39.9787 41.4962C39.7491 41.781 39.6271 42.1659 39.6127 42.6508H38.4287C38.4502 41.7733 38.6942 41.1037 39.1607 40.6418C39.6343 40.1723 40.2335 39.9375 40.9582 39.9375C41.7404 39.9375 42.3503 40.1684 42.7881 40.6303C43.233 41.0921 43.4554 41.7079 43.4554 42.4776C43.4554 43.0319 43.3227 43.5668 43.0572 44.0826C42.7988 44.5906 42.4867 45.0486 42.1207 45.4566C41.7619 45.8568 41.3027 46.3225 40.7429 46.8536L40.2586 47.3155H43.6707V48.4124H38.4395V47.454L39.2145 46.7382Z" fill="#DD2127"/>
<path d="M46.3907 46.7382C47.0796 46.0993 47.6214 45.5759 48.0161 45.1679C48.4179 44.7522 48.7516 44.3212 49.0171 43.8747C49.2826 43.4283 49.4154 42.9818 49.4154 42.5354C49.4154 42.0735 49.3113 41.7118 49.1032 41.45C48.9023 41.1883 48.583 41.0575 48.1453 41.0575C47.7219 41.0575 47.3918 41.2037 47.155 41.4962C46.9253 41.781 46.8034 42.1659 46.789 42.6508H45.605C45.6265 41.7733 45.8705 41.1037 46.3369 40.6418C46.8105 40.1723 47.4097 39.9375 48.1345 39.9375C48.9167 39.9375 49.5266 40.1684 49.9643 40.6303C50.4093 41.0921 50.6317 41.7079 50.6317 42.4776C50.6317 43.0319 50.499 43.5668 50.2334 44.0826C49.9751 44.5906 49.663 45.0486 49.297 45.4566C48.9382 45.8568 48.4789 46.3225 47.9192 46.8536L47.4348 47.3155H50.847V48.4124H45.6157V47.454L46.3907 46.7382Z" fill="#DD2127"/>
<path d="M43.2536 50.5051V50.9349H42.0722V51.8823H42.9933V52.3121H42.0722V53.7171H41.6157V50.5051H43.2536Z" fill="#DD2127"/>
<path d="M45.7629 52.3814C45.7629 52.4769 45.7576 52.5632 45.7469 52.6402H44.061C44.0744 52.8436 44.1398 53.0069 44.2573 53.1301C44.3747 53.2534 44.5189 53.315 44.6898 53.315C44.9354 53.315 45.1089 53.1964 45.2103 52.9591H45.7029C45.6361 53.1933 45.5147 53.3859 45.3385 53.5368C45.1649 53.6847 44.9487 53.7587 44.6898 53.7587C44.4788 53.7587 44.2893 53.7047 44.1211 53.5969C43.9556 53.486 43.8248 53.3319 43.7287 53.1347C43.6352 52.9345 43.5885 52.7034 43.5885 52.4415C43.5885 52.1796 43.6339 51.9501 43.7247 51.7529C43.8181 51.5526 43.9476 51.3986 44.1131 51.2908C44.2813 51.1829 44.4735 51.129 44.6898 51.129C44.898 51.129 45.0835 51.1814 45.2464 51.2861C45.4092 51.3909 45.536 51.5388 45.6268 51.7298C45.7176 51.9177 45.7629 52.135 45.7629 52.3814ZM45.2864 52.2151C45.2837 52.021 45.2237 51.8654 45.1062 51.7483C44.9888 51.6312 44.8433 51.5727 44.6697 51.5727C44.5122 51.5727 44.3774 51.6312 44.2653 51.7483C44.1532 51.8623 44.0864 52.0179 44.0651 52.2151H45.2864Z" fill="#DD2127"/>
<path d="M46.7328 51.5496C46.8102 51.4263 46.9157 51.3262 47.0491 51.2492C47.1853 51.1691 47.3361 51.129 47.5016 51.129C47.6965 51.129 47.8727 51.1829 48.0302 51.2908C48.1877 51.3986 48.3119 51.5526 48.4026 51.7529C48.4934 51.9501 48.5388 52.1765 48.5388 52.4323C48.5388 52.688 48.4934 52.9175 48.4026 53.1209C48.3119 53.3212 48.1864 53.4783 48.0262 53.5923C47.8687 53.7032 47.6939 53.7587 47.5016 53.7587C47.3308 53.7587 47.1786 53.7201 47.0451 53.6431C46.9143 53.5661 46.8102 53.4675 46.7328 53.3473V53.7171H46.2763V50.2971H46.7328V51.5496ZM48.0743 52.4323C48.0743 52.2567 48.0422 52.1057 47.9782 51.9794C47.9168 51.85 47.834 51.7529 47.7299 51.6882C47.6284 51.6204 47.519 51.5865 47.4015 51.5865C47.2867 51.5865 47.1773 51.6204 47.0732 51.6882C46.9717 51.756 46.889 51.8546 46.8249 51.984C46.7635 52.1134 46.7328 52.2659 46.7328 52.4415C46.7328 52.6171 46.7635 52.7712 46.8249 52.9037C46.889 53.0331 46.9717 53.1317 47.0732 53.1995C47.1773 53.2672 47.2867 53.3011 47.4015 53.3011C47.519 53.3011 47.6284 53.2672 47.7299 53.1995C47.834 53.1286 47.9168 53.0269 47.9782 52.8944C48.0422 52.7619 48.0743 52.6079 48.0743 52.4323Z" fill="#DD2127"/>
<defs>
<filter id="filter0_d_12558_1389" x="0" y="0" width="76" height="76" filterUnits="userSpaceOnUse" color-interpolation-filters="sRGB">
<feFlood flood-opacity="0" result="BackgroundImageFix"/>
<feColorMatrix in="SourceAlpha" type="matrix" values="0 0 0 0 0 0 0 0 0 0 0 0 0 0 0 0 0 0 127 0" result="hardAlpha"/>
<feMorphology radius="3" operator="erode" in="SourceAlpha" result="effect1_dropShadow_12558_1389"/>
<feOffset dx="1"/>
<feGaussianBlur stdDeviation="5"/>
<feColorMatrix type="matrix" values="0 0 0 0 0 0 0 0 0 0 0 0 0 0 0 0 0 0 0.25 0"/>
<feBlend mode="darken" in2="BackgroundImageFix" result="effect1_dropShadow_12558_1389"/>
<feBlend mode="normal" in="SourceGraphic" in2="effect1_dropShadow_12558_1389" result="shape"/>
</filter>
</defs>
</svg>
