<svg width="76" height="76" viewBox="0 0 76 76" fill="none" xmlns="http://www.w3.org/2000/svg">
<g filter="url(#filter0_d_12558_1453)">
<circle cx="37" cy="38" r="30" fill="white"/>
<circle cx="37" cy="38" r="30.5" stroke="#DD2127"/>
</g>
<path d="M27.6191 19.7505H47.454C49.9393 19.7505 51.954 21.7652 51.954 24.2505V47.8688H23.1191V24.2505C23.1191 21.7652 25.1339 19.7505 27.6191 19.7505Z" stroke="#DD2127"/>
<path d="M47.2891 55.9382L27.4542 55.9382C24.9689 55.9382 22.9542 53.9235 22.9542 51.4382L22.9542 50.05L51.7891 50.05L51.7891 51.4382C51.7891 53.9235 49.7743 55.9382 47.2891 55.9382Z" stroke="#DD2127"/>
<line x1="27.0273" y1="22.6948" x2="27.0273" y2="34.5144" stroke="#DD2127"/>
<path d="M40.8223 52.9941L35.3614 52.9941" stroke="#DD2127"/>
<circle cx="48.5384" cy="44.9232" r="9.23077" fill="#DD2127"/>
<path d="M51.6769 41.2194L46.7269 46.1809L44.8231 44.2771C44.7196 44.1563 44.5924 44.0582 44.4492 43.9889C44.306 43.9197 44.1501 43.8807 43.9912 43.8746C43.8323 43.8685 43.6739 43.8952 43.5258 43.9533C43.3777 44.0113 43.2432 44.0993 43.1308 44.2117C43.0183 44.3242 42.9304 44.4586 42.8723 44.6067C42.8143 44.7548 42.7876 44.9132 42.7937 45.0721C42.7998 45.231 42.8388 45.387 42.908 45.5301C42.9773 45.6733 43.0754 45.8006 43.1962 45.904L45.9077 48.6271C46.0155 48.734 46.1434 48.8186 46.284 48.876C46.4245 48.9335 46.5751 48.9626 46.7269 48.9617C47.0296 48.9604 47.3197 48.8402 47.5346 48.6271L53.3038 42.8578C53.412 42.7506 53.4978 42.623 53.5564 42.4824C53.615 42.3417 53.6452 42.1909 53.6452 42.0386C53.6452 41.8863 53.615 41.7355 53.5564 41.5949C53.4978 41.4543 53.412 41.3266 53.3038 41.2194C53.0877 41.0045 52.7952 40.8838 52.4904 40.8838C52.1856 40.8838 51.8931 41.0045 51.6769 41.2194ZM48.5385 33.3848C46.2564 33.3848 44.0255 34.0615 42.128 35.3293C40.2305 36.5972 38.7516 38.3993 37.8783 40.5076C37.005 42.616 36.7765 44.936 37.2217 47.1743C37.6669 49.4125 38.7659 51.4685 40.3795 53.0821C41.9932 54.6958 44.0492 55.7948 46.2874 56.24C48.5257 56.6852 50.8457 56.4567 52.954 55.5834C55.0624 54.71 56.8645 53.2311 58.1323 51.3336C59.4002 49.4362 60.0769 47.2053 60.0769 44.9232C60.0769 43.408 59.7785 41.9076 59.1986 40.5076C58.6187 39.1077 57.7688 37.8357 56.6974 36.7643C55.6259 35.6929 54.354 34.8429 52.954 34.2631C51.5541 33.6832 50.0537 33.3848 48.5385 33.3848ZM48.5385 54.154C46.7128 54.154 44.9281 53.6126 43.4101 52.5983C41.8921 51.584 40.709 50.1424 40.0103 48.4557C39.3117 46.769 39.1289 44.913 39.4851 43.1224C39.8412 41.3318 40.7204 39.687 42.0113 38.3961C43.3023 37.1051 44.947 36.226 46.7376 35.8698C48.5282 35.5137 50.3842 35.6965 52.0709 36.3951C53.7576 37.0938 55.1993 38.2769 56.2136 39.7949C57.2279 41.3129 57.7692 43.0976 57.7692 44.9232C57.7692 47.3714 56.7967 49.7193 55.0656 51.4504C53.3345 53.1815 50.9866 54.154 48.5385 54.154Z" fill="white"/>
<defs>
<filter id="filter0_d_12558_1453" x="0" y="0" width="76" height="76" filterUnits="userSpaceOnUse" color-interpolation-filters="sRGB">
<feFlood flood-opacity="0" result="BackgroundImageFix"/>
<feColorMatrix in="SourceAlpha" type="matrix" values="0 0 0 0 0 0 0 0 0 0 0 0 0 0 0 0 0 0 127 0" result="hardAlpha"/>
<feMorphology radius="3" operator="erode" in="SourceAlpha" result="effect1_dropShadow_12558_1453"/>
<feOffset dx="1"/>
<feGaussianBlur stdDeviation="5"/>
<feColorMatrix type="matrix" values="0 0 0 0 0 0 0 0 0 0 0 0 0 0 0 0 0 0 0.25 0"/>
<feBlend mode="darken" in2="BackgroundImageFix" result="effect1_dropShadow_12558_1453"/>
<feBlend mode="normal" in="SourceGraphic" in2="effect1_dropShadow_12558_1453" result="shape"/>
</filter>
</defs>
</svg>
