<svg width="76" height="76" viewBox="0 0 76 76" fill="none" xmlns="http://www.w3.org/2000/svg">
<g filter="url(#filter0_d_12558_1467)">
<circle cx="37" cy="38" r="30" fill="white"/>
<circle cx="37" cy="38" r="30.5" stroke="#DD2127"/>
</g>
<path d="M25.4658 19.7505H47.3007C49.2337 19.7505 50.8007 21.3175 50.8007 23.2505V47.8688H21.9658V23.2505C21.9658 21.3175 23.5328 19.7505 25.4658 19.7505Z" stroke="#DD2127"/>
<path d="M47.1357 55.9382L25.3009 55.9382C23.3679 55.9382 21.8009 54.3712 21.8009 52.4382L21.8009 50.05L50.6357 50.05L50.6357 52.4382C50.6357 54.3712 49.0687 55.9382 47.1357 55.9382Z" stroke="#DD2127"/>
<line x1="25.874" y1="22.6946" x2="25.874" y2="34.5141" stroke="#DD2127"/>
<path d="M39.6689 52.9941L34.2081 52.9941" stroke="#DD2127"/>
<path d="M57.1463 37.3004C57.2009 37.3311 57.246 37.3728 57.2777 37.422C58.2415 38.9475 58.7973 40.6402 58.904 42.3757C59.0108 44.1111 58.6658 45.8452 57.8945 47.4503C57.1233 49.0554 55.9453 50.4908 54.4471 51.6509C52.949 52.811 51.169 53.6663 49.2378 54.154H49.0027C47.071 53.6668 45.2902 52.812 43.7912 51.6523C42.2921 50.4927 41.1129 49.0577 40.3402 47.4527C39.5675 45.8478 39.221 44.1137 39.326 42.3779C39.431 40.6421 39.9849 38.9486 40.9471 37.422C40.9815 37.3691 41.0316 37.3249 41.0921 37.294C41.1526 37.2631 41.2215 37.2466 41.2919 37.246C41.6532 37.2496 42.0117 37.1908 42.3464 37.0731C42.681 36.9553 42.9851 36.7809 43.2406 36.5602C43.4961 36.3395 43.698 36.0769 43.8343 35.7879C43.9707 35.4988 44.0387 35.1891 44.0345 34.877C44.0402 34.7888 44.0833 34.7055 44.1555 34.6431C44.2278 34.5807 44.3243 34.5434 44.4263 34.5386H53.8298C53.9337 34.5386 54.0333 34.5742 54.1068 34.6377C54.1803 34.7012 54.2216 34.7872 54.2216 34.877C54.2184 35.1889 54.2872 35.4981 54.424 35.7868C54.5607 36.0754 54.7626 36.3377 55.0179 36.5582C55.2732 36.7787 55.5768 36.9531 55.911 37.0712C56.2451 37.1893 56.6032 37.2487 56.9642 37.246C57.0291 37.2511 57.0916 37.2697 57.1463 37.3004Z" fill="white"/>
<path d="M57.2777 37.422C57.246 37.3728 57.2009 37.3311 57.1463 37.3004C57.0916 37.2697 57.0291 37.2511 56.9642 37.246C56.6032 37.2487 56.2451 37.1893 55.911 37.0712C55.5768 36.9531 55.2732 36.7787 55.0179 36.5582C54.7626 36.3377 54.5607 36.0754 54.424 35.7868C54.2872 35.4981 54.2184 35.1889 54.2216 34.877C54.2216 34.7872 54.1803 34.7012 54.1068 34.6377C54.0333 34.5742 53.9337 34.5386 53.8298 34.5386H44.4263C44.3243 34.5434 44.2278 34.5807 44.1555 34.6431C44.0833 34.7055 44.0402 34.7888 44.0345 34.877C44.0387 35.1891 43.9707 35.4988 43.8343 35.7879C43.698 36.0769 43.4961 36.3395 43.2406 36.5602C42.9851 36.7809 42.681 36.9553 42.3464 37.0731C42.0117 37.1908 41.6532 37.2496 41.2919 37.246C41.2215 37.2466 41.1526 37.2631 41.0921 37.294C41.0316 37.3249 40.9815 37.3691 40.9471 37.422C39.9849 38.9486 39.431 40.6421 39.326 42.3779C39.221 44.1137 39.5675 45.8478 40.3402 47.4527C41.1129 49.0577 42.2921 50.4927 43.7912 51.6523C45.2902 52.812 47.071 53.6668 49.0027 54.154H49.2378C51.169 53.6663 52.949 52.811 54.4472 51.6509C55.9453 50.4908 57.1233 49.0554 57.8945 47.4503C58.6658 45.8452 59.0108 44.1111 58.904 42.3757C58.7973 40.6402 58.2416 38.9475 57.2777 37.422V37.422ZM49.2378 51.4465H49.0105C46.992 50.9333 45.2201 49.8693 43.9601 48.4136C42.7001 46.958 42.0196 45.1891 42.0206 43.3716C42.019 41.9683 42.4288 40.5874 43.2117 39.3578C43.2456 39.3044 43.2954 39.2599 43.3561 39.2289C43.4168 39.1979 43.486 39.1817 43.5565 39.1818C43.7976 39.181 44.0361 39.1388 44.2583 39.0579C44.4805 38.977 44.6819 38.8589 44.8509 38.7104C45.0199 38.5618 45.1532 38.3859 45.2431 38.1926C45.333 37.9994 45.3776 37.7927 45.3745 37.5844C45.3743 37.4927 45.4149 37.4044 45.4877 37.3377C45.5606 37.271 45.6603 37.2309 45.7663 37.2257H52.4898C52.5937 37.2257 52.6934 37.2614 52.7668 37.3248C52.8403 37.3883 52.8816 37.4744 52.8816 37.5641C52.8795 37.7721 52.9249 37.9784 53.0152 38.1713C53.1054 38.3641 53.2387 38.5397 53.4076 38.6881C53.5764 38.8364 53.7774 38.9546 53.9991 39.0358C54.2207 39.117 54.4588 39.1598 54.6996 39.1615C54.7701 39.1614 54.8393 39.1776 54.9 39.2086C54.9607 39.2396 55.0105 39.2841 55.0444 39.3375C55.8273 40.5671 56.2371 41.948 56.2355 43.3513C56.2398 45.1729 55.5601 46.9465 54.2984 48.4061C53.0367 49.8657 51.261 50.9326 49.2378 51.4465V51.4465Z" fill="#DD2127"/>
<defs>
<filter id="filter0_d_12558_1467" x="0" y="0" width="76" height="76" filterUnits="userSpaceOnUse" color-interpolation-filters="sRGB">
<feFlood flood-opacity="0" result="BackgroundImageFix"/>
<feColorMatrix in="SourceAlpha" type="matrix" values="0 0 0 0 0 0 0 0 0 0 0 0 0 0 0 0 0 0 127 0" result="hardAlpha"/>
<feMorphology radius="3" operator="erode" in="SourceAlpha" result="effect1_dropShadow_12558_1467"/>
<feOffset dx="1"/>
<feGaussianBlur stdDeviation="5"/>
<feColorMatrix type="matrix" values="0 0 0 0 0 0 0 0 0 0 0 0 0 0 0 0 0 0 0.25 0"/>
<feBlend mode="darken" in2="BackgroundImageFix" result="effect1_dropShadow_12558_1467"/>
<feBlend mode="normal" in="SourceGraphic" in2="effect1_dropShadow_12558_1467" result="shape"/>
</filter>
</defs>
</svg>
