<svg width="76" height="76" viewBox="0 0 76 76" fill="none" xmlns="http://www.w3.org/2000/svg">
<g filter="url(#filter0_d_12317_5810)">
<circle cx="37" cy="38" r="30" fill="white"/>
<circle cx="37" cy="38" r="30.5" stroke="#DD2127" stroke-linecap="round" stroke-linejoin="round"/>
</g>
<rect x="27.1155" y="18.8846" width="26.6923" height="34.7692" rx="3.5" stroke="#DD2127"/>
<path d="M48.5386 26.4615L49.6924 26.4615" stroke="#DD2127" stroke-linecap="round"/>
<path d="M48.5386 32.2308L49.6924 32.2308" stroke="#DD2127" stroke-linecap="round"/>
<path d="M48.5386 38L49.6924 38" stroke="#DD2127" stroke-linecap="round"/>
<path d="M48.5386 43.7693L49.6924 43.7693" stroke="#DD2127" stroke-linecap="round"/>
<rect x="21.3462" y="21.1923" width="26.6923" height="34.7692" rx="3.5" fill="white" stroke="#DD2127"/>
<path d="M25.4614 28.7692H43.923" stroke="#DD2127" stroke-linecap="round"/>
<path d="M25.4614 34.5385H43.923" stroke="#DD2127" stroke-linecap="round"/>
<path d="M43.8187 39.0512C43.7945 39.0136 43.76 38.9816 43.7182 38.9582C43.6764 38.9347 43.6287 38.9204 43.579 38.9166C43.3029 38.9187 43.0291 38.8732 42.7736 38.7829C42.518 38.6926 42.2859 38.5592 42.0906 38.3906C41.8954 38.222 41.741 38.0214 41.6365 37.8007C41.5319 37.58 41.4793 37.3435 41.4817 37.105C41.4817 37.0364 41.4501 36.9705 41.3939 36.922C41.3378 36.8735 41.2615 36.8462 41.1821 36.8462H33.9912C33.9132 36.8499 33.8394 36.8784 33.7841 36.9261C33.7289 36.9739 33.6959 37.0376 33.6916 37.105C33.6948 37.3437 33.6428 37.5805 33.5385 37.8015C33.4342 38.0226 33.2799 38.2234 33.0845 38.3922C32.8891 38.5609 32.6566 38.6943 32.4007 38.7843C32.1448 38.8744 31.8706 38.9194 31.5943 38.9166C31.5405 38.917 31.4878 38.9297 31.4415 38.9533C31.3952 38.9769 31.357 39.0107 31.3306 39.0512C30.5948 40.2186 30.1712 41.5136 30.0909 42.841C30.0106 44.1684 30.2757 45.4944 30.8666 46.7217C31.4574 47.949 32.3592 49.0464 33.5055 49.9332C34.6518 50.82 36.0136 51.4737 37.4908 51.8462H37.6705C39.1473 51.4733 40.5086 50.8192 41.6542 49.9321C42.7998 49.045 43.7006 47.9473 44.2904 46.7199C44.8802 45.4924 45.144 44.1664 45.0624 42.8393C44.9808 41.5121 44.5558 40.2177 43.8187 39.0512ZM37.6705 49.7758H37.4968C35.9532 49.3833 34.5982 48.5697 33.6347 47.4565C32.6711 46.3434 32.1508 44.9907 32.1516 43.6008C32.1503 42.5277 32.4637 41.4718 33.0624 40.5315C33.0883 40.4906 33.1264 40.4566 33.1728 40.4329C33.2192 40.4092 33.2722 40.3968 33.3261 40.3969C33.5104 40.3962 33.6928 40.364 33.8627 40.3022C34.0326 40.2403 34.1866 40.1499 34.3159 40.0364C34.4451 39.9228 34.5471 39.7883 34.6158 39.6405C34.6845 39.4927 34.7187 39.3346 34.7163 39.1754C34.7162 39.1052 34.7472 39.0377 34.8029 38.9867C34.8586 38.9357 34.9348 38.905 35.0159 38.9011H40.1574C40.2368 38.9011 40.3131 38.9283 40.3692 38.9769C40.4254 39.0254 40.457 39.0912 40.457 39.1599C40.4554 39.3189 40.4901 39.4767 40.5591 39.6241C40.6281 39.7716 40.7301 39.9059 40.8592 40.0193C40.9883 40.1328 41.142 40.2231 41.3115 40.2852C41.4811 40.3474 41.6631 40.38 41.8472 40.3814C41.9011 40.3813 41.9541 40.3937 42.0005 40.4174C42.0469 40.4411 42.085 40.4751 42.1109 40.516C42.7096 41.4563 43.023 42.5122 43.0217 43.5853C43.025 44.9783 42.5053 46.3346 41.5404 47.4508C40.5756 48.567 39.2177 49.3828 37.6705 49.7758Z" fill="#DD2127"/>
<defs>
<filter id="filter0_d_12317_5810" x="0" y="0" width="76" height="76" filterUnits="userSpaceOnUse" color-interpolation-filters="sRGB">
<feFlood flood-opacity="0" result="BackgroundImageFix"/>
<feColorMatrix in="SourceAlpha" type="matrix" values="0 0 0 0 0 0 0 0 0 0 0 0 0 0 0 0 0 0 127 0" result="hardAlpha"/>
<feMorphology radius="3" operator="erode" in="SourceAlpha" result="effect1_dropShadow_12317_5810"/>
<feOffset dx="1"/>
<feGaussianBlur stdDeviation="5"/>
<feColorMatrix type="matrix" values="0 0 0 0 0 0 0 0 0 0 0 0 0 0 0 0 0 0 0.25 0"/>
<feBlend mode="darken" in2="BackgroundImageFix" result="effect1_dropShadow_12317_5810"/>
<feBlend mode="normal" in="SourceGraphic" in2="effect1_dropShadow_12317_5810" result="shape"/>
</filter>
</defs>
</svg>
