<svg width="59" height="122" viewBox="0 0 59 122" fill="none" xmlns="http://www.w3.org/2000/svg">
<g opacity="0.5">
<mask id="mask0_12317_5996" style="mask-type:alpha" maskUnits="userSpaceOnUse" x="0" y="-1" width="59" height="123">
<path d="M16.8906 32.8647C18.9849 32.8647 20.6827 31.1669 20.6827 29.0726C20.6827 26.9783 18.9849 25.2805 16.8906 25.2805C14.7963 25.2805 13.0985 26.9783 13.0985 29.0726C13.0985 31.1669 14.7963 32.8647 16.8906 32.8647Z" fill="#DD2127"/>
<path d="M29.5314 20.2243C31.6257 20.2243 33.3235 18.5265 33.3235 16.4322C33.3235 14.3379 31.6257 12.6401 29.5314 12.6401C27.437 12.6401 25.7393 14.3379 25.7393 16.4322C25.7393 18.5265 27.437 20.2243 29.5314 20.2243Z" fill="#DD2127"/>
<path d="M42.1714 32.8647C44.2657 32.8647 45.9635 31.1669 45.9635 29.0726C45.9635 26.9783 44.2657 25.2805 42.1714 25.2805C40.0771 25.2805 38.3793 26.9783 38.3793 29.0726C38.3793 31.1669 40.0771 32.8647 42.1714 32.8647Z" fill="#DD2127"/>
<path d="M54.8116 20.2243C56.9059 20.2243 58.6037 18.5265 58.6037 16.4322C58.6037 14.3379 56.9059 12.6401 54.8116 12.6401C52.7173 12.6401 51.0195 14.3379 51.0195 16.4322C51.0195 18.5265 52.7173 20.2243 54.8116 20.2243Z" fill="#DD2127"/>
<path d="M29.5314 45.505C31.6257 45.505 33.3235 43.8072 33.3235 41.7129C33.3235 39.6186 31.6257 37.9208 29.5314 37.9208C27.437 37.9208 25.7393 39.6186 25.7393 41.7129C25.7393 43.8072 27.437 45.505 29.5314 45.505Z" fill="#DD2127"/>
<path d="M42.1714 58.1453C44.2657 58.1453 45.9635 56.4475 45.9635 54.3532C45.9635 52.2589 44.2657 50.5611 42.1714 50.5611C40.0771 50.5611 38.3793 52.2589 38.3793 54.3532C38.3793 56.4475 40.0771 58.1453 42.1714 58.1453Z" fill="#DD2127"/>
<path d="M54.8116 45.505C56.9059 45.505 58.6037 43.8072 58.6037 41.7129C58.6037 39.6186 56.9059 37.9208 54.8116 37.9208C52.7173 37.9208 51.0195 39.6186 51.0195 41.7129C51.0195 43.8072 52.7173 45.505 54.8116 45.505Z" fill="#DD2127"/>
<path d="M29.5314 70.7856C31.6257 70.7856 33.3235 69.0879 33.3235 66.9935C33.3235 64.8992 31.6257 63.2014 29.5314 63.2014C27.437 63.2014 25.7393 64.8992 25.7393 66.9935C25.7393 69.0879 27.437 70.7856 29.5314 70.7856Z" fill="#DD2127"/>
<path d="M42.1714 83.426C44.2657 83.426 45.9635 81.7283 45.9635 79.6339C45.9635 77.5396 44.2657 75.8418 42.1714 75.8418C40.0771 75.8418 38.3793 77.5396 38.3793 79.6339C38.3793 81.7283 40.0771 83.426 42.1714 83.426Z" fill="#DD2127"/>
<path d="M54.8116 70.7856C56.9059 70.7856 58.6037 69.0879 58.6037 66.9935C58.6037 64.8992 56.9059 63.2014 54.8116 63.2014C52.7173 63.2014 51.0195 64.8992 51.0195 66.9935C51.0195 69.0879 52.7173 70.7856 54.8116 70.7856Z" fill="#DD2127"/>
<path d="M29.5314 96.0664C31.6257 96.0664 33.3235 94.3686 33.3235 92.2743C33.3235 90.18 31.6257 88.4822 29.5314 88.4822C27.437 88.4822 25.7393 90.18 25.7393 92.2743C25.7393 94.3686 27.437 96.0664 29.5314 96.0664Z" fill="#DD2127"/>
<path d="M42.1714 108.707C44.2657 108.707 45.9635 107.009 45.9635 104.915C45.9635 102.82 44.2657 101.123 42.1714 101.123C40.0771 101.123 38.3793 102.82 38.3793 104.915C38.3793 107.009 40.0771 108.707 42.1714 108.707Z" fill="#DD2127"/>
<path d="M54.8116 96.0664C56.9059 96.0664 58.6037 94.3686 58.6037 92.2743C58.6037 90.18 56.9059 88.4822 54.8116 88.4822C52.7173 88.4822 51.0195 90.18 51.0195 92.2743C51.0195 94.3686 52.7173 96.0664 54.8116 96.0664Z" fill="#DD2127"/>
<path d="M54.8116 121.347C56.9059 121.347 58.6037 119.649 58.6037 117.555C58.6037 115.461 56.9059 113.763 54.8116 113.763C52.7173 113.763 51.0195 115.461 51.0195 117.555C51.0195 119.649 52.7173 121.347 54.8116 121.347Z" fill="#DD2127"/>
<path d="M42.1714 7.58409C44.2657 7.58409 45.9635 5.88631 45.9635 3.79199C45.9635 1.69767 44.2657 -0.000106812 42.1714 -0.000106812C40.0771 -0.000106812 38.3793 1.69767 38.3793 3.79199C38.3793 5.88631 40.0771 7.58409 42.1714 7.58409Z" fill="#DD2127"/>
<path d="M4.25035 45.505C6.34467 45.505 8.04245 43.8072 8.04245 41.7129C8.04245 39.6186 6.34467 37.9208 4.25035 37.9208C2.15603 37.9208 0.458252 39.6186 0.458252 41.7129C0.458252 43.8072 2.15603 45.505 4.25035 45.505Z" fill="#DD2127"/>
<path d="M16.8906 58.1453C18.9849 58.1453 20.6827 56.4475 20.6827 54.3532C20.6827 52.2589 18.9849 50.5611 16.8906 50.5611C14.7963 50.5611 13.0985 52.2589 13.0985 54.3532C13.0985 56.4475 14.7963 58.1453 16.8906 58.1453Z" fill="#DD2127"/>
</mask>
<g mask="url(#mask0_12317_5996)">
<rect x="-3.45886" y="192.231" width="283.225" height="78.6402" transform="rotate(-90 -3.45886 192.231)" fill="#DD2127"/>
</g>
</g>
</svg>
