<svg width="76" height="76" viewBox="0 0 76 76" fill="none" xmlns="http://www.w3.org/2000/svg">
<g filter="url(#filter0_d_13133_834)">
<circle cx="37" cy="38" r="30" fill="white"/>
<circle cx="37" cy="38" r="30.5" stroke="#DD2127" stroke-linecap="round" stroke-linejoin="round"/>
</g>
<path d="M22.8331 22.0669H51.1664C51.635 22.0669 52.0843 22.253 52.4156 22.5843C52.7469 22.9157 52.9331 23.365 52.9331 23.8336V52.1669C52.9331 52.6354 52.7469 53.0848 52.4156 53.4161C52.0843 53.7474 51.635 53.9336 51.1664 53.9336H22.8331C22.3645 53.9336 21.9152 53.7474 21.5839 53.4161C21.2525 53.0848 21.0664 52.6354 21.0664 52.1669V23.8336C21.0664 23.365 21.2525 22.9157 21.5839 22.5843C21.9152 22.253 22.3645 22.0669 22.8331 22.0669ZM24.8738 23.6088C24.6052 23.4294 24.2894 23.3336 23.9664 23.3336C23.5332 23.3336 23.1178 23.5056 22.8115 23.812C22.5052 24.1183 22.3331 24.5337 22.3331 24.9669C22.3331 25.2899 22.4289 25.6057 22.6083 25.8743C22.7878 26.1429 23.0429 26.3523 23.3414 26.4759C23.6398 26.5995 23.9682 26.6319 24.2851 26.5688C24.6019 26.5058 24.8929 26.3503 25.1213 26.1218C25.3498 25.8934 25.5053 25.6024 25.5684 25.2855C25.6314 24.9687 25.599 24.6403 25.4754 24.3418C25.3518 24.0434 25.1424 23.7883 24.8738 23.6088ZM23.059 52.3916C23.3276 52.5711 23.6434 52.6669 23.9664 52.6669C24.3996 52.6669 24.815 52.4948 25.1213 52.1885C25.4277 51.8822 25.5997 51.4667 25.5997 51.0336C25.5997 50.7105 25.5039 50.3947 25.3245 50.1261C25.145 49.8575 24.8899 49.6482 24.5915 49.5246C24.293 49.4009 23.9646 49.3686 23.6478 49.4316C23.3309 49.4946 23.0399 49.6502 22.8115 49.8786C22.583 50.107 22.4275 50.3981 22.3645 50.7149C22.3014 51.0317 22.3338 51.3602 22.4574 51.6586C22.581 51.9571 22.7904 52.2122 23.059 52.3916ZM29.481 49.2528C31.7066 50.7398 34.3231 51.5336 36.9997 51.5336C40.589 51.5336 44.0313 50.1077 46.5693 47.5697C49.1072 45.0317 50.5331 41.5895 50.5331 38.0002C50.5331 35.3236 49.7394 32.7071 48.2523 30.4815C46.7652 28.256 44.6516 26.5214 42.1787 25.4971C39.7058 24.4728 36.9847 24.2047 34.3595 24.7269C31.7343 25.2491 29.3229 26.538 27.4302 28.4307C25.5376 30.3234 24.2486 32.7348 23.7264 35.36C23.2043 37.9852 23.4723 40.7063 24.4966 43.1792C25.5209 45.6521 27.2555 47.7657 29.481 49.2528ZM49.1256 52.3916C49.3942 52.5711 49.71 52.6669 50.0331 52.6669C50.4663 52.6669 50.8817 52.4948 51.188 52.1885C51.4943 51.8822 51.6664 51.4667 51.6664 51.0336C51.6664 50.7105 51.5706 50.3947 51.3911 50.1261C51.2117 49.8575 50.9566 49.6482 50.6581 49.5246C50.3597 49.4009 50.0313 49.3686 49.7144 49.4316C49.3976 49.4946 49.1066 49.6502 48.8781 49.8786C48.6497 50.107 48.4941 50.3981 48.4311 50.7149C48.3681 51.0317 48.4004 51.3602 48.5241 51.6586C48.6477 51.9571 48.857 52.2122 49.1256 52.3916ZM49.1256 26.325C49.3942 26.5044 49.71 26.6002 50.0331 26.6002C50.4663 26.6002 50.8817 26.4281 51.188 26.1218C51.4943 25.8155 51.6664 25.4001 51.6664 24.9669C51.6664 24.6439 51.5706 24.3281 51.3911 24.0595C51.2117 23.7909 50.9566 23.5815 50.6581 23.4579C50.3597 23.3343 50.0313 23.3019 49.7144 23.3649C49.3976 23.428 49.1066 23.5835 48.8781 23.812C48.6497 24.0404 48.4941 24.3314 48.4311 24.6482C48.3681 24.9651 48.4004 25.2935 48.5241 25.5919C48.6477 25.8904 48.857 26.1455 49.1256 26.325Z" stroke="#DD2127"/>
<path d="M51.1667 21H22.8333C22.0822 21.0009 21.362 21.2997 20.8309 21.8309C20.2997 22.362 20.0009 23.0822 20 23.8333V52.1667C20.0009 52.9178 20.2997 53.638 20.8309 54.1691C21.362 54.7003 22.0822 54.9991 22.8333 55H51.1667C51.9178 54.9991 52.638 54.7003 53.1691 54.1691C53.7003 53.638 53.9991 52.9178 54 52.1667V23.8333C53.9991 23.0822 53.7003 22.362 53.1691 21.8309C52.638 21.2997 51.9178 21.0009 51.1667 21V21ZM52.8667 52.1667C52.8667 52.6175 52.6876 53.0499 52.3687 53.3687C52.0499 53.6876 51.6175 53.8667 51.1667 53.8667H22.8333C22.3825 53.8667 21.9501 53.6876 21.6313 53.3687C21.3124 53.0499 21.1333 52.6175 21.1333 52.1667V23.8333C21.1333 23.3825 21.3124 22.9501 21.6313 22.6313C21.9501 22.3124 22.3825 22.1333 22.8333 22.1333H51.1667C51.6175 22.1333 52.0499 22.3124 52.3687 22.6313C52.6876 22.9501 52.8667 23.3825 52.8667 23.8333V52.1667Z" fill="#DD2127"/>
<path d="M28.5008 37.6833H45.5008C46.018 37.6833 46.5139 37.4779 46.8796 37.1122C47.2453 36.7465 47.4508 36.2505 47.4508 35.7333C47.4508 35.2162 47.2453 34.7202 46.8796 34.3545C46.5139 33.9888 46.018 33.7833 45.5008 33.7833H28.5008C27.9836 33.7833 27.4876 33.9888 27.1219 34.3545C26.7562 34.7202 26.5508 35.2162 26.5508 35.7333C26.5508 36.2505 26.7562 36.7465 27.1219 37.1122C27.4876 37.4779 27.9836 37.6833 28.5008 37.6833ZM28.5008 35.4167H45.5008C45.5848 35.4167 45.6653 35.45 45.7247 35.5094C45.7841 35.5688 45.8174 35.6493 45.8174 35.7333C45.8174 35.8173 45.7841 35.8979 45.7247 35.9573C45.6653 36.0166 45.5848 36.05 45.5008 36.05H28.5008C28.4168 36.05 28.3362 36.0166 28.2769 35.9573C28.2175 35.8979 28.1841 35.8173 28.1841 35.7333C28.1841 35.6493 28.2175 35.5688 28.2769 35.5094C28.3362 35.45 28.4168 35.4167 28.5008 35.4167ZM30.2008 33.15H43.8008C44.318 33.15 44.8139 32.9446 45.1796 32.5789C45.5453 32.2132 45.7508 31.7172 45.7508 31.2C45.7508 30.6828 45.5453 30.1868 45.1796 29.8211C44.8139 29.4554 44.318 29.25 43.8008 29.25H30.2008C29.6836 29.25 29.1876 29.4554 28.8219 29.8211C28.4562 30.1868 28.2508 30.6828 28.2508 31.2C28.2508 31.7172 28.4562 32.2132 28.8219 32.5789C29.1876 32.9446 29.6836 33.15 30.2008 33.15ZM30.2008 30.8833H43.8008C43.8848 30.8833 43.9653 30.9167 44.0247 30.9761C44.0841 31.0355 44.1174 31.116 44.1174 31.2C44.1174 31.284 44.0841 31.3645 44.0247 31.4239C43.9653 31.4833 43.8848 31.5167 43.8008 31.5167H30.2008C30.1168 31.5167 30.0362 31.4833 29.9769 31.4239C29.9175 31.3645 29.8841 31.284 29.8841 31.2C29.8841 31.116 29.9175 31.0355 29.9769 30.9761C30.0362 30.9167 30.1168 30.8833 30.2008 30.8833ZM45.5008 38.3167H28.5008C27.9836 38.3167 27.4876 38.5221 27.1219 38.8878C26.7562 39.2535 26.5508 39.7495 26.5508 40.2667C26.5508 40.7838 26.7562 41.2798 27.1219 41.6455C27.4876 42.0112 27.9836 42.2167 28.5008 42.2167H45.5008C46.018 42.2167 46.5139 42.0112 46.8796 41.6455C47.2453 41.2798 47.4508 40.7838 47.4508 40.2667C47.4508 39.7495 47.2453 39.2535 46.8796 38.8878C46.5139 38.5221 46.018 38.3167 45.5008 38.3167ZM45.5008 40.5833H28.5008C28.4168 40.5833 28.3362 40.55 28.2769 40.4906C28.2175 40.4312 28.1841 40.3507 28.1841 40.2667C28.1841 40.1827 28.2175 40.1021 28.2769 40.0427C28.3362 39.9834 28.4168 39.95 28.5008 39.95H45.5008C45.5848 39.95 45.6653 39.9834 45.7247 40.0427C45.7841 40.1021 45.8174 40.1827 45.8174 40.2667C45.8174 40.3507 45.7841 40.4312 45.7247 40.4906C45.6653 40.55 45.5848 40.5833 45.5008 40.5833ZM43.8008 42.85H30.2008C29.6836 42.85 29.1876 43.0554 28.8219 43.4211C28.4562 43.7868 28.2508 44.2828 28.2508 44.8C28.2508 45.3172 28.4562 45.8132 28.8219 46.1789C29.1876 46.5446 29.6836 46.75 30.2008 46.75H43.8008C44.318 46.75 44.8139 46.5446 45.1796 46.1789C45.5453 45.8132 45.7508 45.3172 45.7508 44.8C45.7508 44.2828 45.5453 43.7868 45.1796 43.4211C44.8139 43.0554 44.318 42.85 43.8008 42.85ZM43.8008 45.1167H30.2008C30.1168 45.1167 30.0363 45.0833 29.9769 45.0239C29.9175 44.9645 29.8841 44.884 29.8841 44.8C29.8841 44.716 29.9175 44.6355 29.9769 44.5761C30.0362 44.5167 30.1168 44.4833 30.2008 44.4833H43.8008C43.8848 44.4833 43.9653 44.5167 44.0247 44.5761C44.0841 44.6355 44.1174 44.716 44.1174 44.8C44.1174 44.884 44.0841 44.9645 44.0247 45.0239C43.9653 45.0833 43.8848 45.1167 43.8008 45.1167Z" stroke="#DD2127" stroke-width="0.5"/>
<defs>
<filter id="filter0_d_13133_834" x="0" y="0" width="76" height="76" filterUnits="userSpaceOnUse" color-interpolation-filters="sRGB">
<feFlood flood-opacity="0" result="BackgroundImageFix"/>
<feColorMatrix in="SourceAlpha" type="matrix" values="0 0 0 0 0 0 0 0 0 0 0 0 0 0 0 0 0 0 127 0" result="hardAlpha"/>
<feMorphology radius="3" operator="erode" in="SourceAlpha" result="effect1_dropShadow_13133_834"/>
<feOffset dx="1"/>
<feGaussianBlur stdDeviation="5"/>
<feColorMatrix type="matrix" values="0 0 0 0 0 0 0 0 0 0 0 0 0 0 0 0 0 0 0.25 0"/>
<feBlend mode="darken" in2="BackgroundImageFix" result="effect1_dropShadow_13133_834"/>
<feBlend mode="normal" in="SourceGraphic" in2="effect1_dropShadow_13133_834" result="shape"/>
</filter>
</defs>
</svg>
