<svg width="76" height="76" viewBox="0 0 76 76" fill="none" xmlns="http://www.w3.org/2000/svg">
<g filter="url(#filter0_d_13133_861)">
<circle cx="37" cy="38" r="30" fill="white"/>
<circle cx="37" cy="38" r="30.5" stroke="#DD2127" stroke-linecap="round" stroke-linejoin="round"/>
</g>
<path d="M41.5172 53.5581H32.4823C31.4149 53.5581 30.5463 52.4771 30.5463 51.1488V47.4176C30.5466 47.2571 30.5081 47.1002 30.4358 46.9673C30.3636 46.8344 30.2608 46.7316 30.141 46.6723L27.7442 45.4789C26.664 44.9467 25.7378 44.0218 25.0865 42.8247C24.4351 41.6276 24.0888 40.2139 24.0928 38.7682V31.8744C24.0928 30.5461 24.9614 29.4651 26.0288 29.4651H47.9707C49.0381 29.4651 49.9067 30.5461 49.9067 31.8744V38.7682C49.9107 40.2139 49.5644 41.6276 48.913 42.8247C48.2617 44.0218 47.3355 44.9467 46.2553 45.4789L43.8585 46.6723C43.7388 46.7318 43.6361 46.8346 43.5639 46.9675C43.4916 47.1004 43.4531 47.2572 43.4532 47.4176V51.1488C43.4532 52.4771 42.5846 53.5581 41.5172 53.5581ZM26.0288 31.0713C25.8577 31.0713 25.6935 31.1559 25.5725 31.3065C25.4515 31.4571 25.3835 31.6614 25.3835 31.8744V38.7682C25.3835 41.0795 26.4987 43.129 28.223 43.9884L30.6198 45.1818C31.3594 45.5496 31.837 46.4266 31.837 47.4176V51.1488C31.837 51.3618 31.905 51.5661 32.026 51.7167C32.147 51.8673 32.3112 51.9519 32.4823 51.9519H41.5172C41.6883 51.9519 41.8525 51.8673 41.9735 51.7167C42.0945 51.5661 42.1625 51.3618 42.1625 51.1488V47.4176C42.1625 46.4266 42.6401 45.548 43.3784 45.1802L45.7752 43.9868C46.6152 43.5726 47.3355 42.8529 47.842 41.9218C48.3485 40.9906 48.6178 39.8911 48.6147 38.7666V31.8744C48.6147 31.6614 48.5467 31.4571 48.4257 31.3065C48.3047 31.1559 48.1405 31.0713 47.9694 31.0713H26.0288Z" fill="#DD2127"/>
<path d="M34.9733 49.2559C34.87 49.256 34.7682 49.2288 34.6768 49.1767C34.5853 49.1246 34.507 49.0491 34.4485 48.9568C34.39 48.8645 34.3531 48.7582 34.3411 48.647C34.329 48.5358 34.3422 48.4231 34.3794 48.3186L35.7466 44.4579L33.9661 43.7178C33.8199 43.6571 33.6996 43.5402 33.628 43.3894C33.5565 43.2386 33.5387 43.0645 33.5782 42.9004L35.0356 36.8634C35.0583 36.7696 35.099 36.6821 35.155 36.6065C35.2109 36.531 35.281 36.469 35.3606 36.4248C35.4402 36.3806 35.5274 36.355 35.6167 36.3499C35.706 36.3447 35.7953 36.36 35.8788 36.3947L40.035 38.1231C40.1208 38.1596 40.1983 38.2156 40.2622 38.2875C40.3261 38.3594 40.375 38.4454 40.4054 38.5396C40.4359 38.6339 40.4471 38.7341 40.4385 38.8335C40.4299 38.9329 40.4016 39.0291 40.3555 39.1155L38.7747 42.0279L39.8557 42.4773C39.9524 42.5181 40.0385 42.5838 40.1065 42.6688C40.1745 42.7538 40.2224 42.8555 40.2459 42.9651C40.2695 43.0746 40.268 43.1888 40.2417 43.2976C40.2153 43.4064 40.1649 43.5066 40.0948 43.5896L35.4413 49.0367C35.3811 49.1057 35.3085 49.1606 35.2281 49.1983C35.1476 49.236 35.0609 49.2556 34.9733 49.2559V49.2559ZM34.953 42.6523L36.7958 43.4187C36.8738 43.451 36.9451 43.4998 37.0057 43.5621C37.0663 43.6244 37.1149 43.699 37.1488 43.7817C37.1828 43.8645 37.2013 43.9536 37.2033 44.0441C37.2054 44.1346 37.1909 44.2246 37.1608 44.3091L36.7487 45.4724L38.5216 43.398L37.6174 43.0217C37.5316 42.9853 37.4541 42.9292 37.3902 42.8573C37.3262 42.7855 37.2774 42.6995 37.247 42.6052C37.2165 42.511 37.2052 42.4108 37.2138 42.3114C37.2225 42.212 37.2508 42.1157 37.2969 42.0293L38.8777 39.1169L36.0861 37.9564L34.953 42.6523V42.6523Z" fill="#DD2127"/>
<path d="M33.6655 31.186H31.5144C31.3717 31.186 31.2349 31.1019 31.1341 30.952C31.0332 30.8022 30.9766 30.599 30.9766 30.387V22.397C30.9766 21.0755 31.7004 20 32.5899 20C33.4794 20 34.2033 21.0755 34.2033 22.397V30.387C34.2033 30.599 34.1466 30.8022 34.0458 30.952C33.9449 31.1019 33.8081 31.186 33.6655 31.186ZM32.0521 29.588H33.1277V22.397C33.1277 22.1851 33.0711 21.9819 32.9702 21.832C32.8694 21.6822 32.7326 21.598 32.5899 21.598C32.4473 21.598 32.3105 21.6822 32.2097 21.832C32.1088 21.9819 32.0521 22.1851 32.0521 22.397V29.588ZM43.3457 31.186H41.1946C41.052 31.186 40.9152 31.1019 40.8143 30.952C40.7135 30.8022 40.6568 30.599 40.6568 30.387V22.397C40.6568 21.0755 41.3807 20 42.2702 20C43.1597 20 43.8835 21.0755 43.8835 22.397V30.387C43.8835 30.599 43.8269 30.8022 43.726 30.952C43.6252 31.1019 43.4884 31.186 43.3457 31.186ZM41.7324 29.588H42.808V22.397C42.808 22.1851 42.7513 21.9819 42.6504 21.832C42.5496 21.6822 42.4128 21.598 42.2702 21.598C42.1275 21.598 41.9907 21.6822 41.8899 21.832C41.789 21.9819 41.7324 22.1851 41.7324 22.397V29.588Z" fill="#DD2127"/>
<rect x="31.8369" y="53.5581" width="10.3256" height="3.44186" rx="1" stroke="#DD2127" stroke-width="1.5"/>
<defs>
<filter id="filter0_d_13133_861" x="0" y="0" width="76" height="76" filterUnits="userSpaceOnUse" color-interpolation-filters="sRGB">
<feFlood flood-opacity="0" result="BackgroundImageFix"/>
<feColorMatrix in="SourceAlpha" type="matrix" values="0 0 0 0 0 0 0 0 0 0 0 0 0 0 0 0 0 0 127 0" result="hardAlpha"/>
<feMorphology radius="3" operator="erode" in="SourceAlpha" result="effect1_dropShadow_13133_861"/>
<feOffset dx="1"/>
<feGaussianBlur stdDeviation="5"/>
<feColorMatrix type="matrix" values="0 0 0 0 0 0 0 0 0 0 0 0 0 0 0 0 0 0 0.25 0"/>
<feBlend mode="darken" in2="BackgroundImageFix" result="effect1_dropShadow_13133_861"/>
<feBlend mode="normal" in="SourceGraphic" in2="effect1_dropShadow_13133_861" result="shape"/>
</filter>
</defs>
</svg>
