<svg width="76" height="76" viewBox="0 0 76 76" fill="none" xmlns="http://www.w3.org/2000/svg">
<g filter="url(#filter0_d_13133_893)">
<circle cx="37" cy="38" r="30" fill="white"/>
<circle cx="37" cy="38" r="30.5" stroke="#DD2127" stroke-linecap="round" stroke-linejoin="round"/>
</g>
<path d="M53.1658 34.2968L48.9179 30.6689V24.142C48.9179 22.4076 47.5103 21 45.7759 21C44.0416 21 42.634 22.4076 42.634 24.142V25.3233L39.0479 22.2735C37.9839 21.3603 36.4171 21.3603 35.3446 22.2735L21.2351 34.2968C19.7605 35.5536 19.5846 37.7571 20.8246 39.2401C20.8246 39.2401 20.8246 39.2401 20.8246 39.2485C21.4195 39.9607 22.2741 40.4047 23.2041 40.4801C23.4554 40.5053 23.6984 40.4969 23.9498 40.455V50.7941C23.9498 53.1066 25.8685 55.0002 28.181 55.0002H46.1949C48.5073 55.0002 50.426 53.0983 50.426 50.7941V40.4634C50.5768 40.4885 50.7277 40.4969 50.8785 40.4969C50.9706 40.4969 51.0628 40.4969 51.155 40.4885C52.085 40.4131 52.948 39.9691 53.5512 39.2569C53.5512 39.2569 53.5596 39.2569 53.5596 39.2485C54.8164 37.7655 54.6321 35.5619 53.1658 34.2968ZM44.3097 24.142C44.3097 23.3292 44.9632 22.6757 45.7759 22.6757C46.5886 22.6757 47.2422 23.3376 47.2422 24.142V29.2361L44.3097 26.7561V24.142ZM48.7503 50.8025C48.7503 52.185 47.5773 53.3329 46.1949 53.3329H28.181C26.7985 53.3329 25.6255 52.185 25.6255 50.8025V39.7512C25.6841 39.7261 25.7344 39.6926 25.7763 39.6507L36.4171 30.5767C36.8528 30.1997 37.5063 30.1997 37.942 30.5767L48.5995 39.6507C48.6414 39.6926 48.6917 39.7261 48.7503 39.7512V50.8025ZM52.2693 38.1677C51.6074 38.9469 50.4428 39.039 49.672 38.3771L39.0396 29.3031C37.9755 28.3899 36.4003 28.3899 35.3362 29.3031L24.7039 38.3771C23.933 39.039 22.7684 38.9469 22.1065 38.176C21.453 37.4052 21.5451 36.2406 22.316 35.5871L36.4255 23.5555C36.8611 23.1784 37.5063 23.1784 37.9504 23.5555L52.0598 35.5703C52.8307 36.2322 52.9228 37.3968 52.2693 38.1677Z" fill="#DD2127"/>
<path d="M42.2991 40.5137V38.8128C42.3075 37.4304 41.7545 36.0982 40.7658 35.1263C39.8191 34.1795 38.5288 33.6516 37.1882 33.66C34.373 33.66 32.0773 35.9725 32.0773 38.8128V40.5137C31.1221 40.8572 30.4854 41.7537 30.4854 42.7675V48.9928C30.4854 50.3166 31.5578 51.3974 32.8816 51.4058H41.4948C42.8186 51.3974 43.891 50.3166 43.891 48.9928V42.7675C43.891 41.7537 43.2543 40.8572 42.2991 40.5137ZM37.1966 35.3357C38.0931 35.3273 38.9561 35.6792 39.5928 36.316C40.2548 36.9779 40.6318 37.8744 40.6234 38.8128V40.3461H33.753V38.8128C33.7446 36.9025 35.2863 35.3441 37.1966 35.3357ZM42.2153 48.9257C42.2153 49.3195 41.8969 49.6463 41.4948 49.6463H32.8816C32.4878 49.6463 32.1611 49.3279 32.1611 48.9257V42.7424C32.1611 42.3486 32.4794 42.0218 32.8816 42.0218H41.4948C41.8886 42.0218 42.2153 42.3402 42.2153 42.7424V48.9257Z" fill="#DD2127"/>
<defs>
<filter id="filter0_d_13133_893" x="0" y="0" width="76" height="76" filterUnits="userSpaceOnUse" color-interpolation-filters="sRGB">
<feFlood flood-opacity="0" result="BackgroundImageFix"/>
<feColorMatrix in="SourceAlpha" type="matrix" values="0 0 0 0 0 0 0 0 0 0 0 0 0 0 0 0 0 0 127 0" result="hardAlpha"/>
<feMorphology radius="3" operator="erode" in="SourceAlpha" result="effect1_dropShadow_13133_893"/>
<feOffset dx="1"/>
<feGaussianBlur stdDeviation="5"/>
<feColorMatrix type="matrix" values="0 0 0 0 0 0 0 0 0 0 0 0 0 0 0 0 0 0 0.25 0"/>
<feBlend mode="darken" in2="BackgroundImageFix" result="effect1_dropShadow_13133_893"/>
<feBlend mode="normal" in="SourceGraphic" in2="effect1_dropShadow_13133_893" result="shape"/>
</filter>
</defs>
</svg>
