<svg width="76" height="76" viewBox="0 0 76 76" fill="none" xmlns="http://www.w3.org/2000/svg">
<g filter="url(#filter0_d_13839_2805)">
<circle cx="37" cy="38" r="30" fill="white"/>
<circle cx="37" cy="38" r="30.5" stroke="#DD2127" stroke-linecap="round" stroke-linejoin="round"/>
</g>
<rect x="27.1152" y="18.8846" width="26.6923" height="34.7692" rx="3.5" stroke="#DD2127"/>
<path d="M48.5391 26.4615L49.6929 26.4615" stroke="#DD2127" stroke-linecap="round"/>
<path d="M48.5391 32.2308L49.6929 32.2308" stroke="#DD2127" stroke-linecap="round"/>
<path d="M48.5391 38L49.6929 38" stroke="#DD2127" stroke-linecap="round"/>
<path d="M48.5391 43.7692L49.6929 43.7692" stroke="#DD2127" stroke-linecap="round"/>
<rect x="21.5" y="21.1923" width="26.6923" height="34.7692" rx="3.5" fill="white" stroke="#DD2127"/>
<path d="M30 29L43 29" stroke="#DD2127" stroke-linecap="round"/>
<path d="M26.908 28.0185L26.2645 28.6635L26.017 28.416C26.0036 28.4003 25.987 28.3876 25.9684 28.3786C25.9498 28.3696 25.9295 28.3645 25.9089 28.3637C25.8882 28.3629 25.8676 28.3664 25.8484 28.3739C25.8291 28.3815 25.8116 28.3929 25.797 28.4075C25.7824 28.4222 25.7709 28.4396 25.7634 28.4589C25.7559 28.4781 25.7524 28.4987 25.7532 28.5194C25.754 28.54 25.759 28.5603 25.768 28.5789C25.777 28.5975 25.7898 28.6141 25.8055 28.6275L26.158 28.9815C26.172 28.9954 26.1886 29.0064 26.2069 29.0139C26.2252 29.0214 26.2448 29.0251 26.2645 29.025C26.3039 29.0249 26.3416 29.0092 26.3695 28.9815L27.1195 28.2315C27.1336 28.2176 27.1447 28.201 27.1523 28.1827C27.1599 28.1644 27.1639 28.1448 27.1639 28.125C27.1639 28.1052 27.1599 28.0856 27.1523 28.0673C27.1447 28.0491 27.1336 28.0325 27.1195 28.0185C27.0914 27.9906 27.0534 27.9749 27.0138 27.9749C26.9741 27.9749 26.9361 27.9906 26.908 28.0185ZM26.5 27C26.2033 27 25.9133 27.088 25.6666 27.2528C25.42 27.4176 25.2277 27.6519 25.1142 27.926C25.0006 28.2001 24.9709 28.5017 25.0288 28.7927C25.0867 29.0836 25.2296 29.3509 25.4393 29.5607C25.6491 29.7705 25.9164 29.9133 26.2074 29.9712C26.4983 30.0291 26.7999 29.9994 27.074 29.8858C27.3481 29.7723 27.5824 29.5801 27.7472 29.3334C27.912 29.0867 28 28.7967 28 28.5C28 28.303 27.9612 28.108 27.8858 27.926C27.8104 27.744 27.6999 27.5787 27.5607 27.4394C27.4214 27.3001 27.256 27.1896 27.074 27.1142C26.892 27.0388 26.697 27 26.5 27ZM26.5 29.7C26.2627 29.7 26.0307 29.6297 25.8333 29.4978C25.636 29.3659 25.4822 29.1785 25.3913 28.9593C25.3005 28.74 25.2768 28.4987 25.3231 28.2659C25.3694 28.0331 25.4836 27.8193 25.6515 27.6515C25.8193 27.4837 26.0331 27.3694 26.2659 27.3231C26.4987 27.2768 26.7399 27.3005 26.9592 27.3914C27.1785 27.4822 27.3659 27.636 27.4978 27.8333C27.6296 28.0307 27.7 28.2627 27.7 28.5C27.7 28.8183 27.5736 29.1235 27.3485 29.3486C27.1235 29.5736 26.8183 29.7 26.5 29.7Z" fill="#DD2127"/>
<path d="M30 35L43 35" stroke="#DD2127" stroke-linecap="round"/>
<path d="M26.908 34.0185L26.2645 34.6635L26.017 34.416C26.0036 34.4003 25.987 34.3876 25.9684 34.3786C25.9498 34.3696 25.9295 34.3645 25.9089 34.3637C25.8882 34.3629 25.8676 34.3664 25.8484 34.3739C25.8291 34.3815 25.8116 34.3929 25.797 34.4075C25.7824 34.4222 25.7709 34.4396 25.7634 34.4589C25.7559 34.4781 25.7524 34.4987 25.7532 34.5194C25.754 34.54 25.759 34.5603 25.768 34.5789C25.777 34.5975 25.7898 34.6141 25.8055 34.6275L26.158 34.9815C26.172 34.9954 26.1886 35.0064 26.2069 35.0139C26.2252 35.0214 26.2448 35.0251 26.2645 35.025C26.3039 35.0249 26.3416 35.0092 26.3695 34.9815L27.1195 34.2315C27.1336 34.2176 27.1447 34.201 27.1523 34.1827C27.1599 34.1644 27.1639 34.1448 27.1639 34.125C27.1639 34.1052 27.1599 34.0856 27.1523 34.0673C27.1447 34.0491 27.1336 34.0325 27.1195 34.0185C27.0914 33.9906 27.0534 33.9749 27.0138 33.9749C26.9741 33.9749 26.9361 33.9906 26.908 34.0185ZM26.5 33C26.2033 33 25.9133 33.088 25.6666 33.2528C25.42 33.4176 25.2277 33.6519 25.1142 33.926C25.0006 34.2001 24.9709 34.5017 25.0288 34.7927C25.0867 35.0836 25.2296 35.3509 25.4393 35.5607C25.6491 35.7705 25.9164 35.9133 26.2074 35.9712C26.4983 36.0291 26.7999 35.9994 27.074 35.8858C27.3481 35.7723 27.5824 35.5801 27.7472 35.3334C27.912 35.0867 28 34.7967 28 34.5C28 34.303 27.9612 34.108 27.8858 33.926C27.8104 33.744 27.6999 33.5787 27.5607 33.4394C27.4214 33.3001 27.256 33.1896 27.074 33.1142C26.892 33.0388 26.697 33 26.5 33ZM26.5 35.7C26.2627 35.7 26.0307 35.6297 25.8333 35.4978C25.636 35.3659 25.4822 35.1785 25.3913 34.9593C25.3005 34.74 25.2768 34.4987 25.3231 34.2659C25.3694 34.0331 25.4836 33.8193 25.6515 33.6515C25.8193 33.4837 26.0331 33.3694 26.2659 33.3231C26.4987 33.2768 26.7399 33.3005 26.9592 33.3914C27.1785 33.4822 27.3659 33.636 27.4978 33.8333C27.6296 34.0307 27.7 34.2627 27.7 34.5C27.7 34.8183 27.5736 35.1235 27.3485 35.3486C27.1235 35.5736 26.8183 35.7 26.5 35.7Z" fill="#DD2127"/>
<path d="M30 41L43 41" stroke="#DD2127" stroke-linecap="round"/>
<path d="M26.908 40.0185L26.2645 40.6635L26.017 40.416C26.0036 40.4003 25.987 40.3876 25.9684 40.3786C25.9498 40.3696 25.9295 40.3645 25.9089 40.3637C25.8882 40.3629 25.8676 40.3664 25.8484 40.3739C25.8291 40.3815 25.8116 40.3929 25.797 40.4075C25.7824 40.4222 25.7709 40.4396 25.7634 40.4589C25.7559 40.4781 25.7524 40.4987 25.7532 40.5194C25.754 40.54 25.759 40.5603 25.768 40.5789C25.777 40.5975 25.7898 40.6141 25.8055 40.6275L26.158 40.9815C26.172 40.9954 26.1886 41.0064 26.2069 41.0139C26.2252 41.0214 26.2448 41.0251 26.2645 41.025C26.3039 41.0249 26.3416 41.0092 26.3695 40.9815L27.1195 40.2315C27.1336 40.2176 27.1447 40.201 27.1523 40.1827C27.1599 40.1644 27.1639 40.1448 27.1639 40.125C27.1639 40.1052 27.1599 40.0856 27.1523 40.0673C27.1447 40.0491 27.1336 40.0325 27.1195 40.0185C27.0914 39.9906 27.0534 39.9749 27.0138 39.9749C26.9741 39.9749 26.9361 39.9906 26.908 40.0185ZM26.5 39C26.2033 39 25.9133 39.088 25.6666 39.2528C25.42 39.4176 25.2277 39.6519 25.1142 39.926C25.0006 40.2001 24.9709 40.5017 25.0288 40.7927C25.0867 41.0836 25.2296 41.3509 25.4393 41.5607C25.6491 41.7705 25.9164 41.9133 26.2074 41.9712C26.4983 42.0291 26.7999 41.9994 27.074 41.8858C27.3481 41.7723 27.5824 41.5801 27.7472 41.3334C27.912 41.0867 28 40.7967 28 40.5C28 40.303 27.9612 40.108 27.8858 39.926C27.8104 39.744 27.6999 39.5787 27.5607 39.4394C27.4214 39.3001 27.256 39.1896 27.074 39.1142C26.892 39.0388 26.697 39 26.5 39ZM26.5 41.7C26.2627 41.7 26.0307 41.6297 25.8333 41.4978C25.636 41.3659 25.4822 41.1785 25.3913 40.9593C25.3005 40.74 25.2768 40.4987 25.3231 40.2659C25.3694 40.0331 25.4836 39.8193 25.6515 39.6515C25.8193 39.4837 26.0331 39.3694 26.2659 39.3231C26.4987 39.2768 26.7399 39.3005 26.9592 39.3914C27.1785 39.4822 27.3659 39.636 27.4978 39.8333C27.6296 40.0307 27.7 40.2627 27.7 40.5C27.7 40.8183 27.5736 41.1235 27.3485 41.3486C27.1235 41.5736 26.8183 41.7 26.5 41.7Z" fill="#DD2127"/>
<path d="M30.8392 46V51H30V46H30.8392Z" fill="#DD2127"/>
<path d="M35.6361 47.4892C35.6361 47.7434 35.5748 47.9832 35.4521 48.2087C35.3294 48.4341 35.1331 48.6187 34.8632 48.7626C34.5933 48.9017 34.2473 48.9713 33.8253 48.9713H32.8978V51H32.0587V46H33.8253C34.2179 46 34.5491 46.0672 34.819 46.2015C35.0938 46.331 35.2975 46.5084 35.43 46.7338C35.5674 46.9593 35.6361 47.2111 35.6361 47.4892ZM33.8253 48.3022C34.1443 48.3022 34.3823 48.2326 34.5393 48.0936C34.6963 47.9497 34.7749 47.7482 34.7749 47.4892C34.7749 46.9425 34.4583 46.6691 33.8253 46.6691H32.8978V48.3022H33.8253Z" fill="#DD2127"/>
<path d="M37.3934 46V51H36.5542V46H37.3934Z" fill="#DD2127"/>
<path d="M40.2838 46C40.8285 46 41.3045 46.1031 41.7118 46.3094C42.124 46.5108 42.4406 46.8034 42.6614 47.1871C42.8871 47.566 43 48.0096 43 48.518C43 49.0264 42.8871 49.4677 42.6614 49.8418C42.4406 50.2159 42.124 50.5036 41.7118 50.7051C41.3045 50.9017 40.8285 51 40.2838 51H38.6129V46H40.2838ZM40.2838 50.331C40.8825 50.331 41.3413 50.1727 41.6603 49.8561C41.9793 49.5396 42.1388 49.0936 42.1388 48.518C42.1388 47.9377 41.9793 47.4844 41.6603 47.1583C41.3413 46.8322 40.8825 46.6691 40.2838 46.6691H39.452V50.331H40.2838Z" fill="#DD2127"/>
<defs>
<filter id="filter0_d_13839_2805" x="0" y="-1.52588e-05" width="76" height="76" filterUnits="userSpaceOnUse" color-interpolation-filters="sRGB">
<feFlood flood-opacity="0" result="BackgroundImageFix"/>
<feColorMatrix in="SourceAlpha" type="matrix" values="0 0 0 0 0 0 0 0 0 0 0 0 0 0 0 0 0 0 127 0" result="hardAlpha"/>
<feMorphology radius="3" operator="erode" in="SourceAlpha" result="effect1_dropShadow_13839_2805"/>
<feOffset dx="1"/>
<feGaussianBlur stdDeviation="5"/>
<feColorMatrix type="matrix" values="0 0 0 0 0 0 0 0 0 0 0 0 0 0 0 0 0 0 0.25 0"/>
<feBlend mode="darken" in2="BackgroundImageFix" result="effect1_dropShadow_13839_2805"/>
<feBlend mode="normal" in="SourceGraphic" in2="effect1_dropShadow_13839_2805" result="shape"/>
</filter>
</defs>
</svg>
