<svg width="76" height="76" viewBox="0 0 76 76" fill="none" xmlns="http://www.w3.org/2000/svg">
<g filter="url(#filter0_d_13135_901)">
<circle cx="37" cy="38" r="30" fill="white"/>
<circle cx="37" cy="38" r="30.5" stroke="#DD2127" stroke-linecap="round" stroke-linejoin="round"/>
</g>
<path d="M24.1112 36.1814H27.5846V34.0175C27.5846 32.8114 28.5632 31.8328 29.7692 31.8328H31.4508V30.2271C31.4508 28.9384 32.4983 27.884 33.7939 27.884H35.0275V25.2445C35.0275 24.9481 34.7863 24.7069 34.4831 24.7069H32.0503C30.803 24.7069 29.7348 23.7835 29.6107 22.5981C29.466 21.1922 30.5687 20 31.9539 20H42.2361C43.5937 20 44.6688 21.1371 44.5861 22.5016C44.5103 23.7421 43.4421 24.7069 42.1465 24.7069H39.7C39.4036 24.7069 39.1624 24.9481 39.1624 25.2445V27.8771H40.396C41.6848 27.8771 42.7392 28.9246 42.7392 30.2202V31.8259H44.4207C45.6267 31.8259 46.6053 32.8045 46.6053 34.0106V49.5924H47.2325C48.1973 49.5924 48.976 48.8137 48.976 47.8488V34.3414C48.976 32.584 50.4026 31.1575 52.16 31.1575H53.2833C53.683 31.1575 54 31.4814 54 31.8742C54 32.267 53.6761 32.5909 53.2833 32.5909H52.16C51.1951 32.5909 50.4164 33.3697 50.4164 34.3345V47.8488C50.4164 49.6062 48.9898 51.0328 47.2325 51.0328H46.6053V52.3559C46.6053 53.9686 45.2959 55.278 43.6902 55.278H30.5066C28.9009 55.278 27.5915 53.9686 27.5915 52.3559V50.9225H24.1181C22.0162 50.9225 20.3002 49.2134 20.3002 47.1046V39.9993C20.2933 37.8974 22.0093 36.1814 24.1112 36.1814ZM39.7069 23.2666H42.1534C42.6771 23.2666 43.1251 22.8807 43.1527 22.4121C43.1871 21.8676 42.7667 21.4403 42.243 21.4403H31.9608C31.4301 21.4403 30.9959 21.8952 31.0511 22.4534C31.0993 22.9082 31.5404 23.2666 32.0572 23.2666H34.4968C35.5926 23.2666 36.4816 24.1556 36.4816 25.2445V27.8771H37.7359V25.2445C37.7221 24.1556 38.6111 23.2666 39.7069 23.2666ZM41.2988 30.2271C41.2988 29.7309 40.8922 29.3243 40.396 29.3243H33.7939C33.2977 29.3243 32.8911 29.7309 32.8911 30.2271V31.8328H41.2988V30.2271ZM29.0249 52.3697C29.0249 53.1829 29.6865 53.8514 30.4997 53.8514H43.6902C44.5034 53.8514 45.165 53.1898 45.165 52.3697V34.0175C45.165 33.604 44.8273 33.2732 44.4207 33.2732H29.7692C29.3557 33.2732 29.0249 33.604 29.0249 34.0175V52.3697ZM21.7337 47.1183C21.7337 48.4277 22.8019 49.4959 24.1112 49.4959H27.5846V37.6218H24.1112C22.8019 37.6218 21.7337 38.6899 21.7337 39.9993V47.1183Z" fill="#DD2127"/>
<path d="M31.3547 42.8389H33.4635C33.5324 41.9981 33.7322 41.2263 34.0217 40.5647L31.9611 38.5041C31.6786 38.2215 31.6786 37.7667 31.9611 37.4841C32.2437 37.2016 32.6985 37.2016 32.9811 37.4841L34.8073 39.3035C35.4276 38.573 36.2201 38.1388 37.0953 38.1388C37.9706 38.1388 38.7631 38.573 39.3833 39.3035L41.2027 37.4841C41.4853 37.2016 41.9401 37.2016 42.2227 37.4841C42.5052 37.7667 42.5052 38.2215 42.2227 38.5041L40.1621 40.5647C40.4584 41.2331 40.6514 42.005 40.7203 42.8389H42.836C43.2357 42.8389 43.5527 43.1628 43.5527 43.5556C43.5527 43.9484 43.2288 44.2723 42.836 44.2723H40.7203C40.6927 44.61 40.6445 44.9408 40.5756 45.2509L42.2227 46.898C42.3605 47.0359 42.4363 47.215 42.4363 47.408V49.1171C42.4363 49.5168 42.1124 49.8338 41.7196 49.8338C41.3268 49.8338 41.0029 49.5099 41.0029 49.1171V47.7043L40.0656 46.7671C39.404 48.1109 38.3358 48.9724 37.1022 48.9724C35.8686 48.9724 34.8004 48.1109 34.1388 46.7671L33.2016 47.7043V49.1171C33.2016 49.5168 32.8777 49.8338 32.4849 49.8338C32.0921 49.8338 31.7681 49.5099 31.7681 49.1171V47.408C31.7681 47.215 31.844 47.0359 31.9818 46.898L33.6289 45.2509C33.56 44.9339 33.5117 44.61 33.4841 44.2723H31.3753C30.9756 44.2723 30.6586 43.9484 30.6586 43.5556C30.6586 43.1628 30.9618 42.8389 31.3547 42.8389ZM37.0953 47.5389C40.0036 47.5389 40.0243 39.5792 37.0953 39.5792C34.1388 39.5792 34.2078 47.5389 37.0953 47.5389Z" fill="#DD2127"/>
<defs>
<filter id="filter0_d_13135_901" x="0" y="0" width="76" height="76" filterUnits="userSpaceOnUse" color-interpolation-filters="sRGB">
<feFlood flood-opacity="0" result="BackgroundImageFix"/>
<feColorMatrix in="SourceAlpha" type="matrix" values="0 0 0 0 0 0 0 0 0 0 0 0 0 0 0 0 0 0 127 0" result="hardAlpha"/>
<feMorphology radius="3" operator="erode" in="SourceAlpha" result="effect1_dropShadow_13135_901"/>
<feOffset dx="1"/>
<feGaussianBlur stdDeviation="5"/>
<feColorMatrix type="matrix" values="0 0 0 0 0 0 0 0 0 0 0 0 0 0 0 0 0 0 0.25 0"/>
<feBlend mode="darken" in2="BackgroundImageFix" result="effect1_dropShadow_13135_901"/>
<feBlend mode="normal" in="SourceGraphic" in2="effect1_dropShadow_13135_901" result="shape"/>
</filter>
</defs>
</svg>
