<svg width="76" height="76" viewBox="0 0 76 76" fill="none" xmlns="http://www.w3.org/2000/svg">
<g filter="url(#filter0_d_13133_811)">
<circle cx="37" cy="38" r="30" fill="white"/>
<circle cx="37" cy="38" r="30.5" stroke="#DD2127" stroke-linecap="round" stroke-linejoin="round"/>
</g>
<path d="M53.6533 34.242H52.4874C51.2094 34.242 50.1705 35.2659 50.1407 36.5365H45.6639C44.2438 34.6008 42.2558 33.2181 40.0137 32.538V27.6277H44.2364C45.6489 27.6277 46.7999 26.4768 46.7999 25.0642C46.7999 23.6517 45.6489 22.5007 44.2364 22.5007H29.4981C28.0855 22.5007 26.9346 23.6517 26.9346 25.0642C26.9346 26.4768 28.0855 27.6277 29.4981 27.6277H33.7208V32.538C31.4786 33.2106 29.4981 34.6008 28.0781 36.5365H23.5938C23.5639 35.2659 22.5251 34.242 21.247 34.242H20.0811C18.7882 34.242 17.7344 35.2958 17.7344 36.5888V49.3764C17.7344 50.6694 18.7882 51.7232 20.0811 51.7232H21.247C22.5251 51.7232 23.5639 50.6993 23.5938 49.4287H28.0856C30.1259 52.2314 33.377 53.8906 36.8672 53.8906C40.365 53.8906 43.6161 52.2314 45.6564 49.4287H50.1407C50.1705 50.6993 51.2094 51.7232 52.4874 51.7232H53.6533C54.9463 51.7232 56.0001 50.6694 56.0001 49.3764V36.5888C56.0001 35.2958 54.9463 34.242 53.6533 34.242ZM22.0318 49.3764C22.0318 49.8099 21.6805 50.1612 21.247 50.1612H20.0811C19.6477 50.1612 19.2964 49.8099 19.2964 49.3764V36.5888C19.2964 36.1553 19.6477 35.804 20.0811 35.804H21.247C21.6805 35.804 22.0318 36.1553 22.0318 36.5888V49.3764ZM28.4891 25.0717C28.4891 24.5187 28.9376 24.0702 29.4906 24.0702H44.2364C44.7894 24.0702 45.2379 24.5187 45.2379 25.0717C45.2379 25.6248 44.7894 26.0732 44.2364 26.0732C39.8268 26.0732 35.2678 26.0732 29.4906 26.0732C28.945 26.0732 28.4891 25.6248 28.4891 25.0717ZM35.2828 27.6352H38.4591V32.2017C37.936 32.127 37.4053 32.0821 36.8747 32.0821C36.3441 32.0821 35.806 32.127 35.2903 32.2017L35.2828 27.6352ZM45.2528 47.8667C44.9912 47.8667 44.7521 47.9938 44.6026 48.2105C42.8761 50.789 39.9838 52.3211 36.8672 52.3211C33.7581 52.3211 30.8658 50.7815 29.1394 48.203C28.9974 47.9863 28.7507 47.8592 28.4891 47.8592H23.5938V38.106H28.4817C28.7432 38.106 28.9824 37.9789 29.1319 37.7622C30.8733 35.1837 33.7731 33.6441 36.8747 33.6441C39.9838 33.6441 42.8761 35.1837 44.625 37.7622C44.767 37.9789 45.0136 38.106 45.2752 38.106H50.1556V47.8667H45.2528ZM54.4381 49.3764C54.4381 49.8099 54.0868 50.1612 53.6533 50.1612H52.4874C52.0539 50.1612 51.7027 49.8099 51.7027 49.3764V36.5888C51.7027 36.1553 52.0539 35.804 52.4874 35.804H53.6533C54.0868 35.804 54.4381 36.1553 54.4381 36.5888V49.3764Z" fill="#DD2127"/>
<path d="M36.8672 37.4631C33.8254 37.4631 31.3516 39.937 31.3516 42.9788C31.3516 46.0206 33.8254 48.4944 36.8672 48.4944C39.909 48.4944 42.3828 46.0206 42.3828 42.9788C42.3828 39.937 39.909 37.4631 36.8672 37.4631ZM36.8672 46.9399C34.6849 46.9399 32.9136 45.1611 32.9136 42.9863C32.9136 40.8039 34.6923 39.0326 36.8672 39.0326C39.0421 39.0326 40.8208 40.8114 40.8208 42.9863C40.8208 45.1611 39.0495 46.9399 36.8672 46.9399Z" fill="#DD2127"/>
<defs>
<filter id="filter0_d_13133_811" x="0" y="0" width="76" height="76" filterUnits="userSpaceOnUse" color-interpolation-filters="sRGB">
<feFlood flood-opacity="0" result="BackgroundImageFix"/>
<feColorMatrix in="SourceAlpha" type="matrix" values="0 0 0 0 0 0 0 0 0 0 0 0 0 0 0 0 0 0 127 0" result="hardAlpha"/>
<feMorphology radius="3" operator="erode" in="SourceAlpha" result="effect1_dropShadow_13133_811"/>
<feOffset dx="1"/>
<feGaussianBlur stdDeviation="5"/>
<feColorMatrix type="matrix" values="0 0 0 0 0 0 0 0 0 0 0 0 0 0 0 0 0 0 0.25 0"/>
<feBlend mode="darken" in2="BackgroundImageFix" result="effect1_dropShadow_13133_811"/>
<feBlend mode="normal" in="SourceGraphic" in2="effect1_dropShadow_13133_811" result="shape"/>
</filter>
</defs>
</svg>
