<svg width="76" height="76" viewBox="0 0 76 76" fill="none" xmlns="http://www.w3.org/2000/svg">
<g filter="url(#filter0_d_13839_2787)">
<circle cx="37" cy="38" r="30" fill="white"/>
<circle cx="37" cy="38" r="30.5" stroke="#DD2127" stroke-linecap="round" stroke-linejoin="round"/>
</g>
<rect x="27.1152" y="18.8846" width="26.6923" height="34.7692" rx="3.5" stroke="#DD2127"/>
<path d="M48.5391 26.4615L49.6929 26.4615" stroke="#DD2127" stroke-linecap="round"/>
<path d="M48.5391 32.2308L49.6929 32.2308" stroke="#DD2127" stroke-linecap="round"/>
<path d="M48.5391 38L49.6929 38" stroke="#DD2127" stroke-linecap="round"/>
<path d="M48.5391 43.7692L49.6929 43.7692" stroke="#DD2127" stroke-linecap="round"/>
<rect x="21.5" y="21.1923" width="26.6923" height="34.7692" rx="3.5" fill="white" stroke="#DD2127"/>
<path d="M25 28.7692H43.4615" stroke="#DD2127" stroke-linecap="round"/>
<path d="M25 34H43.4615" stroke="#DD2127" stroke-linecap="round"/>
<path d="M25 39H43.4615" stroke="#DD2127" stroke-linecap="round"/>
<path d="M30.1998 44.1241V45.0593H28.6741V49.9007H27.5257V45.0593H26V44.1241H30.1998Z" fill="#DD2127"/>
<path d="M35.5739 49.9007L34.9504 49.28C34.42 49.76 33.772 50 33.0064 50C32.5853 50 32.2135 49.9283 31.8908 49.7848C31.5736 49.6359 31.3276 49.429 31.1526 49.1641C30.9776 48.8938 30.8901 48.5821 30.8901 48.229C30.8901 47.8483 30.9967 47.5062 31.21 47.2028C31.4233 46.8993 31.7377 46.6538 32.1533 46.4662C32.0057 46.2841 31.899 46.1103 31.8334 45.9448C31.7678 45.7738 31.735 45.5917 31.735 45.3986C31.735 45.1338 31.8033 44.8966 31.94 44.6869C32.0767 44.4717 32.2709 44.3034 32.5224 44.1821C32.7794 44.0607 33.0775 44 33.4165 44C33.761 44 34.0563 44.0662 34.3024 44.1986C34.5485 44.331 34.7317 44.5076 34.852 44.7283C34.9723 44.949 35.0243 45.1945 35.0079 45.4648H33.8923C33.8978 45.2828 33.854 45.1448 33.761 45.051C33.6681 44.9517 33.5423 44.9021 33.3837 44.9021C33.2306 44.9021 33.1021 44.949 32.9982 45.0428C32.8998 45.131 32.8505 45.2469 32.8505 45.3903C32.8505 45.5283 32.8916 45.6662 32.9736 45.8041C33.0556 45.9366 33.1896 46.1021 33.3755 46.3007L34.8192 47.7407C34.8301 47.7297 34.8383 47.7186 34.8438 47.7076C34.8493 47.6966 34.8547 47.6855 34.8602 47.6745L35.3278 46.8883H36.5254L35.9512 47.9062C35.8418 48.1214 35.7242 48.3255 35.5985 48.5186L36.9847 49.9007H35.5739ZM33.0392 49.04C33.4876 49.04 33.8841 48.88 34.2286 48.56L32.8177 47.1531C32.2873 47.3903 32.0221 47.7269 32.0221 48.1628C32.0221 48.411 32.115 48.6207 32.301 48.7917C32.4869 48.9572 32.733 49.04 33.0392 49.04Z" fill="#DD2127"/>
<path d="M37.4057 47.0041C37.4057 46.4359 37.5315 45.9283 37.783 45.4814C38.0401 45.029 38.3873 44.6786 38.8248 44.4303C39.2677 44.1766 39.7626 44.0497 40.3095 44.0497C40.9493 44.0497 41.5098 44.2152 41.9911 44.5462C42.4723 44.8772 42.8086 45.3352 43 45.92H41.6794C41.5481 45.6441 41.3622 45.4372 41.1216 45.2993C40.8864 45.1614 40.613 45.0924 40.3013 45.0924C39.9677 45.0924 39.6697 45.1724 39.4072 45.3324C39.1502 45.4869 38.9478 45.7076 38.8002 45.9945C38.658 46.2814 38.5869 46.6179 38.5869 47.0041C38.5869 47.3848 38.658 47.7214 38.8002 48.0138C38.9478 48.3007 39.1502 48.5241 39.4072 48.6841C39.6697 48.8386 39.9677 48.9159 40.3013 48.9159C40.613 48.9159 40.8864 48.8469 41.1216 48.709C41.3622 48.5655 41.5481 48.3559 41.6794 48.08H43C42.8086 48.6703 42.4723 49.131 41.9911 49.4621C41.5153 49.7876 40.9548 49.9503 40.3095 49.9503C39.7626 49.9503 39.2677 49.8262 38.8248 49.5779C38.3873 49.3241 38.0401 48.9738 37.783 48.5269C37.5315 48.08 37.4057 47.5724 37.4057 47.0041Z" fill="#DD2127"/>
<defs>
<filter id="filter0_d_13839_2787" x="0" y="-1.52588e-05" width="76" height="76" filterUnits="userSpaceOnUse" color-interpolation-filters="sRGB">
<feFlood flood-opacity="0" result="BackgroundImageFix"/>
<feColorMatrix in="SourceAlpha" type="matrix" values="0 0 0 0 0 0 0 0 0 0 0 0 0 0 0 0 0 0 127 0" result="hardAlpha"/>
<feMorphology radius="3" operator="erode" in="SourceAlpha" result="effect1_dropShadow_13839_2787"/>
<feOffset dx="1"/>
<feGaussianBlur stdDeviation="5"/>
<feColorMatrix type="matrix" values="0 0 0 0 0 0 0 0 0 0 0 0 0 0 0 0 0 0 0.25 0"/>
<feBlend mode="darken" in2="BackgroundImageFix" result="effect1_dropShadow_13839_2787"/>
<feBlend mode="normal" in="SourceGraphic" in2="effect1_dropShadow_13839_2787" result="shape"/>
</filter>
</defs>
</svg>
