<svg width="68" height="68" viewBox="0 0 68 68" fill="none" xmlns="http://www.w3.org/2000/svg">
<g filter="url(#filter0_d_12393_8338)">
<circle cx="33" cy="34" r="26" fill="white"/>
<circle cx="33" cy="34" r="26.5" stroke="#DD2127" stroke-linecap="round" stroke-linejoin="round"/>
</g>
<rect x="21.5" y="18.5" width="23" height="30" rx="3.5" stroke="#DD2127"/>
<path opacity="0.5" d="M25 25H41" stroke="#DD2127" stroke-width="0.5" stroke-linecap="round"/>
<path opacity="0.5" d="M25 30H41" stroke="#DD2127" stroke-width="0.5" stroke-linecap="round"/>
<path opacity="0.5" d="M25 35H41" stroke="#DD2127" stroke-width="0.5" stroke-linecap="round"/>
<path d="M41.6856 42.8446L38.3371 39.4957C38.8591 38.6389 39.1345 37.6545 39.1328 36.6511C39.1328 33.6231 36.5091 31 33.4813 31C32.7615 30.9999 32.0487 31.1416 31.3836 31.417C30.7185 31.6925 30.1142 32.0963 29.6052 32.6053C29.0962 33.1144 28.6924 33.7188 28.417 34.3839C28.1416 35.0491 27.9999 35.7619 28 36.4819C28 39.509 30.6237 42.133 33.6506 42.133C34.6208 42.1339 35.5737 41.8757 36.4108 41.3851L39.777 44.7534C39.9353 44.9113 40.1498 45 40.3733 45C40.5969 45 40.8114 44.9113 40.9697 44.7534L41.8053 43.9178C42.134 43.589 42.0144 43.1734 41.6856 42.8446ZM29.6871 36.4819C29.687 35.9835 29.7851 35.49 29.9757 35.0295C30.1663 34.569 30.4458 34.1506 30.7981 33.7981C31.1504 33.4457 31.5688 33.1661 32.0292 32.9753C32.4895 32.7846 32.983 32.6864 33.4813 32.6864C35.5778 32.6864 37.4457 34.5536 37.4457 36.6511C37.4455 37.6577 37.0456 38.6229 36.3339 39.3347C35.6222 40.0464 34.657 40.4464 33.6506 40.4466C31.5541 40.4457 29.6871 38.5777 29.6871 36.4819Z" fill="#DD2127"/>
<defs>
<filter id="filter0_d_12393_8338" x="0" y="0" width="68" height="68" filterUnits="userSpaceOnUse" color-interpolation-filters="sRGB">
<feFlood flood-opacity="0" result="BackgroundImageFix"/>
<feColorMatrix in="SourceAlpha" type="matrix" values="0 0 0 0 0 0 0 0 0 0 0 0 0 0 0 0 0 0 127 0" result="hardAlpha"/>
<feMorphology radius="3" operator="erode" in="SourceAlpha" result="effect1_dropShadow_12393_8338"/>
<feOffset dx="1"/>
<feGaussianBlur stdDeviation="5"/>
<feColorMatrix type="matrix" values="0 0 0 0 0 0 0 0 0 0 0 0 0 0 0 0 0 0 0.25 0"/>
<feBlend mode="darken" in2="BackgroundImageFix" result="effect1_dropShadow_12393_8338"/>
<feBlend mode="normal" in="SourceGraphic" in2="effect1_dropShadow_12393_8338" result="shape"/>
</filter>
</defs>
</svg>
